<?xml version="1.0" encoding="UTF-8"?><svg id="Capa_2" xmlns="http://www.w3.org/2000/svg" viewBox="0 0 51.5 34.9"><defs><style>.cls-1{fill:#ffeb16;stroke-width:0px;}</style></defs><g id="Capa_1-2"><path class="cls-1" d="M1.3,34.9l-1.3-3.9c4.47-1.47,8.1-3.22,10.9-5.25,2.8-2.03,4.47-4.68,5-7.95l-.5-.3c-1.53,1-3.17,1.5-4.9,1.5-2.4,0-4.23-.68-5.5-2.05-1.27-1.37-1.9-3.22-1.9-5.55,0-3.07,1.12-5.73,3.35-8C8.68,1.13,11.37,0,14.5,0s5.35.93,7.05,2.8c1.7,1.87,2.55,4.63,2.55,8.3,0,2.2-.4,4.43-1.2,6.7-.8,2.27-2.05,4.55-3.75,6.85-1.7,2.3-4.08,4.37-7.15,6.2-3.07,1.83-6.63,3.18-10.7,4.05ZM28.7,34.9l-1.3-3.9c4.47-1.47,8.1-3.22,10.9-5.25,2.8-2.03,4.47-4.68,5-7.95l-.5-.3c-1.47,1-3.1,1.5-4.9,1.5-2.4,0-4.23-.68-5.5-2.05-1.27-1.37-1.9-3.22-1.9-5.55,0-3.07,1.12-5.73,3.35-8,2.23-2.27,4.92-3.4,8.05-3.4s5.35.93,7.05,2.8c1.7,1.87,2.55,4.63,2.55,8.3,0,2.2-.4,4.43-1.2,6.7-.8,2.27-2.05,4.55-3.75,6.85-1.7,2.3-4.08,4.37-7.15,6.2-3.07,1.83-6.63,3.18-10.7,4.05Z"/></g></svg>