<?xml version="1.0" encoding="UTF-8"?>
<svg id="Capa_2" xmlns="http://www.w3.org/2000/svg" viewBox="0 0 51.6 34.9">
    <defs>
        <style>.cls-1{fill:#000;stroke-width:0px;}</style>
    </defs>
    <g id="Capa_1-2">
        <path class="cls-1" 
            d="M9.6,34.9c-6.4,0-9.6-3.7-9.6-11.1,0-2.2.4-4.43,1.2-6.7.8-2.27,2.05-4.55,3.75-6.85,1.7-2.3,4.08-4.37,7.15-6.2,3.07-1.83,6.63-3.18,10.7-4.05l1.3,3.9c-4.6,1.53-8.27,3.3-11,5.3-2.73,2-4.37,4.63-4.9,7.9l.5.3c1.4-1,3-1.5,4.8-1.5,2.47,0,4.33.68,5.6,2.05,1.27,1.37,1.9,3.22,1.9,5.55,0,3.13-1.13,5.82-3.4,8.05-2.27,2.23-4.93,3.35-8,3.35ZM37.1,34.9c-6.4,0-9.6-3.7-9.6-11.1,0-2.2.4-4.43,1.2-6.7.8-2.27,2.05-4.55,3.75-6.85,1.7-2.3,4.08-4.37,7.15-6.2,3.07-1.83,6.63-3.18,10.7-4.05l1.3,3.9c-4.6,1.53-8.27,3.3-11,5.3-2.73,2-4.37,4.63-4.9,7.9l.5.3c1.4-1,3-1.5,4.8-1.5,2.47,0,4.33.68,5.6,2.05,1.27,1.37,1.9,3.22,1.9,5.55,0,3.13-1.13,5.82-3.4,8.05-2.27,2.23-4.93,3.35-8,3.35Z" />
    </g>
</svg>