<?xml version="1.0" encoding="UTF-8"?><svg id="Capa_2" xmlns="http://www.w3.org/2000/svg" viewBox="0 0 66 46"><defs><style>.cls-1{fill:#fff;}.cls-1,.cls-2{stroke-width:0px;}.cls-2{fill:#ffeb14;}</style></defs><g id="Capa_1-2"><path class="cls-2" d="M66,46H0V0h32.38c8.27,0,15.75,4.9,19.05,12.49l14.57,33.51Z"/><path class="cls-1" d="M22.85,14.14c1.42,1.4,2.14,3.09,2.14,5.06,0,1.47-.4,2.63-1.19,3.49-.8.86-1.97,1.29-3.52,1.29-1.13,0-2.14-.31-3.02-.94l-.31.19c.33,2.05,1.36,3.71,3.08,4.96,1.72,1.26,4.02,2.37,6.91,3.33l-.82,2.45c-2.56-.54-4.8-1.39-6.72-2.54-1.93-1.15-3.43-2.45-4.49-3.9-1.07-1.45-1.85-2.88-2.36-4.3-.5-1.42-.75-2.83-.75-4.21,0-4.65,2.01-6.98,6.03-6.98,1.93,0,3.6.7,5.03,2.11ZM40.13,14.14c1.42,1.4,2.14,3.09,2.14,5.06,0,1.47-.4,2.63-1.19,3.49-.8.86-1.97,1.29-3.52,1.29-1.13,0-2.14-.31-3.02-.94l-.31.19c.33,2.05,1.36,3.71,3.08,4.96,1.72,1.26,4.02,2.37,6.91,3.33l-.82,2.45c-2.56-.54-4.8-1.39-6.72-2.54-1.93-1.15-3.42-2.45-4.49-3.9-1.07-1.45-1.85-2.88-2.36-4.3-.5-1.42-.75-2.83-.75-4.21,0-4.65,2.01-6.98,6.03-6.98,1.93,0,3.6.7,5.03,2.11Z"/></g></svg>