<?xml version="1.0" encoding="UTF-8"?><svg id="Capa_2" xmlns="http://www.w3.org/2000/svg" viewBox="0 0 302.99 426.2"><defs><style>.cls-1{fill:#000;stroke-width:0px;}</style></defs><g id="Capa_1-2"><g id="D5kaGy"><path class="cls-1" d="M145.63,87.87c11.89-34.91,30.68-63.4,67.87-75.63-5.89,5.94-9.37,13.13-12.05,20.97,1.6.04,1.64-1.21,2.05-1.93C221.86-.45,254.39-6.86,285.69,6.73c4.27,1.85,8.33,4.14,11.97,7.16,4.4,3.66,5.87,8.18,5.16,13.77-2.64,20.86-14.33,36.13-30.08,48.89-4.8,3.89-9.97,7.32-15.56,9.93-8.33,3.9-14.99,9.44-20.7,16.76-11.25,14.44-27.57,19.7-44.79,22.87-1.22.22-2.68-.25-3.96,1.5,13.05.61,24.79-2.93,36.4-8.42-3.73,20.36-32.09,40.12-62.77,44.28,13.97,1.41,26.58-2.84,39.04-9.68-3.62,15.85-23.39,32.12-52.99,43.99,6.41.28,11.44-1.42,16.37-3.69,4.81-2.21,9.34-4.94,14.1-7.46-12.08,27.64-30.69,48.17-60.57,57.09,4.66-1.15,9.37-2.13,13.96-3.5,4.7-1.4,9.3-3.18,14.28-4.17-7.81,14.86-18.96,24.67-37.46,24.35,3.7,4.46,8.34,3.01,12.86,3.63-2.31,3.79-5.85,4.85-9.17,5.78-5.61,1.58-11.39,2.73-17.26,1.77-3.23-.53-4.68.72-5.14,3.76-.59,3.95-1.37,7.88-1.89,11.84-.34,2.58-1.44,4.08-4.18,3.74-3.02-.37-2.45-2.51-2.13-4.55,8.3-52.69,27.16-101.16,57.97-144.85.77-1.09,1.46-2.23,2.13-3.37.14-.23.02-.61.02-1.31-2.21.74-3.01,2.63-4.06,4.13-28.09,39.96-47.13,83.76-56.05,131.88-.34,1.83.03,4.55-2.53,4.85-2.27.27-3.36-1.95-4.16-3.78-1.2-2.74-2.1-5.61-3.25-8.38-1.94-4.67-4-9.26-9.51-10.81-.76-.21-1.84-.56-1.58-1.53.17-.64,1.05-1.24,1.75-1.56,3.25-1.5,6.78-.73,10.65-.65-1.69-4.39-4.08-7.4-7.64-9.49-.85-.5-2.03-.92-1.97-2.04.08-1.38,1.42-1.7,2.53-2.05,2.75-.87,5.54-1,9.63.55-5.06-11.57-8.22-22.38-6.3-34.04,1.88-11.42,6.26-21.72,13.03-31.23.14,10.62-.38,21.14,4.98,30.68.87,1.54,1.27,3.46,3.8,4.58-1.37-6.3-2.7-12.17-3.05-18.2-2.14-37.34,7.54-70.85,31.85-99.74,8.62-10.25,18.26-19.4,29.12-27.24.99-.72,2.05-2.28,3.41-1.08,1.15,1.01-.22,2.12-.63,3.12-3.03,7.42-5.13,15.07-5.72,23.07ZM157.09,116.87c16.38-18.14,33.88-35.18,52.62-50.93-19.94,14.48-37.42,31.5-52.62,50.93Z"/><path class="cls-1" d="M78.98,426.19c-21.16,0-42.33.03-63.49,0-12.41-.02-17.77-6.79-14.59-18.78,6.4-24.15,13.17-48.21,19.44-72.39,1.97-7.58,6.61-11.19,13.91-12.23,4.64-.66,9.15-1.83,13.46-3.67,4.19-1.79,6.76-4.56,6.4-9.57-.34-4.69-3.41-6.57-7.19-7.91-1.88-.67-3.86-1.06-5.75-1.69-2.53-.84-4.76-2.12-4.14-5.29.58-3,3.08-3.08,5.5-3.07,21.82.02,43.63.03,65.45.04,2.83,0,5.67-.07,8.5-.04,2.31.03,4.42.55,4.8,3.32.36,2.63-1.27,4.01-3.5,4.78-2.52.87-5.11,1.52-7.61,2.42-3.61,1.31-5.74,3.81-5.98,7.8-.24,3.98,1.57,6.72,4.96,8.51,4.48,2.36,9.32,3.66,14.29,4.28,8.06,1.01,12.69,5.14,14.78,13.21,6.05,23.38,12.59,46.64,18.9,69.95.69,2.56,1.36,5.14,1.28,7.86-.24,7.84-5.38,12.43-14.43,12.46-21.66.07-43.33.02-64.99.03Z"/></g></g></svg>