<?xml version="1.0" encoding="UTF-8"?>
<svg id="Capa_1" xmlns="http://www.w3.org/2000/svg" viewBox="0 0 431.63 100">
  <defs>
    <style>
      .cls-1 {
        fill: #574d2f;
      }

      .cls-2 {
        fill: #fff;
      }
    </style>
  </defs>
  <rect class="cls-1" x="0" y="0" width="429.68" height="100" rx="50" ry="50"/>
  <g id="Capa_1-2" data-name="Capa_1">
    <g>
      <g>
        <path class="cls-2" d="M70.54,29.96v.3c0,1.14-.35,2.18-1.09,3.22-.74.99-1.98,1.79-3.82,2.33-.05,0-.15,0-.3.1-.5.15-.99.35-1.54.5-.55.2-1.04.35-1.54.5-.55.2-1.09.4-1.59.55-.4.1-.74.25-1.09.5-.3.2-.55.45-.79.74s-.35.69-.35,1.14h0v11.41h-3.97v-28.87c0-.35.05-.84.2-1.49.15-.64.45-1.29.99-1.88.55-.64,1.34-1.19,2.43-1.64,1.09-.45,2.53-.69,4.41-.69s3.37.25,4.41.69c1.09.45,1.88.99,2.38,1.64.55.64.84,1.29.99,1.88.15.64.2,1.14.2,1.49v7.59h.05ZM59.52,33.88c.45-.15.89-.3,1.34-.5.5-.15.94-.3,1.44-.5.5-.15.89-.3,1.29-.45.2-.05.4-.15.55-.2.2-.05.35-.15.5-.2.79-.3,1.34-.69,1.54-1.19s.35-.94.35-1.39v-6.45c0-.3,0-.6-.15-.94-.1-.35-.3-.64-.6-.94-.3-.3-.69-.55-1.24-.74s-1.24-.3-2.18-.3-1.54.1-2.03.3c-.5.2-.94.45-1.19.79-.3.3-.45.64-.55.94-.1.35-.1.64-.1.94v11.06c.3-.1.64-.2,1.04-.4v.15Z"/>
        <path class="cls-2" d="M83.28,26.24c1.88,0,3.37.25,4.41.69,1.09.45,1.88.99,2.38,1.64.55.64.84,1.29.99,1.93.15.64.2,1.14.2,1.49v1.19h0v1.09c0,.55-.1,1.14-.3,1.79s-.69,1.39-1.44,2.13c-.35.4-.74.64-1.19.84s-.84.35-1.19.45c-.4.15-.84.2-1.29.2h-3.57c-.79,0-1.54.3-2.18.89-.64.6-.94,1.34-.94,2.23v2.13c0,.74.15,1.34.45,1.79.15.2.25.4.45.55.15.15.4.3.69.45.25.15.6.25.94.35.4.1.89.15,1.54.15s1.44-.1,1.93-.25c.5-.15.79-.3.99-.45.4-.3.69-.69.84-1.14.15-.45.25-.89.25-1.44h4.02v1.14c0,.84-.2,1.64-.55,2.38s-.94,1.34-1.69,1.88c-.55.4-1.29.69-2.23.99s-2.13.45-3.57.45-1.98-.1-2.78-.25c-.79-.2-1.49-.4-2.03-.64-.6-.25-1.04-.6-1.44-.94-.4-.35-.69-.69-.94-1.04-.55-.79-.84-1.74-.79-2.83v-12.75h0v-1.24c0-.4.05-.89.2-1.49.15-.64.45-1.24.99-1.88s1.34-1.19,2.38-1.64c1.09-.45,2.53-.69,4.41-.69l.05-.15ZM87.25,33.09v-.45c0-.3,0-.6-.1-.94s-.25-.64-.55-.94c-.3-.3-.69-.55-1.19-.74s-1.19-.3-2.03-.3-1.59.1-2.13.3-.99.45-1.29.74c-.3.3-.5.6-.6.94s-.15.64-.15.89v.5h0v4.36c.05-.3.2-.5.45-.69.2-.15.5-.3.74-.4.3-.1.55-.15.84-.2h3.32c.74,0,1.34-.25,1.88-.79.55-.5.79-1.14.79-1.88v-.4h0Z"/>
        <path class="cls-2" d="M107.19,33.04v-.5c0-.3-.05-.64-.2-.94-.15-.35-.35-.64-.64-.94-.3-.3-.74-.5-1.24-.69-.5-.15-1.19-.25-1.93-.25-1.59,0-2.63.35-3.17.94-.55.64-.84,1.44-.84,2.33v11.46c0,1.19.3,2.08.84,2.68.55.6,1.64.89,3.17.89s2.63-.3,3.22-.94c.55-.6.84-1.49.84-2.63h3.97v1.39c0,.55-.1,1.19-.3,1.88s-.6,1.29-1.19,1.88c-.6.55-1.44,1.04-2.43,1.44-1.04.4-2.38.55-4.07.55s-3.03-.2-4.07-.55c-1.04-.4-1.84-.84-2.43-1.44-.6-.55-.99-1.19-1.19-1.88s-.3-1.29-.3-1.88v-13.94c0-.79.15-1.54.45-2.23s.79-1.29,1.44-1.84c.64-.5,1.49-.94,2.48-1.24s2.23-.45,3.62-.45c2.78,0,4.81.55,6.1,1.64,1.29,1.09,1.93,2.43,1.93,4.07v1.14h-3.97l-.1.05Z"/>
        <path class="cls-2" d="M131.84,44.99v.84c0,.4-.05.89-.2,1.49-.15.64-.45,1.24-.99,1.88s-1.34,1.19-2.38,1.64c-1.09.45-2.53.69-4.41.69s-3.37-.25-4.41-.69c-1.09-.45-1.88-.99-2.43-1.64-.55-.64-.84-1.29-.99-1.93s-.2-1.14-.2-1.49v-19.24h3.97v18.05h0v.5c0,.25,0,.55.1.89s.25.69.5.99.64.55,1.19.74c.5.2,1.24.3,2.08.3s1.64-.1,2.18-.3c.55-.2.94-.45,1.24-.74s.5-.6.55-.94c.1-.35.15-.64.15-.94v-.5h0v-18.05h3.97v18.45h.1Z"/>
        <path class="cls-2" d="M144.54,26.24c2.78,0,4.81.55,6.1,1.64,1.29,1.09,1.93,2.43,1.93,4.07v13.94c0,.55-.1,1.19-.3,1.88-.2.69-.6,1.29-1.19,1.88-.6.55-1.44,1.04-2.43,1.44-1.04.4-2.38.55-4.07.55s-3.03-.2-4.07-.55c-1.04-.4-1.84-.84-2.43-1.44-.6-.55-.99-1.19-1.19-1.88s-.3-1.29-.3-1.88v-2.23c0-1.19.3-2.28.94-3.27.6-.99,1.49-1.69,2.63-2.08.55-.2,1.19-.4,1.93-.64s1.44-.5,2.08-.74c.69-.25,1.29-.45,1.79-.64.5-.2.79-.3.94-.35.15-.05.3-.15.5-.25s.4-.3.6-.5.35-.5.5-.74c.15-.3.2-.6.2-.99v-.89c0-.3-.05-.64-.2-.94-.15-.35-.35-.64-.64-.94-.3-.3-.74-.5-1.24-.69-.5-.15-1.19-.25-1.93-.25-1.59,0-2.63.35-3.17.94-.55.64-.84,1.44-.84,2.33h-4.02v-1.14c0-.79.15-1.54.45-2.23.3-.69.79-1.29,1.44-1.84.64-.5,1.49-.94,2.48-1.24s2.23-.45,3.62-.45l-.1.15ZM148.6,38.74c-.05.3-.2.55-.5.69-.25.15-.5.25-.69.35-.5.15-.99.35-1.54.55-.55.2-1.04.4-1.54.55-.55.2-1.09.4-1.59.55-.4.15-.74.4-1.09.64-.3.25-.55.6-.79.99s-.35.89-.35,1.49c0,1.19.3,2.08.84,2.68.55.6,1.64.89,3.17.89s2.63-.3,3.22-.94c.55-.6.84-1.49.84-2.63v-5.8h0Z"/>
        <path class="cls-2" d="M165.22,26.29h1.39c.4,0,.79,0,1.24.05l-.89,3.42h-1.84c-.84,0-1.54.1-2.03.35-.5.2-.94.5-1.19.79-.3.3-.45.6-.55.94-.1.35-.1.64-.1.94v18.45h-4.02v-19.24c0-.35.05-.84.2-1.49.15-.64.45-1.29.99-1.93s1.34-1.19,2.43-1.64,2.53-.69,4.41-.69l-.05.05Z"/>
        <path class="cls-2" d="M175.29,17.07v4.76h-3.97v-4.76h3.97ZM171.32,26.59h3.97v24.6h-3.97v-24.6Z"/>
        <path class="cls-2" d="M195.97,45.14v.74c0,.4-.05.89-.2,1.49-.15.64-.45,1.24-.99,1.88s-1.34,1.19-2.43,1.64c-1.09.45-2.53.69-4.41.69s-3.37-.25-4.41-.69c-1.09-.45-1.88-.99-2.43-1.64s-.84-1.29-.99-1.93c-.15-.64-.2-1.14-.2-1.49v-13.94c0-.35.05-.84.2-1.49s.45-1.29.99-1.93,1.34-1.19,2.43-1.64c1.09-.45,2.53-.69,4.41-.69s3.37.25,4.41.69c1.09.45,1.88.99,2.43,1.64s.84,1.24.99,1.88c.15.64.2,1.14.2,1.49v13.29ZM191.95,44.64v-12c0-.3,0-.6-.15-.94-.1-.35-.3-.64-.6-.94-.3-.3-.69-.55-1.24-.74s-1.24-.3-2.18-.3-1.54.1-2.03.3-.94.45-1.19.74c-.3.3-.45.64-.55.99s-.1.64-.1.89v12.45c0,.25,0,.55.1.89s.25.64.55.99c.3.3.69.55,1.19.74s1.19.3,2.03.3,1.64-.1,2.18-.3.94-.45,1.24-.74.5-.6.6-.94.15-.64.15-.94v-.5.05Z"/>
        <path class="cls-2" d="M211.84,30.71c-.55-.64-1.59-.94-3.17-.94s-1.44.1-1.93.25-.94.4-1.24.69c-.3.3-.55.6-.64.94-.15.35-.2.64-.2.94v.89c0,.4.05.69.2.99s.3.55.5.74.4.4.6.5c.2.1.35.2.5.25.15,0,.45.15.94.35s1.09.4,1.79.64,1.39.5,2.08.74c.74.25,1.39.5,1.93.64,1.14.4,1.98,1.09,2.63,2.08.6.99.94,2.08.94,3.27v2.23c0,.55-.1,1.19-.3,1.88s-.6,1.29-1.19,1.88c-.6.55-1.44,1.04-2.43,1.44-1.04.4-2.38.55-4.07.55s-3.03-.2-4.07-.55c-1.04-.4-1.84-.84-2.43-1.44-.6-.55-.99-1.19-1.19-1.88s-.3-1.29-.3-1.88v-1.39h3.97c0,1.14.3,1.98.84,2.63.55.6,1.64.94,3.22.94s2.58-.3,3.17-.89c.55-.6.84-1.49.84-2.68s-.1-1.09-.35-1.49c-.2-.4-.5-.69-.74-.99-.35-.3-.74-.5-1.14-.64-.94-.35-1.84-.64-2.63-.94-.74-.25-1.44-.5-2.08-.74-.69-.25-1.19-.4-1.49-.5-.3-.15-.69-.3-1.09-.55-.4-.25-.79-.6-1.19-.99s-.69-.89-.94-1.49-.4-1.24-.4-1.98v-2.28c0-1.64.64-2.98,1.93-4.07s3.32-1.64,6.1-1.64,2.63.15,3.62.45,1.84.69,2.48,1.24c.64.5,1.14,1.14,1.44,1.84.3.69.45,1.44.45,2.23v1.14h-4.02c0-.89-.3-1.69-.84-2.33l-.1-.1Z"/>
        <path class="cls-2" d="M221.37,47.07h4.07v4.17h-4.07v-4.17Z"/>
        <path class="cls-2" d="M242.15,33.04v-.5c0-.3-.05-.64-.2-.94-.15-.35-.35-.64-.64-.94-.3-.3-.74-.5-1.24-.69-.5-.15-1.19-.25-1.93-.25-1.59,0-2.63.35-3.17.94-.55.64-.84,1.44-.84,2.33v11.46c0,1.19.3,2.08.84,2.68.55.6,1.64.89,3.17.89s2.63-.3,3.22-.94c.55-.6.84-1.49.84-2.63h3.97v1.39c0,.55-.1,1.19-.3,1.88s-.6,1.29-1.19,1.88c-.6.55-1.44,1.04-2.43,1.44-1.04.4-2.38.55-4.07.55s-3.03-.2-4.07-.55c-1.04-.4-1.84-.84-2.43-1.44-.6-.55-.99-1.19-1.19-1.88s-.3-1.29-.3-1.88v-13.94c0-.79.15-1.54.45-2.23s.79-1.29,1.44-1.84c.64-.5,1.49-.94,2.48-1.24s2.23-.45,3.62-.45c2.78,0,4.81.55,6.1,1.64,1.29,1.09,1.93,2.43,1.93,4.07v1.14h-3.97l-.1.05Z"/>
        <path class="cls-2" d="M266.85,45.14v.74c0,.4-.05.89-.2,1.49-.15.64-.45,1.24-.99,1.88s-1.34,1.19-2.43,1.64c-1.09.45-2.53.69-4.41.69s-3.37-.25-4.41-.69c-1.09-.45-1.88-.99-2.43-1.64s-.84-1.29-.99-1.93-.2-1.14-.2-1.49v-13.94c0-.35.05-.84.2-1.49s.45-1.29.99-1.93,1.34-1.19,2.43-1.64c1.09-.45,2.53-.69,4.41-.69s3.37.25,4.41.69c1.09.45,1.88.99,2.43,1.64s.84,1.24.99,1.88c.15.64.2,1.14.2,1.49v13.29ZM262.83,44.64v-12c0-.3,0-.6-.15-.94-.1-.35-.3-.64-.6-.94-.3-.3-.69-.55-1.24-.74s-1.24-.3-2.18-.3-1.54.1-2.03.3-.94.45-1.19.74c-.3.3-.45.64-.55.99s-.1.64-.1.89v12.45c0,.25,0,.55.1.89s.25.64.55.99c.3.3.69.55,1.19.74s1.19.3,2.03.3,1.64-.1,2.18-.3.94-.45,1.24-.74.5-.6.6-.94.15-.64.15-.94v-.5.05Z"/>
        <path class="cls-2" d="M299.58,51.24h-4.02v-18.55c0-.3,0-.6-.1-.94s-.25-.64-.5-.94c-.25-.3-.64-.55-1.19-.74-.5-.2-1.24-.3-2.08-.3s-1.59.1-2.13.3c-.55.2-.99.45-1.29.74-.3.3-.5.6-.6.94s-.15.64-.15.89v18.65h-4.02v-18.55c0-.3,0-.6-.1-.94s-.25-.64-.5-.94c-.25-.3-.64-.55-1.19-.74-.5-.2-1.24-.3-2.08-.3s-1.59.1-2.13.3c-.55.2-.99.45-1.29.74s-.5.6-.6.94-.15.64-.15.89v18.65h-3.97v-19.29c0-.4.05-.89.2-1.49.15-.64.45-1.24.99-1.88s1.34-1.19,2.43-1.64c1.09-.45,2.53-.69,4.41-.69s2.73.15,3.72.45c.94.3,1.74.64,2.33,1.09.6-.45,1.39-.79,2.33-1.09.94-.3,2.18-.45,3.72-.45s3.37.25,4.41.69c1.09.45,1.88.99,2.43,1.64s.84,1.29.99,1.93c.15.64.2,1.14.2,1.49v19.29l-.1-.15Z"/>
      </g>
      <g>
        <path class="cls-2" d="M129.86,62.05h7.59c.45,0,.84.1,1.19.3s.6.45.84.74.4.64.5,1.04c.1.4.15.79.15,1.24s-.1.94-.25,1.44c-.15.45-.35.89-.64,1.29-.25.4-.6.74-.94,1.09-.4.35-.79.6-1.24.79.69.25,1.19.64,1.54,1.24.35.6.55,1.29.55,2.03s-.15,1.44-.45,2.08c-.3.6-.69,1.14-1.24,1.59-.5.45-1.09.79-1.74,1.04s-1.34.35-2.03.35h-7.19l3.37-16.17v-.1ZM134.02,76.44c.4,0,.79-.1,1.14-.3.4-.2.69-.45.99-.74s.55-.64.69-1.04c.15-.4.25-.79.25-1.24s-.15-1.14-.5-1.59c-.3-.45-.74-.64-1.29-.64h-5.36l-1.14,5.56h5.21ZM135.11,69.24c.4,0,.74-.1,1.09-.25.35-.2.64-.4.94-.69.25-.3.5-.64.64-1.04.15-.4.25-.79.25-1.24s-.15-1.09-.45-1.54c-.3-.4-.69-.6-1.24-.6h-4.86l-1.14,5.41h4.71l.05-.05Z"/>
        <path class="cls-2" d="M143.15,66.32h1.98l-2.48,11.9h-1.98l2.48-11.9ZM144.14,61.61h1.98l-.5,2.53h-1.98l.5-2.53Z"/>
        <path class="cls-2" d="M151.53,78.47c-.94,0-1.69-.25-2.28-.69-.6-.45-1.04-1.04-1.29-1.79l-.5,2.23h-1.74l3.47-16.67h1.98l-1.49,7.09c.64-.79,1.34-1.39,2.13-1.88.79-.45,1.59-.69,2.48-.69s1.19.15,1.69.4.89.64,1.24,1.09c.35.45.6.94.74,1.54s.25,1.19.25,1.84c0,.99-.2,1.93-.6,2.88-.4.89-.89,1.69-1.49,2.38-.64.69-1.34,1.24-2.13,1.64-.79.4-1.64.6-2.48.6v.05ZM151.43,76.73c.6,0,1.14-.15,1.74-.45.55-.3,1.04-.69,1.49-1.19s.79-1.09,1.04-1.74.4-1.29.4-1.98-.05-.89-.2-1.29c-.1-.4-.3-.79-.55-1.14-.25-.35-.55-.6-.84-.79-.35-.2-.74-.3-1.19-.3s-.79.1-1.14.25c-.4.15-.74.35-1.09.6s-.69.55-.99.89c-.3.35-.6.69-.84,1.09l-.69,3.42c0,.35.1.69.25,1.04.15.3.35.6.6.84s.55.45.94.55c.35.15.74.2,1.09.2h0Z"/>
        <path class="cls-2" d="M161.55,78.37c-.64,0-1.09-.15-1.44-.45s-.5-.74-.5-1.29,0-.25,0-.35,0-.25.05-.35l2.98-14.28h1.93l-2.83,13.59v.4c0,.64.35.99.99.99s.35,0,.6-.1c.25-.05.45-.1.64-.2v1.64c-.4.15-.79.25-1.24.35s-.84.15-1.19.15v-.1Z"/>
        <path class="cls-2" d="M167.95,66.32h1.98l-2.48,11.9h-1.98l2.48-11.9ZM168.94,61.61h1.98l-.5,2.53h-1.98l.5-2.53Z"/>
        <path class="cls-2" d="M175.39,78.47c-.69,0-1.34-.15-1.93-.4-.55-.25-1.04-.64-1.44-1.09-.4-.45-.69-.99-.84-1.59-.2-.6-.3-1.24-.3-1.93s.2-1.88.55-2.78c.4-.89.89-1.69,1.54-2.33s1.39-1.24,2.23-1.64,1.79-.6,2.73-.6,1.34.15,1.93.4c.55.25,1.04.64,1.44,1.09.4.45.69.99.89,1.59s.3,1.24.3,1.93-.2,1.84-.55,2.73c-.4.89-.89,1.69-1.54,2.33-.64.69-1.39,1.24-2.28,1.64-.84.4-1.79.6-2.73.6v.05ZM175.78,76.73c.6,0,1.14-.15,1.69-.45.55-.3,1.04-.69,1.49-1.14.45-.5.79-1.04,1.04-1.69s.4-1.34.4-2.08-.05-.94-.2-1.39-.35-.79-.6-1.09-.55-.55-.89-.74-.74-.3-1.14-.3-1.14.15-1.69.45c-.55.3-1.04.69-1.49,1.19s-.79,1.09-1.04,1.74-.4,1.34-.4,2.03.05.94.2,1.39c.15.45.35.79.6,1.09s.55.55.89.74.74.25,1.19.25h-.05Z"/>
        <path class="cls-2" d="M186.35,78.37c-.6,0-1.14-.15-1.54-.45-.4-.3-.6-.74-.6-1.39s0-.45.05-.64l1.69-7.99h-1.54l.35-1.59h1.49l.84-3.97h1.98l-.84,3.97h2.48l-.35,1.59h-2.48l-1.54,7.39v.35c0,.3.1.55.3.69s.45.2.69.2.74-.05,1.04-.2c.35-.15.55-.25.69-.3l.1,1.59c-.25.2-.69.4-1.19.55-.55.15-1.09.25-1.69.25l.05-.05Z"/>
        <path class="cls-2" d="M195.72,78.47c-.74,0-1.39-.15-1.93-.4s-1.04-.6-1.44-1.09c-.4-.45-.69-.99-.89-1.59s-.3-1.24-.3-1.98.2-1.88.55-2.78c.35-.89.84-1.64,1.49-2.33.64-.69,1.39-1.24,2.28-1.64.84-.4,1.79-.6,2.83-.6s2.08.25,2.78.79,1.04,1.34,1.04,2.43-.5,2.13-1.54,2.73-2.63.94-4.86.94-.74,0-1.19,0-.89,0-1.39-.1v.55c0,.5.05.94.2,1.34.1.45.3.79.55,1.14.25.35.55.6.89.79.35.2.79.3,1.29.3s1.34-.2,2.03-.55c.64-.35,1.19-.84,1.54-1.44l1.59.5c-.25.45-.6.84-.99,1.19-.4.35-.84.69-1.34.94s-.99.5-1.54.64-1.09.25-1.64.25v-.05ZM198.05,67.61c-.64,0-1.24.1-1.74.35-.5.2-.94.5-1.34.89-.4.35-.69.79-.94,1.24s-.45.94-.6,1.44c.45,0,.89.1,1.29.1h1.09c.84,0,1.59-.05,2.13-.15.6-.1,1.04-.3,1.39-.5.35-.2.6-.45.79-.74.15-.3.25-.6.25-.94,0-.6-.2-.99-.6-1.29-.4-.3-.94-.4-1.64-.4h-.1Z"/>
        <path class="cls-2" d="M207.73,78.47c-.69,0-1.34-.15-1.93-.4-.55-.25-1.04-.64-1.44-1.09-.4-.45-.69-.99-.89-1.59s-.3-1.24-.3-1.93.2-1.88.55-2.78c.4-.89.89-1.64,1.54-2.33.64-.69,1.39-1.24,2.23-1.64s1.79-.6,2.78-.6,2.03.25,2.73.79,1.14,1.24,1.39,2.13l-2.03.6c-.15-.55-.45-.99-.89-1.29s-.94-.45-1.59-.45-1.19.15-1.74.45-1.04.64-1.49,1.14-.79,1.04-1.04,1.69-.4,1.34-.4,2.08.05.99.2,1.39c.15.45.35.79.6,1.14.25.3.55.55.89.74.35.2.74.3,1.14.3s.64,0,.99-.15c.35-.1.64-.25.94-.4s.55-.35.79-.6c.25-.2.45-.45.55-.69l1.84.6c-.25.45-.6.84-.94,1.19-.4.35-.79.69-1.29.94s-.99.45-1.54.6-1.09.25-1.64.25v-.1Z"/>
        <path class="cls-2" d="M219.28,78.47c-.64,0-1.24-.15-1.79-.4-.5-.25-.94-.64-1.29-1.09-.35-.45-.64-.99-.84-1.59-.2-.6-.3-1.24-.3-1.88,0-.94.2-1.88.55-2.78.35-.89.84-1.69,1.44-2.38.6-.69,1.29-1.24,2.08-1.64s1.59-.6,2.48-.6,1.64.25,2.23.74.99,1.09,1.29,1.84l.5-2.38h1.98l-1.98,9.42v.3c0,.3.15.4.5.45l-.35,1.74c-.15,0-.3.05-.45.05h-.35c-.4,0-.74-.1-.94-.3s-.35-.45-.35-.74.05-.69.2-1.29c-.6.79-1.29,1.39-2.13,1.84-.84.45-1.64.64-2.43.64l-.05.05ZM220.13,76.73c.35,0,.69-.05,1.04-.2.4-.15.74-.35,1.14-.55.35-.25.69-.55.99-.84.3-.35.55-.69.69-1.04l.69-3.42c0-.4-.15-.74-.35-1.09-.2-.35-.4-.64-.64-.89s-.55-.45-.89-.6c-.3-.15-.64-.2-.99-.2-.64,0-1.24.15-1.79.45s-1.04.74-1.49,1.24-.74,1.09-.99,1.74-.35,1.29-.35,1.93.05.94.2,1.39.35.79.6,1.14c.25.3.6.55.94.74.35.2.74.3,1.19.3v-.1Z"/>
        <path class="cls-2" d="M237.59,62.05h5.26c.99,0,1.88.15,2.63.5.74.3,1.34.74,1.84,1.34.5.55.84,1.24,1.09,1.98s.35,1.59.35,2.43c0,1.44-.25,2.73-.69,3.97s-1.09,2.28-1.93,3.17c-.84.89-1.84,1.59-2.93,2.08s-2.38.74-3.67.74h-5.26l3.37-16.17-.05-.05ZM239.87,76.39c1.04,0,1.98-.2,2.83-.64s1.54-.99,2.13-1.74c.6-.74,1.04-1.54,1.34-2.48s.5-1.93.5-2.98-.1-1.34-.25-1.88c-.2-.6-.45-1.09-.79-1.49s-.79-.74-1.29-.99c-.55-.25-1.14-.35-1.84-.35h-3.27l-2.63,12.55h3.27Z"/>
        <path class="cls-2" d="M251.87,66.32h1.98l-2.48,11.9h-1.98l2.48-11.9ZM252.86,61.61h1.98l-.5,2.53h-1.98l.5-2.53Z"/>
        <path class="cls-2" d="M258.02,83.33c-1.24,0-2.23-.25-2.93-.69-.69-.5-1.24-1.09-1.59-1.93l1.34-1.04c.3.69.74,1.24,1.39,1.59.6.35,1.34.55,2.13.55s.99-.1,1.49-.25.94-.4,1.34-.69c.4-.3.74-.69,1.04-1.14.3-.45.5-.99.64-1.64l.45-2.08c-.55.74-1.24,1.29-2.03,1.74-.79.45-1.59.64-2.38.64s-1.19-.15-1.69-.4-.94-.6-1.29-1.04-.6-.94-.79-1.54-.25-1.19-.25-1.84c0-.94.2-1.88.55-2.78s.84-1.69,1.44-2.38c.6-.69,1.29-1.24,2.13-1.64.79-.4,1.64-.6,2.53-.6s1.69.25,2.23.74c.6.5,1.04,1.09,1.34,1.84l.5-2.38h1.74l-2.48,11.76c-.2.84-.5,1.59-.89,2.23-.45.64-.94,1.19-1.54,1.64-.6.45-1.29.79-2.03.99-.74.25-1.54.35-2.33.35h-.05ZM259.86,76.73c.4,0,.79-.1,1.19-.25s.79-.35,1.14-.6c.35-.25.64-.55.94-.84s.5-.64.64-.99l.69-3.42c-.05-.4-.2-.79-.35-1.14-.2-.35-.4-.64-.64-.89s-.55-.45-.89-.6c-.35-.15-.69-.2-1.04-.2-.64,0-1.24.15-1.79.5s-1.04.74-1.49,1.24c-.4.5-.74,1.09-.99,1.74s-.35,1.24-.35,1.88.05.94.2,1.39.35.79.6,1.14c.25.3.55.6.94.74.35.2.74.3,1.19.3h0Z"/>
        <path class="cls-2" d="M270.42,66.32h1.98l-2.48,11.9h-1.98l2.48-11.9ZM271.41,61.61h1.98l-.5,2.53h-1.98l.5-2.53Z"/>
        <path class="cls-2" d="M276.07,78.37c-.6,0-1.14-.15-1.54-.45-.4-.3-.6-.74-.6-1.39s0-.45.05-.64l1.69-7.99h-1.54l.35-1.59h1.49l.84-3.97h1.98l-.84,3.97h2.48l-.35,1.59h-2.48l-1.54,7.39v.35c0,.3.1.55.3.69s.45.2.69.2.74-.05,1.04-.2c.35-.15.55-.25.69-.3l.1,1.59c-.25.2-.69.4-1.19.55-.55.15-1.09.25-1.69.25l.05-.05Z"/>
        <path class="cls-2" d="M285,78.47c-.64,0-1.24-.15-1.79-.4-.5-.25-.94-.64-1.29-1.09-.35-.45-.64-.99-.84-1.59-.2-.6-.3-1.24-.3-1.88,0-.94.2-1.88.55-2.78s.84-1.69,1.44-2.38c.6-.69,1.29-1.24,2.08-1.64s1.59-.6,2.48-.6,1.64.25,2.23.74.99,1.09,1.29,1.84l.5-2.38h1.98l-1.98,9.42v.3c0,.3.15.4.5.45l-.35,1.74c-.15,0-.3.05-.45.05h-.35c-.4,0-.74-.1-.94-.3s-.35-.45-.35-.74.05-.69.2-1.29c-.6.79-1.29,1.39-2.13,1.84-.84.45-1.64.64-2.43.64l-.05.05ZM285.85,76.73c.35,0,.69-.05,1.04-.2.4-.15.74-.35,1.14-.55.35-.25.69-.55.99-.84.3-.35.55-.69.69-1.04l.69-3.42c0-.4-.15-.74-.35-1.09-.2-.35-.4-.64-.64-.89s-.55-.45-.89-.6c-.3-.15-.64-.2-.99-.2-.64,0-1.24.15-1.79.45s-1.04.74-1.49,1.24-.74,1.09-.99,1.74-.35,1.29-.35,1.93.05.94.2,1.39.35.79.6,1.14c.25.3.6.55.94.74.35.2.74.3,1.19.3v-.1Z"/>
        <path class="cls-2" d="M296.46,78.37c-.64,0-1.09-.15-1.44-.45-.35-.3-.5-.74-.5-1.29s0-.25,0-.35,0-.25.05-.35l2.98-14.28h1.93l-2.83,13.59v.4c0,.64.35.99.99.99s.35,0,.6-.1c.25-.05.45-.1.64-.2v1.64c-.4.15-.79.25-1.24.35s-.84.15-1.19.15v-.1Z"/>
      </g>
    </g>
  </g>
  <g id="_x30_CMT5X.tif">
    <g>
      <path class="cls-2" d="M346.4,74.88c-.79-.33-1.17-.95-1.41-1.75-3.42-11.47-6.85-22.93-10.29-34.39-.22-.74-.2-1.42.36-1.99.58-.59,1.26-.62,2.02-.4,11.44,3.44,22.88,6.88,34.32,10.31.8.24,1.42.62,1.75,1.41v.88c-.27.61-.73,1.01-1.28,1.37-2.6,1.72-5.19,3.46-7.78,5.2-.14.1-.28.2-.51.38.2.15.36.25.49.37,2.71,2.71,5.43,5.42,8.12,8.15.36.37.64.82.96,1.24v.88c-.33.43-.62.89-1,1.27-2.01,2.04-4.03,4.07-6.07,6.08-.38.38-.84.67-1.27,1h-.88c-.43-.33-.89-.62-1.27-1-2.71-2.69-5.4-5.4-8.09-8.11-.14-.14-.2-.35-.33-.58-.24.35-.35.5-.45.65-1.72,2.58-3.45,5.16-5.15,7.76-.36.55-.76,1.01-1.36,1.28h-.88ZM338.93,40.59c2.85,9.51,5.67,18.92,8.51,28.43.18-.26.28-.41.39-.56,1.46-2.19,2.92-4.38,4.38-6.58.89-1.33,2-1.45,3.13-.32,2.87,2.87,5.74,5.75,8.61,8.62.14.14.29.27.37.35,1.53-1.52,3.02-3,4.6-4.57-.13-.1-.31-.2-.45-.34-2.88-2.88-5.77-5.77-8.64-8.66-1.05-1.05-.93-2.2.31-3.03,2.22-1.48,4.44-2.96,6.65-4.45.15-.1.3-.22.51-.38-9.48-2.85-18.86-5.67-28.36-8.53Z"/>
      <path class="cls-2" d="M336.75,22.15c1,.43,1.37,1.19,1.33,2.27-.06,1.54-.01,3.07-.02,4.61,0,1.12-.74,1.91-1.75,1.91-1.01,0-1.75-.79-1.75-1.91,0-1.54.04-3.08-.02-4.61-.04-1.08.33-1.84,1.33-2.26h.88Z"/>
      <path class="cls-2" d="M324.96,36.21c.82,0,1.64,0,2.47,0,1.07,0,1.86.74,1.87,1.74,0,1-.77,1.76-1.83,1.77-1.7,0-3.4,0-5.1,0-1.06,0-1.84-.77-1.84-1.77,0-1,.78-1.73,1.86-1.74.86,0,1.72,0,2.58,0Z"/>
      <path class="cls-2" d="M326.01,25.65c.21.11.68.24.98.53,1.21,1.14,2.37,2.33,3.53,3.52.7.72.69,1.78.01,2.47-.69.7-1.76.71-2.5-.01-1.17-1.15-2.33-2.32-3.49-3.49-.54-.55-.67-1.21-.37-1.92.29-.69.85-1.03,1.83-1.09Z"/>
      <path class="cls-2" d="M343.5,32.71c-.89-.05-1.42-.36-1.73-.99-.32-.65-.3-1.33.19-1.85,1.23-1.3,2.5-2.57,3.79-3.81.65-.62,1.7-.51,2.33.13.62.63.73,1.66.12,2.3-1.24,1.32-2.53,2.59-3.84,3.84-.25.24-.68.31-.87.38Z"/>
      <path class="cls-2" d="M331.07,45.24c-.13.23-.28.7-.58,1.03-1.12,1.18-2.28,2.32-3.44,3.46-.74.73-1.81.72-2.5.02-.69-.7-.69-1.76.04-2.51,1.15-1.18,2.31-2.34,3.49-3.49.55-.54,1.22-.66,1.92-.35.68.3,1.01.86,1.07,1.84Z"/>
    </g>
  </g>
</svg>