<?xml version="1.0" encoding="UTF-8"?>
<svg xmlns="http://www.w3.org/2000/svg" version="1.1" viewBox="0 0 500 142.5">
  <defs>
    <style>
      .cls-1 {
        fill: #fff;
      }
    </style>
  </defs>
  <!-- Generator: Adobe Illustrator 28.7.1, SVG Export Plug-In . SVG Version: 1.2.0 Build 142)  -->
  <g>
    <g id="Capa_1">
      <g>
        <g>
          <path class="cls-1" d="M35.3,30.9v.6c0,2.3-.7,4.4-2.2,6.5-1.5,2-4,3.6-7.7,4.7-.1,0-.3,0-.6.2-1,.3-2,.7-3.1,1-1.1.4-2.1.7-3.1,1-1.1.4-2.2.8-3.2,1.1-.8.2-1.5.5-2.2,1-.6.4-1.1.9-1.6,1.5-.5.6-.7,1.4-.7,2.3h0v23H2.9V15.6c0-.7.1-1.7.4-3,.3-1.3.9-2.6,2-3.8,1.1-1.3,2.7-2.4,4.9-3.3,2.2-.9,5.1-1.4,8.9-1.4s6.8.5,8.9,1.4c2.2.9,3.8,2,4.8,3.3,1.1,1.3,1.7,2.6,2,3.8.3,1.3.4,2.3.4,3v15.3ZM13.1,38.8c.9-.3,1.8-.6,2.7-1,1-.3,1.9-.6,2.9-1,1-.3,1.8-.6,2.6-.9.4-.1.8-.3,1.1-.4.4-.1.7-.3,1-.4,1.6-.6,2.7-1.4,3.1-2.4.4-1,.7-1.9.7-2.8v-13c0-.6,0-1.2-.3-1.9-.2-.7-.6-1.3-1.2-1.9-.6-.6-1.4-1.1-2.5-1.5-1.1-.4-2.5-.6-4.4-.6s-3.1.2-4.1.6c-1,.4-1.9.9-2.4,1.6-.6.6-.9,1.3-1.1,1.9-.2.7-.2,1.3-.2,1.9v22.3c.6-.2,1.3-.4,2.1-.8Z"/>
          <path class="cls-1" d="M61,23.4c3.8,0,6.8.5,8.9,1.4,2.2.9,3.8,2,4.8,3.3,1.1,1.3,1.7,2.6,2,3.9.3,1.3.4,2.3.4,3v2.4h0v2.2c0,1.1-.2,2.3-.6,3.6-.4,1.3-1.4,2.8-2.9,4.3-.7.8-1.5,1.3-2.4,1.7-.9.4-1.7.7-2.4.9-.8.3-1.7.4-2.6.4h-7.2c-1.6,0-3.1.6-4.4,1.8-1.3,1.2-1.9,2.7-1.9,4.5v4.3c0,1.5.3,2.7.9,3.6.3.4.5.8.9,1.1.3.3.8.6,1.4.9.5.3,1.2.5,1.9.7.8.2,1.8.3,3.1.3s2.9-.2,3.9-.5c1-.3,1.6-.6,2-.9.8-.6,1.4-1.4,1.7-2.3.3-.9.5-1.8.5-2.9h8.1v2.3c0,1.7-.4,3.3-1.1,4.8-.7,1.5-1.9,2.7-3.4,3.8-1.1.8-2.6,1.4-4.5,2-1.9.6-4.3.9-7.2.9s-4-.2-5.6-.5c-1.6-.4-3-.8-4.1-1.3-1.2-.5-2.1-1.2-2.9-1.9-.8-.7-1.4-1.4-1.9-2.1-1.1-1.6-1.7-3.5-1.6-5.7v-25.7h0v-2.5c0-.8.1-1.8.4-3,.3-1.3.9-2.5,2-3.8,1.1-1.3,2.7-2.4,4.8-3.3,2.2-.9,5.1-1.4,8.9-1.4ZM69,37.2v-.9c0-.6,0-1.2-.2-1.9-.2-.7-.5-1.3-1.1-1.9-.6-.6-1.4-1.1-2.4-1.5-1-.4-2.4-.6-4.1-.6s-3.2.2-4.3.6c-1.1.4-2,.9-2.6,1.5-.6.6-1,1.2-1.2,1.9-.2.7-.3,1.3-.3,1.8v1h0v8.8c.1-.6.4-1,.9-1.4.4-.3,1-.6,1.5-.8.6-.2,1.1-.3,1.7-.4.6,0,1,0,1.3,0h5.4c1.5,0,2.7-.5,3.8-1.6,1.1-1,1.6-2.3,1.6-3.8v-.8h0Z"/>
          <path class="cls-1" d="M109.2,37.1v-1c0-.6-.1-1.3-.4-1.9-.3-.7-.7-1.3-1.3-1.9-.6-.6-1.5-1-2.5-1.4-1-.3-2.4-.5-3.9-.5-3.2,0-5.3.7-6.4,1.9-1.1,1.3-1.7,2.9-1.7,4.7v23.1c0,2.4.6,4.2,1.7,5.4,1.1,1.2,3.3,1.8,6.4,1.8s5.3-.6,6.5-1.9c1.1-1.2,1.7-3,1.7-5.3h8v2.8c0,1.1-.2,2.4-.6,3.8-.4,1.4-1.2,2.6-2.4,3.8-1.2,1.1-2.9,2.1-4.9,2.9-2.1.8-4.8,1.1-8.2,1.1s-6.1-.4-8.2-1.1c-2.1-.8-3.7-1.7-4.9-2.9-1.2-1.1-2-2.4-2.4-3.8-.4-1.4-.6-2.6-.6-3.8v-28.1c0-1.6.3-3.1.9-4.5.6-1.4,1.6-2.6,2.9-3.7,1.3-1,3-1.9,5-2.5,2-.6,4.5-.9,7.3-.9,5.6,0,9.7,1.1,12.3,3.3,2.6,2.2,3.9,4.9,3.9,8.2v2.3h-8Z"/>
          <path class="cls-1" d="M158.9,61.2v1.7c0,.8-.1,1.8-.4,3-.3,1.3-.9,2.5-2,3.8-1.1,1.3-2.7,2.4-4.8,3.3-2.2.9-5.1,1.4-8.9,1.4s-6.8-.5-8.9-1.4c-2.2-.9-3.8-2-4.9-3.3-1.1-1.3-1.7-2.6-2-3.9-.3-1.3-.4-2.3-.4-3V24h8v36.4h0v1c0,.5,0,1.1.2,1.8.2.7.5,1.4,1,2,.5.6,1.3,1.1,2.4,1.5,1,.4,2.5.6,4.2.6s3.3-.2,4.4-.6c1.1-.4,1.9-.9,2.5-1.5.6-.6,1-1.2,1.1-1.9.2-.7.3-1.3.3-1.9v-1h0V24h8v37.2Z"/>
          <path class="cls-1" d="M184.5,23.4c5.6,0,9.7,1.1,12.3,3.3,2.6,2.2,3.9,4.9,3.9,8.2v28.1c0,1.1-.2,2.4-.6,3.8-.4,1.4-1.2,2.6-2.4,3.8-1.2,1.1-2.9,2.1-4.9,2.9-2.1.8-4.8,1.1-8.2,1.1s-6.1-.4-8.2-1.1c-2.1-.8-3.7-1.7-4.9-2.9-1.2-1.1-2-2.4-2.4-3.8-.4-1.4-.6-2.6-.6-3.8v-4.5c0-2.4.6-4.6,1.9-6.6,1.2-2,3-3.4,5.3-4.2,1.1-.4,2.4-.8,3.9-1.3,1.5-.5,2.9-1,4.2-1.5,1.4-.5,2.6-.9,3.6-1.3,1-.4,1.6-.6,1.9-.7.3-.1.6-.3,1-.5.4-.2.8-.6,1.2-1,.4-.4.7-1,1-1.5.3-.6.4-1.2.4-2v-1.8c0-.6-.1-1.3-.4-1.9-.3-.7-.7-1.3-1.3-1.9-.6-.6-1.5-1-2.5-1.4-1-.3-2.4-.5-3.9-.5-3.2,0-5.3.7-6.4,1.9-1.1,1.3-1.7,2.9-1.7,4.7h-8.1v-2.3c0-1.6.3-3.1.9-4.5.6-1.4,1.6-2.6,2.9-3.7,1.3-1,3-1.9,5-2.5,2-.6,4.5-.9,7.3-.9ZM192.7,48.6c-.1.6-.4,1.1-1,1.4-.5.3-1,.5-1.4.7-1,.3-2,.7-3.1,1.1-1.1.4-2.1.8-3.1,1.1-1.1.4-2.2.8-3.2,1.1-.8.3-1.5.8-2.2,1.3-.6.5-1.1,1.2-1.6,2-.5.8-.7,1.8-.7,3,0,2.4.6,4.2,1.7,5.4,1.1,1.2,3.3,1.8,6.4,1.8s5.3-.6,6.5-1.9c1.1-1.2,1.7-3,1.7-5.3v-11.7Z"/>
          <path class="cls-1" d="M226.2,23.5c1.1,0,2,0,2.8,0,.8,0,1.6,0,2.5.1l-1.8,6.9c-.8,0-1.4,0-1.9,0-.5,0-1.1,0-1.8,0-1.7,0-3.1.2-4.1.7-1,.4-1.9,1-2.4,1.6-.6.6-.9,1.2-1.1,1.9-.2.7-.2,1.3-.2,1.9v37.2h-8.1v-38.8c0-.7.1-1.7.4-3,.3-1.3.9-2.6,2-3.9,1.1-1.3,2.7-2.4,4.9-3.3,2.2-.9,5.1-1.4,8.9-1.4Z"/>
          <path class="cls-1" d="M246.5,4.9v9.6h-8V4.9h8ZM238.5,24.1h8v49.6h-8V24.1Z"/>
          <path class="cls-1" d="M288.2,61.5v1.5c0,.8-.1,1.8-.4,3-.3,1.3-.9,2.5-2,3.8-1.1,1.3-2.7,2.4-4.9,3.3-2.2.9-5.1,1.4-8.9,1.4s-6.8-.5-8.9-1.4c-2.2-.9-3.8-2-4.9-3.3-1.1-1.3-1.7-2.6-2-3.9-.3-1.3-.4-2.3-.4-3v-28.1c0-.7.1-1.7.4-3,.3-1.3.9-2.6,2-3.9,1.1-1.3,2.7-2.4,4.9-3.3,2.2-.9,5.1-1.4,8.9-1.4s6.8.5,8.9,1.4c2.2.9,3.8,2,4.9,3.3,1.1,1.3,1.7,2.5,2,3.8.3,1.3.4,2.3.4,3v26.6ZM280.1,60.5v-24.2c0-.6,0-1.2-.3-1.9-.2-.7-.6-1.3-1.2-1.9-.6-.6-1.4-1.1-2.5-1.5-1.1-.4-2.5-.6-4.4-.6s-3.1.2-4.1.6c-1,.4-1.9.9-2.4,1.5-.6.6-.9,1.3-1.1,2-.2.7-.2,1.3-.2,1.8v25.1c0,.5,0,1.1.2,1.8.2.7.5,1.3,1.1,2,.6.6,1.4,1.1,2.4,1.5s2.4.6,4.1.6,3.3-.2,4.4-.6c1.1-.4,1.9-.9,2.5-1.5.6-.6,1-1.2,1.2-1.9.2-.7.3-1.3.3-1.9v-1Z"/>
          <path class="cls-1" d="M320.2,32.4c-1.1-1.3-3.2-1.9-6.4-1.9s-2.9.2-3.9.5c-1,.3-1.9.8-2.5,1.4-.6.6-1.1,1.2-1.3,1.9-.3.7-.4,1.3-.4,1.9v1.8c0,.8.1,1.4.4,2,.3.6.6,1.1,1,1.5.4.4.8.8,1.2,1,.4.2.7.4,1,.5.3,0,.9.3,1.9.7,1,.4,2.2.8,3.6,1.3,1.4.5,2.8,1,4.2,1.5,1.5.5,2.8,1,3.9,1.3,2.3.8,4,2.2,5.3,4.2,1.2,2,1.9,4.2,1.9,6.6v4.5c0,1.1-.2,2.4-.6,3.8-.4,1.4-1.2,2.6-2.4,3.8-1.2,1.1-2.9,2.1-4.9,2.9-2.1.8-4.8,1.1-8.2,1.1s-6.1-.4-8.2-1.1c-2.1-.8-3.7-1.7-4.9-2.9-1.2-1.1-2-2.4-2.4-3.8-.4-1.4-.6-2.6-.6-3.8v-2.8h8c0,2.3.6,4,1.7,5.3,1.1,1.2,3.3,1.9,6.5,1.9s5.2-.6,6.4-1.8c1.1-1.2,1.7-3,1.7-5.4s-.2-2.2-.7-3c-.4-.8-1-1.4-1.5-2-.7-.6-1.5-1-2.3-1.3-1.9-.7-3.7-1.3-5.3-1.9-1.5-.5-2.9-1-4.2-1.5-1.4-.5-2.4-.8-3-1-.6-.3-1.4-.6-2.2-1.1-.8-.5-1.6-1.2-2.4-2-.8-.8-1.4-1.8-1.9-3-.5-1.2-.8-2.5-.8-4v-4.6c0-3.3,1.3-6,3.9-8.2,2.6-2.2,6.7-3.3,12.3-3.3s5.3.3,7.3.9c2,.6,3.7,1.4,5,2.5,1.3,1,2.3,2.3,2.9,3.7.6,1.4.9,2.9.9,4.5v2.3h-8.1c0-1.8-.6-3.4-1.7-4.7Z"/>
          <path class="cls-1" d="M339.4,65.4h8.2v8.4h-8.2v-8.4Z"/>
          <path class="cls-1" d="M381.3,37.1v-1c0-.6-.1-1.3-.4-1.9-.3-.7-.7-1.3-1.3-1.9-.6-.6-1.5-1-2.5-1.4-1-.3-2.4-.5-3.9-.5-3.2,0-5.3.7-6.4,1.9-1.1,1.3-1.7,2.9-1.7,4.7v23.1c0,2.4.6,4.2,1.7,5.4,1.1,1.2,3.3,1.8,6.4,1.8s5.3-.6,6.5-1.9c1.1-1.2,1.7-3,1.7-5.3h8v2.8c0,1.1-.2,2.4-.6,3.8-.4,1.4-1.2,2.6-2.4,3.8-1.2,1.1-2.9,2.1-4.9,2.9-2.1.8-4.8,1.1-8.2,1.1s-6.1-.4-8.2-1.1c-2.1-.8-3.7-1.7-4.9-2.9-1.2-1.1-2-2.4-2.4-3.8-.4-1.4-.6-2.6-.6-3.8v-28.1c0-1.6.3-3.1.9-4.5.6-1.4,1.6-2.6,2.9-3.7,1.3-1,3-1.9,5-2.5,2-.6,4.5-.9,7.3-.9,5.6,0,9.7,1.1,12.3,3.3,2.6,2.2,3.9,4.9,3.9,8.2v2.3h-8Z"/>
          <path class="cls-1" d="M431.1,61.5v1.5c0,.8-.1,1.8-.4,3-.3,1.3-.9,2.5-2,3.8-1.1,1.3-2.7,2.4-4.9,3.3-2.2.9-5.1,1.4-8.9,1.4s-6.8-.5-8.9-1.4c-2.2-.9-3.8-2-4.9-3.3-1.1-1.3-1.7-2.6-2-3.9-.3-1.3-.4-2.3-.4-3v-28.1c0-.7.1-1.7.4-3,.3-1.3.9-2.6,2-3.9,1.1-1.3,2.7-2.4,4.9-3.3,2.2-.9,5.1-1.4,8.9-1.4s6.8.5,8.9,1.4c2.2.9,3.8,2,4.9,3.3,1.1,1.3,1.7,2.5,2,3.8.3,1.3.4,2.3.4,3v26.6ZM423,60.5v-24.2c0-.6,0-1.2-.3-1.9-.2-.7-.6-1.3-1.2-1.9-.6-.6-1.4-1.1-2.5-1.5-1.1-.4-2.5-.6-4.4-.6s-3.1.2-4.1.6c-1,.4-1.9.9-2.4,1.5-.6.6-.9,1.3-1.1,2-.2.7-.2,1.3-.2,1.8v25.1c0,.5,0,1.1.2,1.8.2.7.5,1.3,1.1,2,.6.6,1.4,1.1,2.4,1.5,1,.4,2.4.6,4.1.6s3.3-.2,4.4-.6c1.1-.4,1.9-.9,2.5-1.5.6-.6,1-1.2,1.2-1.9.2-.7.3-1.3.3-1.9v-1Z"/>
          <path class="cls-1" d="M497.1,73.8h-8.1v-37.4c0-.6,0-1.2-.2-1.9-.2-.7-.5-1.3-1-1.9-.5-.6-1.3-1.1-2.4-1.5-1-.4-2.5-.6-4.2-.6s-3.2.2-4.3.6c-1.1.4-2,.9-2.6,1.5-.6.6-1,1.2-1.2,1.9-.2.7-.3,1.3-.3,1.8v37.6h-8.1v-37.4c0-.6,0-1.2-.2-1.9-.2-.7-.5-1.3-1-1.9-.5-.6-1.3-1.1-2.4-1.5-1-.4-2.5-.6-4.2-.6s-3.2.2-4.3.6c-1.1.4-2,.9-2.6,1.5-.6.6-1,1.2-1.2,1.9-.2.7-.3,1.3-.3,1.8v37.6h-8v-38.9c0-.8.1-1.8.4-3,.3-1.3.9-2.5,2-3.8,1.1-1.3,2.7-2.4,4.9-3.3,2.2-.9,5.1-1.4,8.9-1.4s5.5.3,7.5.9c1.9.6,3.5,1.3,4.7,2.2,1.2-.9,2.8-1.6,4.7-2.2,1.9-.6,4.4-.9,7.5-.9s6.8.5,8.9,1.4c2.2.9,3.8,2,4.9,3.3,1.1,1.3,1.7,2.6,2,3.9.3,1.3.4,2.3.4,3v38.9Z"/>
        </g>
        <g>
          <path class="cls-1" d="M154.9,95.6h15.3c.9,0,1.7.2,2.4.6.7.4,1.2.9,1.7,1.5.5.6.8,1.3,1,2.1.2.8.3,1.6.3,2.5s-.2,1.9-.5,2.9c-.3.9-.7,1.8-1.3,2.6-.5.8-1.2,1.5-1.9,2.2-.8.7-1.6,1.2-2.5,1.6,1.4.5,2.4,1.3,3.1,2.5.7,1.2,1.1,2.6,1.1,4.1s-.3,2.9-.9,4.2c-.6,1.2-1.4,2.3-2.5,3.2-1,.9-2.2,1.6-3.5,2.1-1.3.5-2.7.7-4.1.7h-14.5l6.8-32.6ZM163.3,124.6c.8,0,1.6-.2,2.3-.6.8-.4,1.4-.9,2-1.5.6-.6,1.1-1.3,1.4-2.1.3-.8.5-1.6.5-2.5s-.3-2.3-1-3.2c-.6-.9-1.5-1.3-2.6-1.3h-10.8l-2.3,11.2h10.4ZM165.5,110.1c.8,0,1.5-.2,2.2-.5.7-.4,1.3-.8,1.9-1.4.5-.6,1-1.3,1.3-2.1.3-.8.5-1.6.5-2.5s-.3-2.2-.9-3.1c-.6-.8-1.4-1.2-2.5-1.2h-9.8l-2.3,10.9h9.5Z"/>
          <path class="cls-1" d="M181.7,104.2h4l-5,24h-4l5-24ZM183.7,94.7h4l-1,5.1h-4l1-5.1Z"/>
          <path class="cls-1" d="M198.6,128.7c-1.9,0-3.4-.5-4.6-1.4-1.2-.9-2.1-2.1-2.6-3.6l-1,4.5h-3.5l7-33.6h4l-3,14.3c1.3-1.6,2.7-2.8,4.3-3.8,1.6-.9,3.2-1.4,5-1.4s2.4.3,3.4.8c1,.5,1.8,1.3,2.5,2.2.7.9,1.2,1.9,1.5,3.1.3,1.2.5,2.4.5,3.7,0,2-.4,3.9-1.2,5.8-.8,1.8-1.8,3.4-3,4.8-1.3,1.4-2.7,2.5-4.3,3.3-1.6.8-3.3,1.2-5,1.2ZM198.4,125.2c1.2,0,2.3-.3,3.5-.9,1.1-.6,2.1-1.4,3-2.4.9-1,1.6-2.2,2.1-3.5.5-1.3.8-2.6.8-4s-.1-1.8-.4-2.6c-.2-.8-.6-1.6-1.1-2.3-.5-.7-1.1-1.2-1.7-1.6-.7-.4-1.5-.6-2.4-.6s-1.6.2-2.3.5c-.8.3-1.5.7-2.2,1.2-.7.5-1.4,1.1-2,1.8-.6.7-1.2,1.4-1.7,2.2l-1.4,6.9c0,.7.2,1.4.5,2.1.3.6.7,1.2,1.2,1.7.5.5,1.1.9,1.9,1.1.7.3,1.5.4,2.2.4Z"/>
          <path class="cls-1" d="M218.8,128.5c-1.3,0-2.2-.3-2.9-.9-.7-.6-1-1.5-1-2.6s0-.5,0-.7c0-.2,0-.5.1-.7l6-28.8h3.9l-5.7,27.4c0,.2,0,.3,0,.4,0,.1,0,.3,0,.4,0,1.3.7,2,2,2s.7,0,1.2-.2c.5-.1.9-.2,1.3-.4v3.3c-.8.3-1.6.5-2.5.7-.9.2-1.7.3-2.4.3Z"/>
          <path class="cls-1" d="M231.7,104.2h4l-5,24h-4l5-24ZM233.7,94.7h4l-1,5.1h-4l1-5.1Z"/>
          <path class="cls-1" d="M246.7,128.7c-1.4,0-2.7-.3-3.9-.8-1.1-.5-2.1-1.3-2.9-2.2-.8-.9-1.4-2-1.7-3.2-.4-1.2-.6-2.5-.6-3.9s.4-3.8,1.1-5.6c.8-1.8,1.8-3.4,3.1-4.7s2.8-2.5,4.5-3.3c1.7-.8,3.6-1.2,5.5-1.2s2.7.3,3.9.8c1.1.5,2.1,1.3,2.9,2.2.8.9,1.4,2,1.8,3.2.4,1.2.6,2.5.6,3.9s-.4,3.7-1.1,5.5c-.8,1.8-1.8,3.4-3.1,4.7-1.3,1.4-2.8,2.5-4.6,3.3-1.7.8-3.6,1.2-5.5,1.2ZM247.5,125.2c1.2,0,2.3-.3,3.4-.9,1.1-.6,2.1-1.4,3-2.3.9-1,1.6-2.1,2.1-3.4.5-1.3.8-2.7.8-4.2s-.1-1.9-.4-2.8c-.3-.9-.7-1.6-1.2-2.2-.5-.6-1.1-1.1-1.8-1.5-.7-.4-1.5-.6-2.3-.6s-2.3.3-3.4.9c-1.1.6-2.1,1.4-3,2.4-.9,1-1.6,2.2-2.1,3.5-.5,1.3-.8,2.7-.8,4.1s.1,1.9.4,2.8c.3.9.7,1.6,1.2,2.2.5.6,1.1,1.1,1.8,1.5.7.4,1.5.5,2.4.5Z"/>
          <path class="cls-1" d="M268.8,128.5c-1.2,0-2.3-.3-3.1-.9-.8-.6-1.2-1.5-1.2-2.8s0-.9.1-1.3l3.4-16.1h-3.1l.7-3.2h3l1.7-8h4l-1.7,8h5l-.7,3.2h-5l-3.1,14.9c0,.3,0,.5,0,.7,0,.6.2,1.1.6,1.4.4.3.9.4,1.4.4s1.5-.1,2.1-.4c.7-.3,1.1-.5,1.4-.6l.2,3.2c-.5.4-1.4.8-2.4,1.1-1.1.3-2.2.5-3.4.5Z"/>
          <path class="cls-1" d="M287.7,128.7c-1.5,0-2.8-.3-3.9-.8-1.1-.5-2.1-1.2-2.9-2.2-.8-.9-1.4-2-1.8-3.2-.4-1.2-.6-2.5-.6-4s.4-3.8,1.1-5.6c.7-1.8,1.7-3.3,3-4.7,1.3-1.4,2.8-2.5,4.6-3.3,1.7-.8,3.6-1.2,5.7-1.2s4.2.5,5.6,1.6c1.4,1.1,2.1,2.7,2.1,4.9s-1,4.3-3.1,5.5c-2.1,1.2-5.3,1.9-9.8,1.9s-1.5,0-2.4,0c-.9,0-1.8,0-2.8-.2,0,.2,0,.4,0,.6v.5c0,1,.1,1.9.4,2.7.2.9.6,1.6,1.1,2.3.5.7,1.1,1.2,1.8,1.6.7.4,1.6.6,2.6.6s2.7-.4,4.1-1.1c1.3-.7,2.4-1.7,3.1-2.9l3.2,1c-.5.9-1.2,1.7-2,2.4-.8.7-1.7,1.4-2.7,1.9-1,.5-2,1-3.1,1.3-1.1.3-2.2.5-3.3.5ZM292.4,106.8c-1.3,0-2.5.2-3.5.7-1,.4-1.9,1-2.7,1.8-.8.7-1.4,1.6-1.9,2.5-.5.9-.9,1.9-1.2,2.9.9,0,1.8.2,2.6.2.8,0,1.5,0,2.2,0,1.7,0,3.2-.1,4.3-.3,1.2-.2,2.1-.6,2.8-1,.7-.4,1.2-.9,1.6-1.5.3-.6.5-1.2.5-1.9,0-1.2-.4-2-1.2-2.6-.8-.6-1.9-.8-3.3-.8Z"/>
          <path class="cls-1" d="M311.9,128.7c-1.4,0-2.7-.3-3.9-.8-1.1-.5-2.1-1.3-2.9-2.2-.8-.9-1.4-2-1.8-3.2-.4-1.2-.6-2.5-.6-3.9s.4-3.8,1.1-5.6c.8-1.8,1.8-3.3,3.1-4.7,1.3-1.4,2.8-2.5,4.5-3.3,1.7-.8,3.6-1.2,5.6-1.2s4.1.5,5.5,1.6,2.3,2.5,2.8,4.3l-4.1,1.2c-.3-1.1-.9-2-1.8-2.6-.9-.6-1.9-.9-3.2-.9s-2.4.3-3.5.9c-1.1.6-2.1,1.3-3,2.3-.9,1-1.6,2.1-2.1,3.4-.5,1.3-.8,2.7-.8,4.2s.1,2,.4,2.8c.3.9.7,1.6,1.2,2.3.5.6,1.1,1.1,1.8,1.5.7.4,1.5.6,2.3.6s1.3,0,2-.3c.7-.2,1.3-.5,1.9-.8.6-.3,1.1-.7,1.6-1.2.5-.4.9-.9,1.1-1.4l3.7,1.2c-.5.9-1.2,1.7-1.9,2.4-.8.7-1.6,1.4-2.6,1.9-1,.5-2,.9-3.1,1.2s-2.2.5-3.3.5Z"/>
          <path class="cls-1" d="M335.2,128.7c-1.3,0-2.5-.3-3.6-.8-1-.5-1.9-1.3-2.6-2.2-.7-.9-1.3-2-1.7-3.2-.4-1.2-.6-2.5-.6-3.8,0-1.9.4-3.8,1.1-5.6.7-1.8,1.7-3.4,2.9-4.8,1.2-1.4,2.6-2.5,4.2-3.3,1.6-.8,3.2-1.2,5-1.2s3.3.5,4.5,1.5c1.2,1,2,2.2,2.6,3.7l1-4.8h4l-4,19c0,.1,0,.2,0,.3,0,0,0,.2,0,.3,0,.6.3.8,1,.9l-.7,3.5c-.3,0-.6.1-.9.1-.3,0-.5,0-.7,0-.8,0-1.5-.2-1.9-.6-.4-.4-.7-.9-.7-1.5s.1-1.4.4-2.6c-1.2,1.6-2.6,2.8-4.3,3.7-1.7.9-3.3,1.3-4.9,1.3ZM336.9,125.2c.7,0,1.4-.1,2.1-.4.8-.3,1.5-.7,2.3-1.1.7-.5,1.4-1.1,2-1.7.6-.7,1.1-1.4,1.4-2.1l1.4-6.9c0-.8-.3-1.5-.7-2.2-.4-.7-.8-1.3-1.3-1.8-.5-.5-1.1-.9-1.8-1.2-.6-.3-1.3-.4-2-.4-1.3,0-2.5.3-3.6.9-1.1.6-2.1,1.5-3,2.5-.9,1-1.5,2.2-2,3.5-.5,1.3-.7,2.6-.7,3.9s.1,1.9.4,2.8c.3.9.7,1.6,1.2,2.3.5.6,1.2,1.1,1.9,1.5.7.4,1.5.6,2.4.6Z"/>
          <path class="cls-1" d="M372.1,95.6h10.6c2,0,3.8.3,5.3,1,1.5.6,2.7,1.5,3.7,2.7,1,1.1,1.7,2.5,2.2,4,.5,1.5.7,3.2.7,4.9,0,2.9-.5,5.5-1.4,8-.9,2.5-2.2,4.6-3.9,6.4-1.7,1.8-3.7,3.2-5.9,4.2s-4.8,1.5-7.4,1.5h-10.6l6.8-32.6ZM376.7,124.5c2.1,0,4-.4,5.7-1.3,1.7-.9,3.1-2,4.3-3.5,1.2-1.5,2.1-3.1,2.7-5,.6-1.9,1-3.9,1-6s-.2-2.7-.5-3.8c-.4-1.2-.9-2.2-1.6-3-.7-.8-1.6-1.5-2.6-2-1.1-.5-2.3-.7-3.7-.7h-6.6l-5.3,25.3h6.6Z"/>
          <path class="cls-1" d="M400.9,104.2h4l-5,24h-4l5-24ZM402.9,94.7h4l-1,5.1h-4l1-5.1Z"/>
          <path class="cls-1" d="M413.3,138.5c-2.5,0-4.5-.5-5.9-1.4-1.4-1-2.5-2.2-3.2-3.9l2.7-2.1c.6,1.4,1.5,2.5,2.8,3.2,1.2.7,2.7,1.1,4.3,1.1s2-.2,3-.5c1-.3,1.9-.8,2.7-1.4.8-.6,1.5-1.4,2.1-2.3.6-.9,1-2,1.3-3.3l.9-4.2c-1.1,1.5-2.5,2.6-4.1,3.5-1.6.9-3.2,1.3-4.8,1.3s-2.4-.3-3.4-.8c-1-.5-1.9-1.2-2.6-2.1-.7-.9-1.2-1.9-1.6-3.1-.4-1.2-.5-2.4-.5-3.7,0-1.9.4-3.8,1.1-5.6s1.7-3.4,2.9-4.8c1.2-1.4,2.6-2.5,4.3-3.3,1.6-.8,3.3-1.2,5.1-1.2s3.4.5,4.5,1.5c1.2,1,2.1,2.2,2.7,3.7l1-4.8h3.5l-5,23.7c-.4,1.7-1,3.2-1.8,4.5-.9,1.3-1.9,2.4-3.1,3.3-1.2.9-2.6,1.6-4.1,2-1.5.5-3.1.7-4.7.7ZM417,125.2c.8,0,1.6-.2,2.4-.5.8-.3,1.6-.7,2.3-1.2.7-.5,1.3-1.1,1.9-1.7.6-.6,1-1.3,1.3-2l1.4-6.9c-.1-.8-.4-1.6-.7-2.3-.4-.7-.8-1.3-1.3-1.8-.5-.5-1.1-.9-1.8-1.2-.7-.3-1.4-.4-2.1-.4-1.3,0-2.5.3-3.6,1-1.1.7-2.1,1.5-3,2.5-.8,1-1.5,2.2-2,3.5-.5,1.3-.7,2.5-.7,3.8s.1,1.9.4,2.8c.3.9.7,1.6,1.2,2.3.5.6,1.1,1.2,1.9,1.5.7.4,1.5.6,2.4.6Z"/>
          <path class="cls-1" d="M438.3,104.2h4l-5,24h-4l5-24ZM440.3,94.7h4l-1,5.1h-4l1-5.1Z"/>
          <path class="cls-1" d="M449.7,128.5c-1.2,0-2.3-.3-3.1-.9-.8-.6-1.2-1.5-1.2-2.8s0-.9.1-1.3l3.4-16.1h-3.1l.7-3.2h3l1.7-8h4l-1.7,8h5l-.7,3.2h-5l-3.1,14.9c0,.3,0,.5,0,.7,0,.6.2,1.1.6,1.4.4.3.9.4,1.4.4s1.5-.1,2.1-.4c.7-.3,1.1-.5,1.4-.6l.2,3.2c-.5.4-1.4.8-2.4,1.1-1.1.3-2.2.5-3.4.5Z"/>
          <path class="cls-1" d="M467.7,128.7c-1.3,0-2.5-.3-3.6-.8-1-.5-1.9-1.3-2.6-2.2-.7-.9-1.3-2-1.7-3.2-.4-1.2-.6-2.5-.6-3.8,0-1.9.4-3.8,1.1-5.6s1.7-3.4,2.9-4.8c1.2-1.4,2.6-2.5,4.2-3.3,1.6-.8,3.2-1.2,5-1.2s3.3.5,4.5,1.5c1.2,1,2,2.2,2.6,3.7l1-4.8h4l-4,19c0,.1,0,.2,0,.3,0,0,0,.2,0,.3,0,.6.3.8,1,.9l-.7,3.5c-.3,0-.6.1-.9.1-.3,0-.5,0-.7,0-.8,0-1.5-.2-1.9-.6-.4-.4-.7-.9-.7-1.5s.1-1.4.4-2.6c-1.2,1.6-2.6,2.8-4.3,3.7-1.7.9-3.3,1.3-4.9,1.3ZM469.4,125.2c.7,0,1.4-.1,2.1-.4.8-.3,1.5-.7,2.3-1.1.7-.5,1.4-1.1,2-1.7.6-.7,1.1-1.4,1.4-2.1l1.4-6.9c0-.8-.3-1.5-.7-2.2-.4-.7-.8-1.3-1.3-1.8-.5-.5-1.1-.9-1.8-1.2-.6-.3-1.3-.4-2-.4-1.3,0-2.5.3-3.6.9-1.1.6-2.1,1.5-3,2.5-.9,1-1.5,2.2-2,3.5-.5,1.3-.7,2.6-.7,3.9s.1,1.9.4,2.8c.3.9.7,1.6,1.2,2.3.5.6,1.2,1.1,1.9,1.5.7.4,1.5.6,2.4.6Z"/>
          <path class="cls-1" d="M490.8,128.5c-1.3,0-2.2-.3-2.9-.9-.7-.6-1-1.5-1-2.6s0-.5,0-.7c0-.2,0-.5.1-.7l6-28.8h3.9l-5.7,27.4c0,.2,0,.3,0,.4,0,.1,0,.3,0,.4,0,1.3.7,2,2,2s.7,0,1.2-.2c.5-.1.9-.2,1.3-.4v3.3c-.8.3-1.6.5-2.5.7-.9.2-1.7.3-2.4.3Z"/>
        </g>
      </g>
    </g>
  </g>
</svg>