<?xml version="1.0" encoding="UTF-8"?>
<svg xmlns="http://www.w3.org/2000/svg" version="1.1" viewBox="0 0 500 100">
  <defs>
    <style>
      .cls-1 {
        fill: #718c1e;
      }

      .cls-2 {
        fill: #6b6b6b;
      }
    </style>
  </defs>
  <!-- Generator: Adobe Illustrator 28.7.1, SVG Export Plug-In . SVG Version: 1.2.0 Build 142)  -->
  <g>
    <g id="Capa_1">
      <g id="Capa_1-2" data-name="Capa_1">
        <g>
          <path class="cls-1" d="M38.6,64.2V28.3h7.6v35.8h-7.6Z"/>
          <path class="cls-1" d="M76.4,54.2c0,3.2-1.2,5.8-3.5,7.7s-5.6,2.8-9.7,2.8-7.2-.7-10.2-2.2v-7.1c2.4,1.1,4.5,1.8,6.1,2.3,1.7.4,3.2.7,4.6.7s2.9-.3,3.8-1c.9-.6,1.3-1.6,1.3-2.8s-.2-1.3-.6-1.9c-.4-.5-1-1.1-1.7-1.6-.8-.5-2.3-1.3-4.6-2.4-2.2-1-3.8-2-4.9-3-1.1-.9-2-2.1-2.6-3.3s-1-2.7-1-4.4c0-3.2,1.1-5.7,3.2-7.5,2.1-1.8,5.1-2.7,8.9-2.7s3.6.2,5.3.7c1.7.4,3.5,1.1,5.3,1.9l-2.5,5.9c-1.9-.8-3.5-1.3-4.7-1.6-1.3-.3-2.5-.5-3.7-.5s-2.5.3-3.3,1-1.2,1.5-1.2,2.6.2,1.3.5,1.8.8,1,1.5,1.4c.7.5,2.3,1.3,4.8,2.5,3.4,1.6,5.6,3.2,6.9,4.8,1.2,1.6,1.9,3.6,1.9,5.9h0Z"/>
          <path class="cls-1" d="M104,54.2c0,3.2-1.2,5.8-3.5,7.7s-5.6,2.8-9.7,2.8-7.2-.7-10.2-2.2v-7.1c2.4,1.1,4.5,1.8,6.1,2.3,1.7.4,3.2.7,4.6.7s2.9-.3,3.8-1c.9-.6,1.3-1.6,1.3-2.8s-.2-1.3-.6-1.9c-.4-.5-1-1.1-1.7-1.6-.8-.5-2.3-1.3-4.6-2.4-2.2-1-3.8-2-4.9-3-1.1-.9-2-2.1-2.6-3.3s-1-2.7-1-4.4c0-3.2,1.1-5.7,3.2-7.5s5.1-2.7,8.9-2.7,3.6.2,5.3.7c1.7.4,3.5,1.1,5.3,1.9l-2.5,5.9c-1.9-.8-3.5-1.3-4.7-1.6-1.3-.3-2.5-.5-3.7-.5s-2.5.3-3.3,1-1.2,1.5-1.2,2.6.2,1.3.5,1.8.8,1,1.5,1.4c.7.5,2.3,1.3,4.8,2.5,3.4,1.6,5.6,3.2,6.9,4.8,1.2,1.6,1.9,3.6,1.9,5.9h0Z"/>
          <path class="cls-1" d="M142.3,64.2h-9.7l-15.6-27.1h-.2c.3,4.8.5,8.2.5,10.2v16.9h-6.8V28.3h9.6l15.6,26.9h.2c-.2-4.7-.4-8-.4-9.9v-17h6.8v35.8h0Z"/>
          <path class="cls-1" d="M148.4,53.8v-6.1h13.2v6.1h-13.2Z"/>
          <path class="cls-1" d="M179.3,64.7c-4.4,0-7.9-1.2-10.3-3.7-2.5-2.4-3.7-5.9-3.7-10.3s1.1-8.1,3.4-10.7c2.3-2.5,5.5-3.8,9.5-3.8s6.9,1.1,9,3.3c2.2,2.2,3.2,5.3,3.2,9.1v3.6h-17.7c0,2.1.7,3.8,1.9,5s2.8,1.8,5,1.8,3.2-.2,4.7-.5,3-.9,4.6-1.6v5.8c-1.3.7-2.7,1.1-4.2,1.5-1.5.3-3.3.5-5.4.5ZM178.3,41.6c-1.6,0-2.8.5-3.7,1.5s-1.4,2.4-1.5,4.3h10.5c0-1.8-.5-3.3-1.4-4.3s-2.2-1.5-3.8-1.5h-.1Z"/>
          <path class="cls-1" d="M195.6,40.4c0-1.4.4-2.4,1.1-3.1.7-.7,1.8-1.1,3.2-1.1s2.4.4,3.2,1.1c.7.7,1.1,1.7,1.1,3.1s-.4,2.4-1.1,3.1c-.8.7-1.8,1.1-3.1,1.1s-2.4-.4-3.2-1.1c-.8-.7-1.1-1.7-1.1-3.1h0ZM195.6,60.7c0-1.4.4-2.4,1.1-3.1.7-.7,1.8-1.1,3.2-1.1s2.4.4,3.2,1.1c.7.7,1.1,1.7,1.1,3.1s-.4,2.3-1.1,3.1c-.8.7-1.8,1.1-3.1,1.1s-2.4-.4-3.2-1.1c-.8-.7-1.1-1.8-1.1-3.1h0Z"/>
          <path class="cls-2" d="M246.1,64.2h-23.6v-3.5l9.4-9.5c2.9-2.9,4.8-5,5.7-6.2s1.6-2.5,2.1-3.6c.5-1.2.7-2.4.7-3.8s-.6-3.4-1.7-4.5-2.8-1.7-4.8-1.7-2.9.2-4.2.7-2.8,1.4-4.5,2.7l-2.2-2.8c3.3-2.7,6.9-4.1,10.8-4.1s6,.9,7.9,2.6,2.9,4,2.9,7-.6,4.5-1.9,6.7c-1.3,2.2-3.7,5-7.2,8.4l-7.8,7.7v.2h18.4v3.8h0Z"/>
          <path class="cls-2" d="M274.8,43.6c0,14-5.4,21-16.3,21s-3.4-.2-4.5-.5v-3.5c1.3.4,2.8.6,4.5.6,3.9,0,6.9-1.2,8.9-3.6,2-2.4,3.1-6.2,3.3-11.2h-.3c-.9,1.4-2.1,2.4-3.6,3.1-1.5.7-3.2,1.1-5,1.1-3.2,0-5.7-.9-7.6-2.8s-2.8-4.5-2.8-7.9,1-6.7,3.1-8.8c2.1-2.2,4.8-3.2,8.2-3.2s4.6.6,6.4,1.9,3.2,3.1,4.2,5.5,1.5,5.2,1.5,8.5v-.2ZM262.7,31.3c-2.3,0-4.1.8-5.4,2.3s-1.9,3.6-1.9,6.3.6,4.2,1.8,5.6,3,2,5.4,2,2.9-.3,4.1-.9c1.2-.6,2.2-1.4,3-2.5.7-1,1.1-2.1,1.1-3.3,0-1.7-.3-3.3-1-4.8s-1.6-2.6-2.8-3.4c-1.2-.8-2.6-1.3-4.1-1.3h-.2Z"/>
          <path class="cls-2" d="M303.5,43.6c0,14-5.4,21-16.3,21s-3.4-.2-4.5-.5v-3.5c1.3.4,2.8.6,4.5.6,3.9,0,6.9-1.2,8.9-3.6,2-2.4,3.1-6.2,3.3-11.2h-.3c-.9,1.4-2.1,2.4-3.6,3.1-1.5.7-3.2,1.1-5,1.1-3.2,0-5.7-.9-7.6-2.8s-2.8-4.5-2.8-7.9,1-6.7,3.1-8.8c2.1-2.2,4.8-3.2,8.2-3.2s4.6.6,6.4,1.9,3.2,3.1,4.2,5.5,1.5,5.2,1.5,8.5v-.2ZM291.4,31.3c-2.3,0-4.1.8-5.4,2.3s-1.9,3.6-1.9,6.3.6,4.2,1.8,5.6c1.2,1.3,3,2,5.4,2s2.9-.3,4.1-.9c1.2-.6,2.2-1.4,3-2.5.7-1,1.1-2.1,1.1-3.3,0-1.7-.3-3.3-1-4.8s-1.6-2.6-2.8-3.4c-1.2-.8-2.6-1.3-4.1-1.3h-.2Z"/>
          <path class="cls-2" d="M332.2,64.2h-23.6v-3.5l9.4-9.5c2.9-2.9,4.8-5,5.7-6.2.9-1.2,1.6-2.5,2.1-3.6.5-1.2.7-2.4.7-3.8s-.6-3.4-1.7-4.5c-1.2-1.1-2.8-1.7-4.8-1.7s-2.9.2-4.2.7c-1.3.5-2.8,1.4-4.5,2.7l-2.2-2.8c3.3-2.7,6.9-4.1,10.8-4.1s6,.9,7.9,2.6,2.9,4,2.9,7-.6,4.5-1.9,6.7-3.7,5-7.2,8.4l-7.8,7.7v.2h18.4v3.8h0Z"/>
          <path class="cls-2" d="M337,52.6v-3.7h12v3.7h-12Z"/>
          <path class="cls-2" d="M358,64.2l14.9-32.1h-19.5v-3.8h23.9v3.3l-14.7,32.6h-4.6Z"/>
          <path class="cls-2" d="M405.8,64.2h-23.6v-3.5l9.4-9.5c2.9-2.9,4.8-5,5.7-6.2.9-1.2,1.6-2.5,2.1-3.6.5-1.2.7-2.4.7-3.8s-.6-3.4-1.7-4.5c-1.2-1.1-2.8-1.7-4.8-1.7s-2.9.2-4.2.7c-1.3.5-2.8,1.4-4.5,2.7l-2.2-2.8c3.3-2.7,6.9-4.1,10.8-4.1s6,.9,7.9,2.6,2.9,4,2.9,7-.6,4.5-1.9,6.7-3.7,5-7.2,8.4l-7.8,7.7v.2h18.4v3.8h0Z"/>
          <path class="cls-2" d="M434.5,43.6c0,14-5.4,21-16.3,21s-3.4-.2-4.5-.5v-3.5c1.3.4,2.8.6,4.5.6,3.9,0,6.9-1.2,8.9-3.6,2-2.4,3.1-6.2,3.3-11.2h-.3c-.9,1.4-2.1,2.4-3.6,3.1-1.5.7-3.2,1.1-5,1.1-3.2,0-5.7-.9-7.6-2.8s-2.8-4.5-2.8-7.9,1-6.7,3.1-8.8c2.1-2.2,4.8-3.2,8.2-3.2s4.6.6,6.4,1.9,3.2,3.1,4.2,5.5,1.5,5.2,1.5,8.5v-.2ZM422.4,31.3c-2.3,0-4.1.8-5.4,2.3s-1.9,3.6-1.9,6.3.6,4.2,1.8,5.6c1.2,1.3,3,2,5.4,2s2.9-.3,4.1-.9c1.2-.6,2.2-1.4,3-2.5.7-1,1.1-2.1,1.1-3.3,0-1.7-.3-3.3-1-4.8s-1.6-2.6-2.8-3.4c-1.2-.8-2.6-1.3-4.1-1.3h-.2Z"/>
          <path class="cls-2" d="M461.9,36.7c0,2.3-.6,4.2-1.9,5.6-1.3,1.5-3.1,2.4-5.5,2.9v.2c2.9.4,5,1.3,6.4,2.7s2.1,3.4,2.1,5.8c0,3.4-1.2,6-3.6,7.9-2.4,1.8-5.7,2.8-10.1,2.8s-3.6,0-5.2-.4c-1.6-.3-3.1-.8-4.6-1.5v-3.9c1.6.8,3.2,1.4,5,1.8,1.8.4,3.4.6,5,.6,6.2,0,9.3-2.4,9.3-7.3s-3.4-6.5-10.2-6.5h-3.5v-3.5h3.6c2.8,0,5-.6,6.6-1.9,1.6-1.2,2.5-2.9,2.5-5.1s-.6-3.1-1.8-4.1c-1.2-1-2.8-1.5-4.9-1.5s-3,.2-4.4.6-3,1.2-4.8,2.4l-2.1-2.7c1.5-1.2,3.2-2.1,5.1-2.7,1.9-.7,3.9-1,6.1-1,3.5,0,6.2.8,8.1,2.4s2.9,3.8,2.9,6.6v-.2Z"/>
        </g>
        <path class="cls-2" d="M476.3,4c10.9,0,19.7,8.8,19.7,19.7v52.6c0,10.9-8.8,19.7-19.7,19.7H23.7c-10.9,0-19.7-8.8-19.7-19.7V23.7C4,12.8,12.8,4,23.7,4h452.6M476.3,0H23.7C10.6,0,0,10.6,0,23.7v52.6c0,13.1,10.6,23.7,23.7,23.7h452.6c13.1,0,23.7-10.6,23.7-23.7V23.7c0-13.1-10.6-23.7-23.7-23.7h0Z"/>
      </g>
    </g>
  </g>
</svg>