<svg xmlns="http://www.w3.org/2000/svg" width="126.546" height="37.195" viewBox="0 0 126.546 37.195"><defs><style>.a{fill:#fff;}</style></defs><g transform="translate(-722 -468)"><g transform="translate(722 468)"><g transform="translate(0 0)"><path class="a" d="M420.353,162.847A12.658,12.658,0,1,0,433.012,175.5,12.678,12.678,0,0,0,420.353,162.847Zm3.836,21.07h-1.928V176.8s-3.2.554-3.365.678a1.176,1.176,0,0,0-.369.348.81.81,0,0,0-.165.554V183.9h-1.928V169.9a3.8,3.8,0,0,1,.082-.718,2.211,2.211,0,0,1,.472-.924,2.994,2.994,0,0,1,1.17-.779,5.515,5.515,0,0,1,2.154-.328,5.585,5.585,0,0,1,2.155.328,3.509,3.509,0,0,1,1.17.779,2,2,0,0,1,.472.924,3.8,3.8,0,0,1,.082.718Z" transform="translate(-405.787 -152.876)"/><path class="a" d="M425.365,172.013a1.822,1.822,0,0,0-.061-.452,1,1,0,0,0-.287-.452,1.737,1.737,0,0,0-.615-.348,2.993,2.993,0,0,0-1.046-.144,2.63,2.63,0,0,0-.985.144,1.54,1.54,0,0,0-.574.369,1,1,0,0,0-.267.472,1.821,1.821,0,0,0-.061.451v5.376c.123-.041,2.954-.492,2.975-.513.636-.041.759-.431.759-.431a4.249,4.249,0,0,0,.164-1.333Z" transform="translate(-408.87 -154.616)"/><path class="a" d="M420.57,158.083l.033-.532c.165-.657,1.293-1.252,1.293-1.252A2.195,2.195,0,0,0,423,153.939a10.093,10.093,0,0,1-.124-1.416c.021-.718.287-.861.39-.964a.737.737,0,0,0,.061-.431.868.868,0,0,1,.144.02.294.294,0,0,1,.1.062.663.663,0,0,0-.02-.144c-.021-.1-.144-.144-.144-.144a.3.3,0,0,0,.061-.1c.02-.082,0-.144-.1-.287s-.062-.185-.062-.185l-.081.021a1.3,1.3,0,0,1-.041-.185c0-.061-.041.144-.041.144l-.1-.246-.041.164L422.86,150l-.041.2a.325.325,0,0,0-.164-.061c-.062,0-.062.1-.062.2a2.537,2.537,0,0,0-1.375,1.437c-.02.041-.041.1-.061.144-.472,1.087-.883,1.21-.883,1.21a2.173,2.173,0,0,1-1.825,0c-1.559-.7-2.113-.266-2.113-.266a1.915,1.915,0,0,0-.595.348.708.708,0,0,0-.247.677c.287-.144.411.041.411.041-.759.021-.164.7-.164.7.04-.123.266-.082.266-.082-.307.533.6.8.6.8-.041-.369.431-.411.862.144,1.6,1.97,2.051,2.011,2.051,2.011l.057.56a14.5,14.5,0,1,0,1,.014Zm-.726-.532a1.037,1.037,0,0,1,.472.1l.041.424c-.184-.007-.368-.014-.554-.014h0Zm-.041,28.106a13.027,13.027,0,1,1,13.028-13.027A13.046,13.046,0,0,1,419.8,185.656Z" transform="translate(-405.237 -150)"/></g><path class="a" d="M466.992,169.38h1.687v-2.023h-1.687Zm16.711,9.742h-.037v.225a1.571,1.571,0,0,1-.075.412.9.9,0,0,1-.224.412,1.4,1.4,0,0,1-.525.3,2.229,2.229,0,0,1-.937.15,2.809,2.809,0,0,1-.9-.15,2.747,2.747,0,0,1-.487-.338.888.888,0,0,1-.225-.412,1.411,1.411,0,0,1-.037-.374v-.188h-.038v-7.718h-1.686v8.243a5.5,5.5,0,0,0,.075.637,1.566,1.566,0,0,0,.412.824,2.331,2.331,0,0,0,1.011.712,5.236,5.236,0,0,0,1.911.3,5.092,5.092,0,0,0,1.911-.3,3.19,3.19,0,0,0,1.012-.712,1.9,1.9,0,0,0,.412-.824,5.631,5.631,0,0,0,.075-.637v-.375h.037V171.4H483.7Zm3.672,2.848h1.686v-14.65h-1.686Zm-31.061-13.638a2.645,2.645,0,0,0-1.012-.674,5.992,5.992,0,0,0-3.746,0,2.645,2.645,0,0,0-1.012.674,1.615,1.615,0,0,0-.412.786c-.037.3-.074.487-.074.637v12.14h1.648v-4.833a.691.691,0,0,1,.15-.487,2.483,2.483,0,0,1,.337-.3c.151-.075,2.923-.562,2.923-.562v6.182H456.8v-12.14a5.641,5.641,0,0,0-.074-.637A1.609,1.609,0,0,0,456.314,168.331Zm-1.349,5.583s-.075.337-.637.374c-.037.038-2.473.412-2.623.45v-4.646a1.413,1.413,0,0,1,.037-.375,1.122,1.122,0,0,1,.225-.412,1.273,1.273,0,0,1,.525-.338,2.674,2.674,0,0,1,.862-.113,2.939,2.939,0,0,1,.9.113,1.38,1.38,0,0,1,.524.3.627.627,0,0,1,.262.374,1.312,1.312,0,0,1,.075.375v2.735A3.074,3.074,0,0,1,454.965,173.914Zm8.617,1.349a7.664,7.664,0,0,1-1.723,5.058,8.079,8.079,0,0,1-1.724-5.058v-3.9h-1.874V175.9a8.979,8.979,0,0,0,2.661,5.995h1.836a8.755,8.755,0,0,0,2.7-5.995v-4.533h-1.874Zm3.41,6.707h1.687V171.441h-1.687Zm8.018-1.8a1.91,1.91,0,0,1-1.386.412,1.76,1.76,0,0,1-1.349-.375,1.406,1.406,0,0,1-.375-1.124v-4.908a1.5,1.5,0,0,1,.338-1.012,1.749,1.749,0,0,1,1.349-.412,2.567,2.567,0,0,1,.824.113,1.747,1.747,0,0,1,.525.3.959.959,0,0,1,.3.412,1.6,1.6,0,0,1,.074.412v.225h1.724v-.487a2.15,2.15,0,0,0-.824-1.761,3.921,3.921,0,0,0-2.623-.712,5.963,5.963,0,0,0-1.537.187,2.957,2.957,0,0,0-1.087.525,2.023,2.023,0,0,0-.6.787,2.607,2.607,0,0,0-.187.937v5.958a3.568,3.568,0,0,0,.15.787,2.068,2.068,0,0,0,.525.786,3.086,3.086,0,0,0,1.049.6,6.736,6.736,0,0,0,3.448,0,3.086,3.086,0,0,0,1.049-.6,1.54,1.54,0,0,0,.525-.786,2.081,2.081,0,0,0,.15-.787v-.6h-1.686A1.515,1.515,0,0,1,475.011,180.171Zm43.126,1.8h1.724v-1.761h-1.724Zm14.688-9.817a2.33,2.33,0,0,0-1.011-.712,5.216,5.216,0,0,0-1.911-.3,6.016,6.016,0,0,0-1.574.188,4.25,4.25,0,0,0-1.011.487,3.193,3.193,0,0,0-1.012-.487,6.016,6.016,0,0,0-1.573-.188,5.073,5.073,0,0,0-1.911.3,3.178,3.178,0,0,0-1.012.712,1.89,1.89,0,0,0-.412.824,5.587,5.587,0,0,0-.075.636v8.281h1.686v-7.98a1.615,1.615,0,0,1,.075-.375.973.973,0,0,1,.261-.412,1.983,1.983,0,0,1,.563-.3,3.359,3.359,0,0,1,.936-.113,2.916,2.916,0,0,1,.9.113,2.753,2.753,0,0,1,.487.337,1.12,1.12,0,0,1,.224.412,1.656,1.656,0,0,1,.038.412v7.944h1.723v-7.981a1.662,1.662,0,0,1,.075-.375.97.97,0,0,1,.262-.412,1.966,1.966,0,0,1,.562-.3,3.359,3.359,0,0,1,.937-.113,2.907,2.907,0,0,1,.9.113,2.77,2.77,0,0,1,.487.337,1.137,1.137,0,0,1,.225.412,1.7,1.7,0,0,1,.037.412v7.944h1.611v-8.356a5.688,5.688,0,0,0-.075-.636A1.566,1.566,0,0,0,532.824,172.153Zm8.992.674v-1.461h-1.873v1.461a1.946,1.946,0,1,1-3.448,0v-1.461h-1.874v1.461a4.974,4.974,0,0,0,2.1,3.822,4.973,4.973,0,0,0-2.1,3.822v1.461H536.5v-1.461a1.946,1.946,0,1,1,3.448,0v1.461h1.873v-1.461a5.084,5.084,0,0,0-2.1-3.822A4.976,4.976,0,0,0,541.817,172.827Zm-47.51,7.494a1.069,1.069,0,0,1-.525-.338,1.119,1.119,0,0,1-.224-.412,1.655,1.655,0,0,1-.038-.412v-6.482h1.724v-1.424H493.52v-2.7H491.8v2.7h-1.274v1.424H491.8V179.5a5.611,5.611,0,0,0,.075.636,1.99,1.99,0,0,0,.449.824,2.736,2.736,0,0,0,1.049.712,5.236,5.236,0,0,0,1.911.3v-1.5h-.113A2.753,2.753,0,0,1,494.307,180.321Zm7.081-1.2h-.037v.225a1.576,1.576,0,0,1-.075.412.9.9,0,0,1-.224.412,1.4,1.4,0,0,1-.525.3,2.228,2.228,0,0,1-.937.15,2.808,2.808,0,0,1-.9-.15,2.746,2.746,0,0,1-.487-.338.888.888,0,0,1-.225-.412,1.411,1.411,0,0,1-.037-.374v-.188H497.9v-7.718h-1.686v8.243a5.482,5.482,0,0,0,.075.637,1.566,1.566,0,0,0,.412.824,2.33,2.33,0,0,0,1.011.712,5.234,5.234,0,0,0,1.911.3,5.092,5.092,0,0,0,1.911-.3,3.2,3.2,0,0,0,1.012-.712,1.9,1.9,0,0,0,.412-.824,5.628,5.628,0,0,0,.074-.637v-.375h.037V171.4h-1.686Zm6.557-7.831a4.6,4.6,0,0,0-1.911.338,3.186,3.186,0,0,0-1.011.712,1.709,1.709,0,0,0-.412.824,5.671,5.671,0,0,0-.075.637v8.205h1.724V174.1a1.544,1.544,0,0,1,.037-.412.892.892,0,0,1,.225-.412,1.4,1.4,0,0,1,.525-.337,1.773,1.773,0,0,1,.862-.151h.787l.375-1.461a2.62,2.62,0,0,0-.525-.038Zm7.906.674a3.921,3.921,0,0,0-2.623-.712,3.522,3.522,0,0,0-1.423.225,2.932,2.932,0,0,0-1.087.525,2.008,2.008,0,0,0-.6.786,2.61,2.61,0,0,0-.187.937v.487h1.724a1.5,1.5,0,0,1,.337-1.012,1.751,1.751,0,0,1,1.349-.412,2.587,2.587,0,0,1,.824.113,1.768,1.768,0,0,1,.525.3.963.963,0,0,1,.3.412,1.61,1.61,0,0,1,.075.412v.375a.74.74,0,0,1-.075.412,2.561,2.561,0,0,1-.225.338.692.692,0,0,1-.262.224.622.622,0,0,0-.224.113,3.6,3.6,0,0,1-.412.15c-.225.075-.45.15-.75.262a8.64,8.64,0,0,0-.9.3c-.3.113-.6.225-.824.3a2.412,2.412,0,0,0-1.537,2.285v.937a3.329,3.329,0,0,0,.113.787,2.076,2.076,0,0,0,.525.787,3.083,3.083,0,0,0,1.049.6,6.711,6.711,0,0,0,3.447,0,3.09,3.09,0,0,0,1.049-.6,1.549,1.549,0,0,0,.525-.787,3.082,3.082,0,0,0,.112-.787v-5.995A2.147,2.147,0,0,0,515.851,171.965Zm-.862,7.081a1.685,1.685,0,0,1-.375,1.125,1.911,1.911,0,0,1-1.386.412,1.761,1.761,0,0,1-1.349-.375,1.406,1.406,0,0,1-.375-1.124,1.072,1.072,0,0,1,.151-.637,3.9,3.9,0,0,1,.337-.412,1.559,1.559,0,0,1,.449-.3c.188-.075.45-.15.674-.225l.674-.225a7.068,7.068,0,0,0,.675-.224,2.179,2.179,0,0,0,.3-.15.588.588,0,0,0,.188-.3h.037Z" transform="translate(-415.271 -153.877)"/></g></g></svg>