<svg xmlns="http://www.w3.org/2000/svg" width="163.046" height="47.924" viewBox="0 0 163.046 47.924"><defs><style>.a{fill:#fff;}</style></defs><g transform="translate(-722 -468)"><g transform="translate(316.763 318)"><path class="a" d="M424,162.847a16.309,16.309,0,1,0,16.31,16.309A16.335,16.335,0,0,0,424,162.847Zm4.943,27.147h-2.484v-9.173s-4.124.714-4.335.873a1.515,1.515,0,0,0-.476.449,1.044,1.044,0,0,0-.212.714v7.11h-2.484V171.94a4.894,4.894,0,0,1,.105-.925,2.85,2.85,0,0,1,.608-1.19,3.857,3.857,0,0,1,1.507-1,7.106,7.106,0,0,1,2.775-.423,7.2,7.2,0,0,1,2.776.423,4.519,4.519,0,0,1,1.507,1,2.575,2.575,0,0,1,.608,1.19,4.9,4.9,0,0,1,.1.925Z"/><path class="a" d="M426.489,172.416a2.344,2.344,0,0,0-.079-.582,1.285,1.285,0,0,0-.37-.582,2.238,2.238,0,0,0-.793-.449,3.858,3.858,0,0,0-1.348-.185,3.389,3.389,0,0,0-1.269.185,1.985,1.985,0,0,0-.74.476,1.291,1.291,0,0,0-.344.608,2.344,2.344,0,0,0-.079.581v6.926c.158-.053,3.806-.634,3.833-.661.819-.053.978-.555.978-.555a5.475,5.475,0,0,0,.211-1.718Z"/><path class="a" d="M424.992,160.414l.043-.686c.212-.846,1.666-1.613,1.666-1.613a2.828,2.828,0,0,0,1.427-3.04,13.029,13.029,0,0,1-.159-1.824c.027-.925.37-1.11.5-1.242a.951.951,0,0,0,.079-.555,1.121,1.121,0,0,1,.185.026.38.38,0,0,1,.132.08.853.853,0,0,0-.026-.185c-.027-.133-.185-.185-.185-.185a.384.384,0,0,0,.079-.133c.026-.105,0-.185-.132-.37s-.08-.238-.08-.238l-.1.027a1.679,1.679,0,0,1-.053-.238c0-.079-.053.185-.053.185l-.132-.317-.053.211-.185-.317-.053.264a.419.419,0,0,0-.211-.079c-.08,0-.08.132-.08.264a3.268,3.268,0,0,0-1.771,1.851c-.026.053-.053.132-.079.185-.608,1.4-1.137,1.559-1.137,1.559a2.8,2.8,0,0,1-2.352,0c-2.009-.9-2.723-.343-2.723-.343a2.468,2.468,0,0,0-.766.449.913.913,0,0,0-.318.872c.37-.185.529.053.529.053-.978.027-.211.9-.211.9.052-.159.343-.106.343-.106-.4.687.767,1.031.767,1.031-.053-.476.555-.529,1.11.185,2.062,2.538,2.643,2.591,2.643,2.591l.074.721a18.684,18.684,0,1,0,1.284.018Zm-.935-.686a1.335,1.335,0,0,1,.608.132l.053.546c-.237-.009-.474-.018-.714-.018H424ZM424,195.941a16.785,16.785,0,1,1,16.786-16.785A16.809,16.809,0,0,1,424,195.941Z"/><path class="a" d="M471.877,169.974h2.173v-2.607h-2.173Zm21.531,12.552h-.048v.29a2.023,2.023,0,0,1-.1.531,1.156,1.156,0,0,1-.289.531,1.8,1.8,0,0,1-.676.386,2.871,2.871,0,0,1-1.207.193,3.62,3.62,0,0,1-1.159-.193,3.537,3.537,0,0,1-.627-.435,1.144,1.144,0,0,1-.29-.531,1.818,1.818,0,0,1-.048-.482v-.242h-.049V172.63h-2.172v10.62a7.075,7.075,0,0,0,.1.821,2.017,2.017,0,0,0,.531,1.062,3,3,0,0,0,1.3.917,6.745,6.745,0,0,0,2.462.386,6.561,6.561,0,0,0,2.462-.386,4.11,4.11,0,0,0,1.3-.917,2.448,2.448,0,0,0,.531-1.062,7.256,7.256,0,0,0,.1-.821v-.483h.048V172.581h-2.172Zm4.731,3.669h2.172V167.319h-2.172Zm-40.02-17.572a3.407,3.407,0,0,0-1.3-.869,7.719,7.719,0,0,0-4.827,0,3.408,3.408,0,0,0-1.3.869,2.08,2.08,0,0,0-.531,1.013c-.048.387-.1.628-.1.821V186.1h2.124v-6.227a.89.89,0,0,1,.193-.628,3.2,3.2,0,0,1,.434-.386c.194-.1,3.766-.724,3.766-.724V186.1h2.172V170.457a7.256,7.256,0,0,0-.1-.821A2.072,2.072,0,0,0,458.119,168.623Zm-1.738,7.193s-.1.434-.821.482c-.048.049-3.186.531-3.379.58v-5.986a1.822,1.822,0,0,1,.048-.483,1.444,1.444,0,0,1,.29-.531,1.64,1.64,0,0,1,.676-.435,3.445,3.445,0,0,1,1.11-.145,3.787,3.787,0,0,1,1.159.145,1.779,1.779,0,0,1,.675.387.808.808,0,0,1,.338.482,1.692,1.692,0,0,1,.1.483v3.524A3.96,3.96,0,0,1,456.381,175.816Zm11.1,1.738a9.875,9.875,0,0,1-2.22,6.517,10.409,10.409,0,0,1-2.221-6.517v-5.021h-2.414v5.841a11.568,11.568,0,0,0,3.428,7.724h2.365a11.28,11.28,0,0,0,3.476-7.724v-5.841h-2.414Zm4.393,8.641h2.173V172.63h-2.173Zm10.331-2.317a2.462,2.462,0,0,1-1.786.531,2.268,2.268,0,0,1-1.738-.483,1.811,1.811,0,0,1-.483-1.448v-6.324a1.932,1.932,0,0,1,.435-1.3,2.254,2.254,0,0,1,1.738-.531,3.308,3.308,0,0,1,1.062.145,2.25,2.25,0,0,1,.676.386,1.235,1.235,0,0,1,.386.531,2.063,2.063,0,0,1,.1.531v.29h2.221v-.628a2.769,2.769,0,0,0-1.062-2.269,5.051,5.051,0,0,0-3.379-.917,7.681,7.681,0,0,0-1.98.241,3.81,3.81,0,0,0-1.4.676,2.606,2.606,0,0,0-.772,1.014,3.359,3.359,0,0,0-.241,1.207V183.2a4.6,4.6,0,0,0,.193,1.014,2.664,2.664,0,0,0,.676,1.013A3.976,3.976,0,0,0,478.2,186a8.679,8.679,0,0,0,4.442,0,3.976,3.976,0,0,0,1.351-.773,1.984,1.984,0,0,0,.676-1.013,2.682,2.682,0,0,0,.193-1.014v-.773h-2.172A1.951,1.951,0,0,1,482.208,183.878Zm55.565,2.317h2.221v-2.269h-2.221ZM556.7,173.547a3,3,0,0,0-1.3-.917,6.721,6.721,0,0,0-2.462-.387,7.754,7.754,0,0,0-2.028.242,5.48,5.48,0,0,0-1.3.627,4.115,4.115,0,0,0-1.3-.627,7.751,7.751,0,0,0-2.027-.242,6.538,6.538,0,0,0-2.462.387,4.094,4.094,0,0,0-1.3.917,2.436,2.436,0,0,0-.531,1.062,7.236,7.236,0,0,0-.1.82V186.1h2.172V175.816a2.088,2.088,0,0,1,.1-.483,1.254,1.254,0,0,1,.337-.531,2.554,2.554,0,0,1,.725-.386,4.326,4.326,0,0,1,1.206-.145,3.756,3.756,0,0,1,1.159.145,3.545,3.545,0,0,1,.628.434,1.441,1.441,0,0,1,.289.531,2.132,2.132,0,0,1,.049.531v10.235h2.22V175.864a2.141,2.141,0,0,1,.1-.483,1.247,1.247,0,0,1,.338-.531,2.534,2.534,0,0,1,.724-.386,4.329,4.329,0,0,1,1.207-.145,3.745,3.745,0,0,1,1.158.145,3.564,3.564,0,0,1,.628.434,1.467,1.467,0,0,1,.29.531,2.182,2.182,0,0,1,.048.531V186.2h2.076V175.429a7.294,7.294,0,0,0-.1-.82A2.017,2.017,0,0,0,556.7,173.547Zm11.586.869v-1.883H565.87v1.883a2.507,2.507,0,1,1-4.442,0v-1.883h-2.414v1.883a6.408,6.408,0,0,0,2.7,4.924,6.407,6.407,0,0,0-2.7,4.924v1.883h2.414v-1.883a2.507,2.507,0,1,1,4.442,0v1.883h2.413v-1.883a6.551,6.551,0,0,0-2.7-4.924A6.411,6.411,0,0,0,568.283,174.416Zm-61.213,9.655a1.377,1.377,0,0,1-.676-.435,1.441,1.441,0,0,1-.289-.531,2.132,2.132,0,0,1-.049-.531v-8.351h2.221v-1.835h-2.221v-3.476h-2.22v3.476h-1.642v1.835h1.642v8.786a7.243,7.243,0,0,0,.1.82,2.567,2.567,0,0,0,.579,1.062,3.525,3.525,0,0,0,1.352.918,6.745,6.745,0,0,0,2.462.386v-1.931h-.145A3.546,3.546,0,0,1,507.07,184.071Zm9.124-1.545h-.048v.29a2.023,2.023,0,0,1-.1.531,1.156,1.156,0,0,1-.289.531,1.8,1.8,0,0,1-.676.386,2.871,2.871,0,0,1-1.207.193,3.62,3.62,0,0,1-1.159-.193,3.536,3.536,0,0,1-.627-.435,1.144,1.144,0,0,1-.29-.531,1.818,1.818,0,0,1-.048-.482v-.242H511.7V172.63h-2.172v10.62a7.069,7.069,0,0,0,.1.821,2.017,2.017,0,0,0,.531,1.062,3,3,0,0,0,1.3.917,6.745,6.745,0,0,0,2.462.386,6.561,6.561,0,0,0,2.462-.386,4.121,4.121,0,0,0,1.3-.917,2.448,2.448,0,0,0,.531-1.062,7.248,7.248,0,0,0,.1-.821v-.483h.048V172.581h-2.172Zm8.448-10.09a5.92,5.92,0,0,0-2.462.435,4.1,4.1,0,0,0-1.3.917,2.2,2.2,0,0,0-.531,1.062,7.291,7.291,0,0,0-.1.821v10.572h2.221V176.057a1.99,1.99,0,0,1,.048-.531,1.149,1.149,0,0,1,.29-.531,1.807,1.807,0,0,1,.676-.434,2.284,2.284,0,0,1,1.11-.194h1.014l.483-1.882a3.376,3.376,0,0,0-.676-.049Zm10.186.869a5.051,5.051,0,0,0-3.379-.917,4.537,4.537,0,0,0-1.834.29,3.778,3.778,0,0,0-1.4.676,2.588,2.588,0,0,0-.773,1.013,3.363,3.363,0,0,0-.241,1.207v.628h2.221a1.932,1.932,0,0,1,.434-1.3,2.255,2.255,0,0,1,1.738-.531,3.336,3.336,0,0,1,1.062.145,2.281,2.281,0,0,1,.676.386,1.241,1.241,0,0,1,.386.531,2.074,2.074,0,0,1,.1.531v.483a.952.952,0,0,1-.1.531,3.308,3.308,0,0,1-.29.435.891.891,0,0,1-.338.289.8.8,0,0,0-.289.145,4.639,4.639,0,0,1-.531.193c-.29.1-.58.193-.966.338a11.147,11.147,0,0,0-1.158.386c-.387.145-.773.29-1.062.387a3.107,3.107,0,0,0-1.98,2.944V183.3a4.282,4.282,0,0,0,.145,1.014,2.674,2.674,0,0,0,.676,1.014,3.971,3.971,0,0,0,1.352.772,8.646,8.646,0,0,0,4.441,0,3.981,3.981,0,0,0,1.352-.772,2,2,0,0,0,.676-1.014,3.968,3.968,0,0,0,.144-1.014v-7.724A2.767,2.767,0,0,0,534.828,173.3Zm-1.11,9.124a2.172,2.172,0,0,1-.483,1.449,2.462,2.462,0,0,1-1.786.531,2.268,2.268,0,0,1-1.738-.483,1.811,1.811,0,0,1-.483-1.448,1.38,1.38,0,0,1,.194-.821,5.025,5.025,0,0,1,.434-.531,2.008,2.008,0,0,1,.579-.386c.242-.1.58-.193.869-.29l.869-.29a9.087,9.087,0,0,0,.869-.289,2.8,2.8,0,0,0,.386-.193.759.759,0,0,0,.242-.386h.048Z"/></g></g></svg>