<svg xmlns="http://www.w3.org/2000/svg" width="173.393" height="46.873" viewBox="0 0 173.393 46.873"><defs><style>.a{fill:#fff;}</style></defs><g transform="translate(-405.302 -215.413)"><path class="a" d="M427.779,225.206a1.377,1.377,0,0,0-.167-.164c-.132-.132-.343-.158-.395-.474-.027-.343-.053-.553-.053-.764a3.1,3.1,0,0,0,.026-.342,1.475,1.475,0,0,0,.158-.475c.027-.237-.026-.421.079-.526a2.81,2.81,0,0,0,.553-.554l.027-.026c.158-.211.474-.553.606-.764a1.941,1.941,0,0,0,.079-.21,10.044,10.044,0,0,0,.5-1.054c.132-.184.29-.4.4-.579a1.484,1.484,0,0,1,.158-.211c.237-.29.527-.58.711-.553a1.641,1.641,0,0,0,.4.052,5.593,5.593,0,0,1,.633-.026c.21.026.316.079.474.105.184.027.447.053.5-.052.132.026.211-.29.184-.369a3.572,3.572,0,0,1-.395-.316,1.812,1.812,0,0,1-.474-.606c-.052-.158-.131-.421-.131-.421l-.369-.343a1.606,1.606,0,0,0,.369-.816c-.027-.106-.106.026-.106.026a1.6,1.6,0,0,1-.474.58h-.026l-.079-.079v-.027a1.537,1.537,0,0,0,.342-.764c-.026-.1-.105.027-.105.027a1.747,1.747,0,0,1-.448.553.459.459,0,0,0-.29-.027,1.66,1.66,0,0,0-.421.106.213.213,0,0,0-.211.026.448.448,0,0,0-.105.158l.052.106a3.929,3.929,0,0,1-.737.474c-.316.1-1,.289-1.185.368a2.076,2.076,0,0,1-.343.158s-2.449.132-3.266.132c-.843,0-1.686-.079-1.923-.105a9.338,9.338,0,0,0-1.527-.185s-2.134-.368-2.081,1.37a5.173,5.173,0,0,0,.053.79,4.878,4.878,0,0,1-.053,1.475s-.264.527-.448.606a1.122,1.122,0,0,0-.474,1.37,1.435,1.435,0,0,0,1-1.5,4.319,4.319,0,0,1,.448-1.027,1.9,1.9,0,0,0,.184.711.35.35,0,0,0,.079.158s.263.316.158.58a1,1,0,0,1-.184.5,1.566,1.566,0,0,0-.132.606,2.243,2.243,0,0,1,.026.659,2.829,2.829,0,0,1-.158.763c-.079.237-.105.343,0,.448.079.079.185.079.211.185s0,.21.079.289a.624.624,0,0,0,.175.121,18.713,18.713,0,1,0,8.1-.141Zm-1.168-1.4c.079-.527.105-.738.105-.738l.105.685a4.422,4.422,0,0,1-.105,1.054.664.664,0,0,0-.105-.237C426.505,224.357,426.532,224.331,426.611,223.8Zm-5.584-1.343.421-.158.027.079s-.027-.053,0,.052c.052.079.079.132.079.079a1.066,1.066,0,0,0,.052-.184s.053.184.079.237c.027.079.079.079.079.079a.4.4,0,0,0,.053-.211c.026-.158,0-.21.079-.21a1.489,1.489,0,0,0,.5-.317,2.484,2.484,0,0,1,.475.053c.21.079.421.264.632.237.21,0,.737-.105.974-.105s.685-.264.922-.264c.237-.026.632-.079.632-.079a6.356,6.356,0,0,0-.026.843,5.6,5.6,0,0,1,.079,1.133c-.053.237-.132.685-.158.816s0,.158,0,.158h.079l.053-.079a.38.38,0,0,1,.184.29c0,.02,0,.038.005.056a18.533,18.533,0,0,0-4.117-.039c-.088-.115-.242-.211-.313-.307a2.724,2.724,0,0,0-.369-.316,2.261,2.261,0,0,1-.316-.9,4.779,4.779,0,0,1-.1-.606Zm-1.159.79c.132-.211.184-.422.29-.606.079-.211.079,0,.131.132.053.158.264.474.343.711a8.054,8.054,0,0,1,.237.922c0,.184-.079.316.052.237.106-.053.211-.132.264-.027.079.079.105.238.263.317a.856.856,0,0,0,.16.056c-.448.058-.893.126-1.331.215a.8.8,0,0,1-.172-.192.612.612,0,0,0-.184-.211.946.946,0,0,1-.185-.632A2.5,2.5,0,0,1,419.868,223.251Zm4.161,37.086a16.779,16.779,0,1,1,16.779-16.778A16.805,16.805,0,0,1,424.029,260.337Z"/><path class="a" d="M424.029,227.281a16.277,16.277,0,1,0,16.278,16.278A16.288,16.288,0,0,0,424.029,227.281Zm5.084,9.324h-2.581v-.342a2.771,2.771,0,0,0-.079-.606,1.353,1.353,0,0,0-.369-.606,2.373,2.373,0,0,0-.817-.474,3.98,3.98,0,0,0-1.4-.211,3.519,3.519,0,0,0-1.317.211,1.952,1.952,0,0,0-.79.5,1.515,1.515,0,0,0-.342.632,2.542,2.542,0,0,0-.079.606v14.2a2.71,2.71,0,0,0,.079.606,1.293,1.293,0,0,0,.342.606,2.272,2.272,0,0,0,.79.5,3.723,3.723,0,0,0,1.317.211,3.457,3.457,0,0,0,1.4-.211,2.662,2.662,0,0,0,.817-.474,1.229,1.229,0,0,0,.369-.606,2.351,2.351,0,0,0,.079-.553v-4.53a6.861,6.861,0,0,0-.053-.843.647.647,0,0,0-.316-.448,1.74,1.74,0,0,0-.817-.105,3.673,3.673,0,0,0-1.4.184v-2.792s.475-.052.791-.052a16.479,16.479,0,0,1,2.265,0,2.175,2.175,0,0,1,1.4.763,2.592,2.592,0,0,1,.421.553,3.3,3.3,0,0,1,.211.606,3.151,3.151,0,0,1,.079.738v6.4a5.571,5.571,0,0,1-.132.975,2.69,2.69,0,0,1-.632,1.211A4.213,4.213,0,0,1,426.8,254.3a9.423,9.423,0,0,1-5.742,0,3.925,3.925,0,0,1-1.554-1.054,2.654,2.654,0,0,1-.632-1.237,6.048,6.048,0,0,1-.132-.949v-15.25a5.653,5.653,0,0,1,.132-.948,2.778,2.778,0,0,1,.632-1.238,4.214,4.214,0,0,1,1.554-1.054,9.423,9.423,0,0,1,5.742,0,4.213,4.213,0,0,1,1.554,1.054,2.643,2.643,0,0,1,.632,1.238,6.023,6.023,0,0,1,.132.948Z"/><path class="a" d="M456.835,242.359a1.886,1.886,0,0,1,1.179.639,2.763,2.763,0,0,1,.344.442,1.473,1.473,0,0,1,.2.491,2.6,2.6,0,0,1,.049.639v5.255a5.685,5.685,0,0,1-.1.786,1.8,1.8,0,0,1-.54.983,3.691,3.691,0,0,1-1.277.884,6.312,6.312,0,0,1-2.358.343,6.147,6.147,0,0,1-2.358-.343,3.275,3.275,0,0,1-1.277-.884,2.628,2.628,0,0,1-.54-1.032,6.732,6.732,0,0,1-.1-.786V237.2a6.758,6.758,0,0,1,.1-.786,2.111,2.111,0,0,1,.54-1.031,3.665,3.665,0,0,1,1.277-.884,6.289,6.289,0,0,1,2.358-.344,6.125,6.125,0,0,1,2.358.344,3.254,3.254,0,0,1,1.277.884,2.624,2.624,0,0,1,.54,1.031,6.764,6.764,0,0,1,.1.786v.639h-2.161v-.295a2.163,2.163,0,0,0-.1-.491,1.017,1.017,0,0,0-.295-.491,1.8,1.8,0,0,0-.688-.393,3.8,3.8,0,0,0-1.178-.148,3.158,3.158,0,0,0-1.081.148,1.565,1.565,0,0,0-.638.393,1.159,1.159,0,0,0-.295.54,1.845,1.845,0,0,0-.049.491v11.788a1.841,1.841,0,0,0,.049.491,1.017,1.017,0,0,0,.295.492,1.586,1.586,0,0,0,.638.393,3.388,3.388,0,0,0,1.081.147,3.834,3.834,0,0,0,1.178-.147,2.314,2.314,0,0,0,.688-.393,1.024,1.024,0,0,0,.295-.492,2.472,2.472,0,0,0,.1-.442V245.65a2.613,2.613,0,0,0-.049-.687c-.049-.2-.1-.295-.246-.344a2.279,2.279,0,0,0-.687-.1,3.984,3.984,0,0,0-1.179.147v-2.309s.393-.049.638-.049C454.919,242.359,455.7,242.261,456.835,242.359Z"/><path class="a" d="M464.6,239.019a5.214,5.214,0,0,1,3.339.885,2.838,2.838,0,0,1,1.081,2.21v7.613a4.34,4.34,0,0,1-.147,1.032,2.588,2.588,0,0,1-.639,1.031,4.319,4.319,0,0,1-1.326.786,7.09,7.09,0,0,1-2.21.295,6.686,6.686,0,0,1-2.211-.295,2.9,2.9,0,0,1-1.326-.786,1.93,1.93,0,0,1-.638-1.031,4.031,4.031,0,0,1-.148-1.032V248.5a3.206,3.206,0,0,1,.492-1.768,2.692,2.692,0,0,1,1.424-1.13,9.759,9.759,0,0,1,1.081-.344c.393-.147.785-.294,1.129-.393.393-.147.688-.245.983-.343a5.082,5.082,0,0,0,.54-.2.8.8,0,0,1,.3-.147,1.574,1.574,0,0,0,.343-.295,2.66,2.66,0,0,0,.3-.393.973.973,0,0,0,.1-.54v-.491a2.1,2.1,0,0,0-.1-.541,1.123,1.123,0,0,0-.344-.491,2.3,2.3,0,0,0-.687-.393,3.387,3.387,0,0,0-1.081-.147,2.167,2.167,0,0,0-1.719.54,1.923,1.923,0,0,0-.442,1.277h-2.21v-.638a3.428,3.428,0,0,1,.245-1.228,2.5,2.5,0,0,1,.786-.983,4.508,4.508,0,0,1,1.375-.687A10.459,10.459,0,0,1,464.6,239.019Zm2.21,6.877a.552.552,0,0,1-.246.393,1.458,1.458,0,0,1-.393.2c-.245.1-.54.2-.835.295s-.589.2-.835.295l-.884.294a3.747,3.747,0,0,0-.589.344,2.587,2.587,0,0,0-.442.541,1.4,1.4,0,0,0-.2.835,2.2,2.2,0,0,0,.442,1.473,2.469,2.469,0,0,0,1.719.491,2.382,2.382,0,0,0,1.769-.491,2.152,2.152,0,0,0,.442-1.424V245.9Z"/><path class="a" d="M479.675,252.723h-2.211V242.556a1.674,1.674,0,0,0-.049-.491,1.468,1.468,0,0,0-.3-.541,2.027,2.027,0,0,0-.638-.393,3.508,3.508,0,0,0-1.13-.147,3.845,3.845,0,0,0-1.179.147,1.825,1.825,0,0,0-.687.393,1.489,1.489,0,0,0-.344.492,2.153,2.153,0,0,0-.1.491v10.216h-2.211V242.212a7.409,7.409,0,0,1,.1-.835,2.1,2.1,0,0,1,.54-1.031,3.469,3.469,0,0,1,1.326-.884,7.567,7.567,0,0,1,4.814,0,3.468,3.468,0,0,1,1.326.884,2.106,2.106,0,0,1,.54,1.031,7.364,7.364,0,0,1,.1.835v10.511Z"/><path class="a" d="M485.912,239.019a5.215,5.215,0,0,1,3.34.885,2.838,2.838,0,0,1,1.081,2.21v7.613a4.342,4.342,0,0,1-.147,1.032,2.588,2.588,0,0,1-.639,1.031,4.319,4.319,0,0,1-1.326.786,7.09,7.09,0,0,1-2.21.295,6.682,6.682,0,0,1-2.211-.295,2.9,2.9,0,0,1-1.326-.786,1.93,1.93,0,0,1-.638-1.031,3.989,3.989,0,0,1-.148-1.032V248.5a3.206,3.206,0,0,1,.492-1.768,2.692,2.692,0,0,1,1.424-1.13,9.689,9.689,0,0,1,1.081-.344c.392-.147.785-.294,1.129-.393.393-.147.688-.245.983-.343a5.081,5.081,0,0,0,.54-.2.8.8,0,0,1,.295-.147,1.574,1.574,0,0,0,.343-.295,2.66,2.66,0,0,0,.295-.393.973.973,0,0,0,.1-.54v-.491a2.1,2.1,0,0,0-.1-.541,1.123,1.123,0,0,0-.344-.491,2.3,2.3,0,0,0-.687-.393,3.387,3.387,0,0,0-1.081-.147,2.167,2.167,0,0,0-1.719.54A1.923,1.923,0,0,0,484,242.7h-2.21v-.638a3.428,3.428,0,0,1,.245-1.228,2.5,2.5,0,0,1,.786-.983,4.508,4.508,0,0,1,1.375-.687A11.058,11.058,0,0,1,485.912,239.019Zm2.26,6.877a.552.552,0,0,1-.246.393,1.458,1.458,0,0,1-.393.2c-.245.1-.54.2-.835.295s-.589.2-.835.295l-.884.294a3.745,3.745,0,0,0-.589.344,2.586,2.586,0,0,0-.442.541,1.4,1.4,0,0,0-.2.835,2.2,2.2,0,0,0,.442,1.473,2.469,2.469,0,0,0,1.719.491,2.382,2.382,0,0,0,1.769-.491,2.152,2.152,0,0,0,.442-1.424V245.9Z"/><path class="a" d="M500.991,249.825a2.841,2.841,0,0,1-1.08,2.211,5.07,5.07,0,0,1-3.291.884,8.085,8.085,0,0,1-2.014-.246,3.612,3.612,0,0,1-1.375-.688,2.878,2.878,0,0,1-.786-.982,3.429,3.429,0,0,1-.246-1.228v-.638h.05v-5.256h-.05v-.589a3.209,3.209,0,0,1,.492-1.769,2.622,2.622,0,0,1,1.473-1.129,9.353,9.353,0,0,1,1.081-.344c.393-.147.786-.295,1.129-.393.344-.147.688-.246.934-.344a4.922,4.922,0,0,0,.54-.2.794.794,0,0,1,.3-.148,1.564,1.564,0,0,0,.343-.294,2.714,2.714,0,0,0,.3-.393.976.976,0,0,0,.1-.541V233.96h2.211v15.865ZM496.571,251a3.387,3.387,0,0,0,1.081-.147,1.584,1.584,0,0,0,.687-.393,1.28,1.28,0,0,0,.344-.54,2.545,2.545,0,0,0,.1-.541v-8.792c-.049.2-.1.344-.245.393a1.492,1.492,0,0,1-.393.2c-.246.1-.541.2-.835.294s-.59.2-.835.295l-.884.295a2.042,2.042,0,0,0-.59.393,2.583,2.583,0,0,0-.442.54,1.407,1.407,0,0,0-.2.835v5.5a1.365,1.365,0,0,0,.147.639,2.007,2.007,0,0,0,.344.54,1.812,1.812,0,0,0,.687.393A6.155,6.155,0,0,0,496.571,251Z"/><path class="a" d="M507.279,239.019a6.3,6.3,0,0,1,2.406.393,3.475,3.475,0,0,1,1.326.884,2.107,2.107,0,0,1,.541,1.032,7.339,7.339,0,0,1,.1.835v1.277a3.667,3.667,0,0,1-.147.982,3.5,3.5,0,0,1-.786,1.179,1.861,1.861,0,0,1-.639.442,5.526,5.526,0,0,1-.638.246,3.328,3.328,0,0,1-.688.1h-1.965a1.593,1.593,0,0,0-1.178.491,1.675,1.675,0,0,0-.541,1.228v1.179a1.925,1.925,0,0,0,.246.982.717.717,0,0,0,.245.295,1.4,1.4,0,0,0,.393.246,3.265,3.265,0,0,0,.541.2,3.53,3.53,0,0,0,.835.1,3.377,3.377,0,0,0,1.08-.147c.246-.1.442-.2.54-.246a1.1,1.1,0,0,0,.443-.638,2.041,2.041,0,0,0,.147-.786h2.21v.639a2.859,2.859,0,0,1-.295,1.277,2.637,2.637,0,0,1-.933,1.031,4.1,4.1,0,0,1-1.228.54,7.34,7.34,0,0,1-1.964.246,6.972,6.972,0,0,1-1.523-.147,6.245,6.245,0,0,1-1.13-.344,3.119,3.119,0,0,1-.786-.491,5.9,5.9,0,0,1-.54-.59,2.8,2.8,0,0,1-.442-1.572v-7.662a7.364,7.364,0,0,1,.1-.835,2.1,2.1,0,0,1,.541-1.031,3.453,3.453,0,0,1,1.326-.884A5.389,5.389,0,0,1,507.279,239.019Zm2.21,3.782v-.245a1.673,1.673,0,0,0-.049-.491,1.483,1.483,0,0,0-.3-.541,2.033,2.033,0,0,0-.639-.393,3.5,3.5,0,0,0-1.129-.147,3.845,3.845,0,0,0-1.179.147,1.83,1.83,0,0,0-.688.393,1.519,1.519,0,0,0-.344.492,2.154,2.154,0,0,0-.1.491v2.7a.675.675,0,0,1,.246-.393.982.982,0,0,1,.393-.2,1.431,1.431,0,0,1,.442-.1,2.736,2.736,0,0,0,.344-.05h1.473A1.511,1.511,0,0,0,509.44,243v-.2Z"/><path class="a" d="M517.495,239.069h.786a3.481,3.481,0,0,1,.687.049l-.491,1.866h-1.031a2.581,2.581,0,0,0-1.13.2,1.239,1.239,0,0,0-.638.442,1.16,1.16,0,0,0-.295.54,1.845,1.845,0,0,0-.049.491v10.118h-2.211V242.261c0-.2.05-.442.1-.835a2.1,2.1,0,0,1,.54-1.031,3.468,3.468,0,0,1,1.326-.884A5.249,5.249,0,0,1,517.495,239.069Z"/><path class="a" d="M531.641,239.019a5.219,5.219,0,0,1,3.34.885,2.84,2.84,0,0,1,1.08,2.21v7.613a4.34,4.34,0,0,1-.147,1.032,2.577,2.577,0,0,1-.639,1.031,4.3,4.3,0,0,1-1.326.786,7.09,7.09,0,0,1-2.21.295,6.675,6.675,0,0,1-2.21-.295,2.886,2.886,0,0,1-1.326-.786,1.932,1.932,0,0,1-.639-1.031,4.028,4.028,0,0,1-.147-1.032V248.5a3.2,3.2,0,0,1,.491-1.768,2.7,2.7,0,0,1,1.424-1.13,9.762,9.762,0,0,1,1.081-.344c.393-.147.786-.294,1.129-.393.393-.147.688-.245.983-.343a5,5,0,0,0,.54-.2.8.8,0,0,1,.295-.147,1.6,1.6,0,0,0,.344-.295,2.727,2.727,0,0,0,.294-.393.964.964,0,0,0,.1-.54v-.491a2.1,2.1,0,0,0-.1-.541,1.129,1.129,0,0,0-.343-.491,2.305,2.305,0,0,0-.688-.393,3.387,3.387,0,0,0-1.081-.147,2.167,2.167,0,0,0-1.719.54,1.928,1.928,0,0,0-.442,1.277h-2.21v-.638a3.427,3.427,0,0,1,.245-1.228,2.511,2.511,0,0,1,.786-.983,4.5,4.5,0,0,1,1.376-.687A9.875,9.875,0,0,1,531.641,239.019Zm2.21,6.877a.552.552,0,0,1-.246.393,1.457,1.457,0,0,1-.393.2c-.245.1-.54.2-.835.295s-.589.2-.835.295l-.884.294a3.747,3.747,0,0,0-.589.344,2.618,2.618,0,0,0-.442.541,1.406,1.406,0,0,0-.2.835,2.2,2.2,0,0,0,.443,1.473,2.468,2.468,0,0,0,1.719.491,2.38,2.38,0,0,0,1.768-.491,2.147,2.147,0,0,0,.442-1.424V245.9Z"/><path class="a" d="M537.879,250.464h2.21v2.259h-2.21Z"/><path class="a" d="M548.586,242.8v-.245a2.083,2.083,0,0,0-.1-.54,1.119,1.119,0,0,0-.344-.492,2.321,2.321,0,0,0-.687-.393,3.387,3.387,0,0,0-1.081-.147,2.171,2.171,0,0,0-1.719.54,1.923,1.923,0,0,0-.442,1.277v6.288a2.2,2.2,0,0,0,.442,1.473,2.47,2.47,0,0,0,1.719.491,2.38,2.38,0,0,0,1.768-.491,2.147,2.147,0,0,0,.442-1.424h2.161v.736a4.341,4.341,0,0,1-.147,1.032,2.578,2.578,0,0,1-.638,1.031,4.293,4.293,0,0,1-1.327.786,7.06,7.06,0,0,1-2.21.295,6.649,6.649,0,0,1-2.21-.295,2.878,2.878,0,0,1-1.326-.786,1.925,1.925,0,0,1-.639-1.031,4.027,4.027,0,0,1-.147-1.032v-7.662a3.427,3.427,0,0,1,.245-1.228,2.492,2.492,0,0,1,.786-.982,4.51,4.51,0,0,1,1.375-.688,7.682,7.682,0,0,1,1.965-.245,5.123,5.123,0,0,1,3.34.884,2.791,2.791,0,0,1,1.032,2.21v.638Z"/><path class="a" d="M561.406,249.383v.393a7.34,7.34,0,0,1-.1.835,2.107,2.107,0,0,1-.541,1.032,3.475,3.475,0,0,1-1.326.884,7.564,7.564,0,0,1-4.813,0,3.488,3.488,0,0,1-1.327-.884,2.113,2.113,0,0,1-.54-1.032,7.337,7.337,0,0,1-.1-.835v-7.662c0-.2.049-.442.1-.835a2.113,2.113,0,0,1,.54-1.032,3.488,3.488,0,0,1,1.327-.884,7.564,7.564,0,0,1,4.813,0,3.475,3.475,0,0,1,1.326.884,2.107,2.107,0,0,1,.541,1.032,7.34,7.34,0,0,1,.1.835Zm-2.161-.245v-6.582a1.715,1.715,0,0,0-.1-.491.827.827,0,0,0-.343-.491,1.8,1.8,0,0,0-.688-.393,3.81,3.81,0,0,0-1.179-.148,3.686,3.686,0,0,0-1.13.148,1.571,1.571,0,0,0-.638.393,1.168,1.168,0,0,0-.3.54,1.845,1.845,0,0,0-.049.491v6.778a1.841,1.841,0,0,0,.049.491,1.482,1.482,0,0,0,.3.541,2.038,2.038,0,0,0,.638.393,3.507,3.507,0,0,0,1.13.147,3.845,3.845,0,0,0,1.179-.147,1.83,1.83,0,0,0,.688-.393,1.506,1.506,0,0,0,.343-.491,2.125,2.125,0,0,0,.1-.492Z"/><path class="a" d="M578.7,252.723h-2.21V242.556a1.673,1.673,0,0,0-.049-.491,1.481,1.481,0,0,0-.295-.541,1.593,1.593,0,0,0-.638-.393,3.72,3.72,0,0,0-1.13-.147,3.846,3.846,0,0,0-1.179.147,1.831,1.831,0,0,0-.688.393,1.5,1.5,0,0,0-.343.492,2.105,2.105,0,0,0-.1.491v10.216h-2.21V242.556a1.673,1.673,0,0,0-.049-.491,1.468,1.468,0,0,0-.295-.541,1.593,1.593,0,0,0-.638-.393,3.72,3.72,0,0,0-1.13-.147,3.845,3.845,0,0,0-1.179.147,1.818,1.818,0,0,0-.687.393,1.489,1.489,0,0,0-.344.492,2.16,2.16,0,0,0-.1.491v10.216h-2.161V242.212a7.186,7.186,0,0,1,.1-.835,2.1,2.1,0,0,1,.54-1.031,3.468,3.468,0,0,1,1.326-.884,6.277,6.277,0,0,1,2.407-.393,7.256,7.256,0,0,1,2.014.245,1.677,1.677,0,0,0,2.554,0,7.515,7.515,0,0,1,2.014-.245,6.275,6.275,0,0,1,2.406.393,3.453,3.453,0,0,1,1.326.884,2.1,2.1,0,0,1,.541,1.031,7.377,7.377,0,0,1,.1.835v10.511Z"/><path class="a" d="M521.572,239.265h2.161v13.458h-2.161Z"/><path class="a" d="M523.585,233.862v2.652h-2.21v-2.652Z"/><path class="a" d="M456.835,242.359a1.886,1.886,0,0,1,1.179.639,2.763,2.763,0,0,1,.344.442,1.473,1.473,0,0,1,.2.491,2.6,2.6,0,0,1,.049.639v5.255a5.685,5.685,0,0,1-.1.786,1.8,1.8,0,0,1-.54.983,3.691,3.691,0,0,1-1.277.884,6.312,6.312,0,0,1-2.358.343,6.147,6.147,0,0,1-2.358-.343,3.275,3.275,0,0,1-1.277-.884,2.628,2.628,0,0,1-.54-1.032,6.732,6.732,0,0,1-.1-.786V237.2a6.758,6.758,0,0,1,.1-.786,2.111,2.111,0,0,1,.54-1.031,3.665,3.665,0,0,1,1.277-.884,6.289,6.289,0,0,1,2.358-.344,6.125,6.125,0,0,1,2.358.344,3.254,3.254,0,0,1,1.277.884,2.624,2.624,0,0,1,.54,1.031,6.764,6.764,0,0,1,.1.786v.639h-2.161v-.295a2.163,2.163,0,0,0-.1-.491,1.017,1.017,0,0,0-.295-.491,1.8,1.8,0,0,0-.688-.393,3.8,3.8,0,0,0-1.178-.148,3.158,3.158,0,0,0-1.081.148,1.565,1.565,0,0,0-.638.393,1.159,1.159,0,0,0-.295.54,1.845,1.845,0,0,0-.049.491v11.788a1.841,1.841,0,0,0,.049.491,1.017,1.017,0,0,0,.295.492,1.586,1.586,0,0,0,.638.393,3.388,3.388,0,0,0,1.081.147,3.834,3.834,0,0,0,1.178-.147,2.314,2.314,0,0,0,.688-.393,1.024,1.024,0,0,0,.295-.492,2.472,2.472,0,0,0,.1-.442V245.65a2.613,2.613,0,0,0-.049-.687c-.049-.2-.1-.295-.246-.344a2.279,2.279,0,0,0-.687-.1,3.984,3.984,0,0,0-1.179.147v-2.309s.393-.049.638-.049C454.919,242.359,455.7,242.261,456.835,242.359Z"/><path class="a" d="M464.6,239.019a5.214,5.214,0,0,1,3.339.885,2.838,2.838,0,0,1,1.081,2.21v7.613a4.34,4.34,0,0,1-.147,1.032,2.588,2.588,0,0,1-.639,1.031,4.319,4.319,0,0,1-1.326.786,7.09,7.09,0,0,1-2.21.295,6.686,6.686,0,0,1-2.211-.295,2.9,2.9,0,0,1-1.326-.786,1.93,1.93,0,0,1-.638-1.031,4.031,4.031,0,0,1-.148-1.032V248.5a3.206,3.206,0,0,1,.492-1.768,2.692,2.692,0,0,1,1.424-1.13,9.759,9.759,0,0,1,1.081-.344c.393-.147.785-.294,1.129-.393.393-.147.688-.245.983-.343a5.082,5.082,0,0,0,.54-.2.8.8,0,0,1,.3-.147,1.574,1.574,0,0,0,.343-.295,2.66,2.66,0,0,0,.3-.393.973.973,0,0,0,.1-.54v-.491a2.1,2.1,0,0,0-.1-.541,1.123,1.123,0,0,0-.344-.491,2.3,2.3,0,0,0-.687-.393,3.387,3.387,0,0,0-1.081-.147,2.167,2.167,0,0,0-1.719.54,1.923,1.923,0,0,0-.442,1.277h-2.21v-.638a3.428,3.428,0,0,1,.245-1.228,2.5,2.5,0,0,1,.786-.983,4.508,4.508,0,0,1,1.375-.687A10.459,10.459,0,0,1,464.6,239.019Zm2.21,6.877a.552.552,0,0,1-.246.393,1.458,1.458,0,0,1-.393.2c-.245.1-.54.2-.835.295s-.589.2-.835.295l-.884.294a3.747,3.747,0,0,0-.589.344,2.587,2.587,0,0,0-.442.541,1.4,1.4,0,0,0-.2.835,2.2,2.2,0,0,0,.442,1.473,2.469,2.469,0,0,0,1.719.491,2.382,2.382,0,0,0,1.769-.491,2.152,2.152,0,0,0,.442-1.424V245.9Z"/><path class="a" d="M479.675,252.723h-2.211V242.556a1.674,1.674,0,0,0-.049-.491,1.468,1.468,0,0,0-.3-.541,2.027,2.027,0,0,0-.638-.393,3.508,3.508,0,0,0-1.13-.147,3.845,3.845,0,0,0-1.179.147,1.825,1.825,0,0,0-.687.393,1.489,1.489,0,0,0-.344.492,2.153,2.153,0,0,0-.1.491v10.216h-2.211V242.212a7.409,7.409,0,0,1,.1-.835,2.1,2.1,0,0,1,.54-1.031,3.469,3.469,0,0,1,1.326-.884,7.567,7.567,0,0,1,4.814,0,3.468,3.468,0,0,1,1.326.884,2.106,2.106,0,0,1,.54,1.031,7.364,7.364,0,0,1,.1.835v10.511Z"/><path class="a" d="M485.912,239.019a5.215,5.215,0,0,1,3.34.885,2.838,2.838,0,0,1,1.081,2.21v7.613a4.342,4.342,0,0,1-.147,1.032,2.588,2.588,0,0,1-.639,1.031,4.319,4.319,0,0,1-1.326.786,7.09,7.09,0,0,1-2.21.295,6.682,6.682,0,0,1-2.211-.295,2.9,2.9,0,0,1-1.326-.786,1.93,1.93,0,0,1-.638-1.031,3.989,3.989,0,0,1-.148-1.032V248.5a3.206,3.206,0,0,1,.492-1.768,2.692,2.692,0,0,1,1.424-1.13,9.689,9.689,0,0,1,1.081-.344c.392-.147.785-.294,1.129-.393.393-.147.688-.245.983-.343a5.081,5.081,0,0,0,.54-.2.8.8,0,0,1,.295-.147,1.574,1.574,0,0,0,.343-.295,2.66,2.66,0,0,0,.295-.393.973.973,0,0,0,.1-.54v-.491a2.1,2.1,0,0,0-.1-.541,1.123,1.123,0,0,0-.344-.491,2.3,2.3,0,0,0-.687-.393,3.387,3.387,0,0,0-1.081-.147,2.167,2.167,0,0,0-1.719.54A1.923,1.923,0,0,0,484,242.7h-2.21v-.638a3.428,3.428,0,0,1,.245-1.228,2.5,2.5,0,0,1,.786-.983,4.508,4.508,0,0,1,1.375-.687A11.058,11.058,0,0,1,485.912,239.019Zm2.26,6.877a.552.552,0,0,1-.246.393,1.458,1.458,0,0,1-.393.2c-.245.1-.54.2-.835.295s-.589.2-.835.295l-.884.294a3.745,3.745,0,0,0-.589.344,2.586,2.586,0,0,0-.442.541,1.4,1.4,0,0,0-.2.835,2.2,2.2,0,0,0,.442,1.473,2.469,2.469,0,0,0,1.719.491,2.382,2.382,0,0,0,1.769-.491,2.152,2.152,0,0,0,.442-1.424V245.9Z"/><path class="a" d="M500.991,249.825a2.841,2.841,0,0,1-1.08,2.211,5.07,5.07,0,0,1-3.291.884,8.085,8.085,0,0,1-2.014-.246,3.612,3.612,0,0,1-1.375-.688,2.878,2.878,0,0,1-.786-.982,3.429,3.429,0,0,1-.246-1.228v-.638h.05v-5.256h-.05v-.589a3.209,3.209,0,0,1,.492-1.769,2.622,2.622,0,0,1,1.473-1.129,9.353,9.353,0,0,1,1.081-.344c.393-.147.786-.295,1.129-.393.344-.147.688-.246.934-.344a4.922,4.922,0,0,0,.54-.2.794.794,0,0,1,.3-.148,1.564,1.564,0,0,0,.343-.294,2.714,2.714,0,0,0,.3-.393.976.976,0,0,0,.1-.541V233.96h2.211v15.865ZM496.571,251a3.387,3.387,0,0,0,1.081-.147,1.584,1.584,0,0,0,.687-.393,1.28,1.28,0,0,0,.344-.54,2.545,2.545,0,0,0,.1-.541v-8.792c-.049.2-.1.344-.245.393a1.492,1.492,0,0,1-.393.2c-.246.1-.541.2-.835.294s-.59.2-.835.295l-.884.295a2.042,2.042,0,0,0-.59.393,2.583,2.583,0,0,0-.442.54,1.407,1.407,0,0,0-.2.835v5.5a1.365,1.365,0,0,0,.147.639,2.007,2.007,0,0,0,.344.54,1.812,1.812,0,0,0,.687.393A6.155,6.155,0,0,0,496.571,251Z"/><path class="a" d="M507.279,239.019a6.3,6.3,0,0,1,2.406.393,3.475,3.475,0,0,1,1.326.884,2.107,2.107,0,0,1,.541,1.032,7.339,7.339,0,0,1,.1.835v1.277a3.667,3.667,0,0,1-.147.982,3.5,3.5,0,0,1-.786,1.179,1.861,1.861,0,0,1-.639.442,5.526,5.526,0,0,1-.638.246,3.328,3.328,0,0,1-.688.1h-1.965a1.593,1.593,0,0,0-1.178.491,1.675,1.675,0,0,0-.541,1.228v1.179a1.925,1.925,0,0,0,.246.982.717.717,0,0,0,.245.295,1.4,1.4,0,0,0,.393.246,3.265,3.265,0,0,0,.541.2,3.53,3.53,0,0,0,.835.1,3.377,3.377,0,0,0,1.08-.147c.246-.1.442-.2.54-.246a1.1,1.1,0,0,0,.443-.638,2.041,2.041,0,0,0,.147-.786h2.21v.639a2.859,2.859,0,0,1-.295,1.277,2.637,2.637,0,0,1-.933,1.031,4.1,4.1,0,0,1-1.228.54,7.34,7.34,0,0,1-1.964.246,6.972,6.972,0,0,1-1.523-.147,6.245,6.245,0,0,1-1.13-.344,3.119,3.119,0,0,1-.786-.491,5.9,5.9,0,0,1-.54-.59,2.8,2.8,0,0,1-.442-1.572v-7.662a7.364,7.364,0,0,1,.1-.835,2.1,2.1,0,0,1,.541-1.031,3.453,3.453,0,0,1,1.326-.884A5.389,5.389,0,0,1,507.279,239.019Zm2.21,3.782v-.245a1.673,1.673,0,0,0-.049-.491,1.483,1.483,0,0,0-.3-.541,2.033,2.033,0,0,0-.639-.393,3.5,3.5,0,0,0-1.129-.147,3.845,3.845,0,0,0-1.179.147,1.83,1.83,0,0,0-.688.393,1.519,1.519,0,0,0-.344.492,2.154,2.154,0,0,0-.1.491v2.7a.675.675,0,0,1,.246-.393.982.982,0,0,1,.393-.2,1.431,1.431,0,0,1,.442-.1,2.736,2.736,0,0,0,.344-.05h1.473A1.511,1.511,0,0,0,509.44,243v-.2Z"/><path class="a" d="M517.495,239.069h.786a3.481,3.481,0,0,1,.687.049l-.491,1.866h-1.031a2.581,2.581,0,0,0-1.13.2,1.239,1.239,0,0,0-.638.442,1.16,1.16,0,0,0-.295.54,1.845,1.845,0,0,0-.049.491v10.118h-2.211V242.261c0-.2.05-.442.1-.835a2.1,2.1,0,0,1,.54-1.031,3.468,3.468,0,0,1,1.326-.884A5.249,5.249,0,0,1,517.495,239.069Z"/><path class="a" d="M531.641,239.019a5.219,5.219,0,0,1,3.34.885,2.84,2.84,0,0,1,1.08,2.21v7.613a4.34,4.34,0,0,1-.147,1.032,2.577,2.577,0,0,1-.639,1.031,4.3,4.3,0,0,1-1.326.786,7.09,7.09,0,0,1-2.21.295,6.675,6.675,0,0,1-2.21-.295,2.886,2.886,0,0,1-1.326-.786,1.932,1.932,0,0,1-.639-1.031,4.028,4.028,0,0,1-.147-1.032V248.5a3.2,3.2,0,0,1,.491-1.768,2.7,2.7,0,0,1,1.424-1.13,9.762,9.762,0,0,1,1.081-.344c.393-.147.786-.294,1.129-.393.393-.147.688-.245.983-.343a5,5,0,0,0,.54-.2.8.8,0,0,1,.295-.147,1.6,1.6,0,0,0,.344-.295,2.727,2.727,0,0,0,.294-.393.964.964,0,0,0,.1-.54v-.491a2.1,2.1,0,0,0-.1-.541,1.129,1.129,0,0,0-.343-.491,2.305,2.305,0,0,0-.688-.393,3.387,3.387,0,0,0-1.081-.147,2.167,2.167,0,0,0-1.719.54,1.928,1.928,0,0,0-.442,1.277h-2.21v-.638a3.427,3.427,0,0,1,.245-1.228,2.511,2.511,0,0,1,.786-.983,4.5,4.5,0,0,1,1.376-.687A9.875,9.875,0,0,1,531.641,239.019Zm2.21,6.877a.552.552,0,0,1-.246.393,1.457,1.457,0,0,1-.393.2c-.245.1-.54.2-.835.295s-.589.2-.835.295l-.884.294a3.747,3.747,0,0,0-.589.344,2.618,2.618,0,0,0-.442.541,1.406,1.406,0,0,0-.2.835,2.2,2.2,0,0,0,.443,1.473,2.468,2.468,0,0,0,1.719.491,2.38,2.38,0,0,0,1.768-.491,2.147,2.147,0,0,0,.442-1.424V245.9Z"/><path class="a" d="M537.879,250.464h2.21v2.259h-2.21Z"/><path class="a" d="M548.586,242.8v-.245a2.083,2.083,0,0,0-.1-.54,1.119,1.119,0,0,0-.344-.492,2.321,2.321,0,0,0-.687-.393,3.387,3.387,0,0,0-1.081-.147,2.171,2.171,0,0,0-1.719.54,1.923,1.923,0,0,0-.442,1.277v6.288a2.2,2.2,0,0,0,.442,1.473,2.47,2.47,0,0,0,1.719.491,2.38,2.38,0,0,0,1.768-.491,2.147,2.147,0,0,0,.442-1.424h2.161v.736a4.341,4.341,0,0,1-.147,1.032,2.578,2.578,0,0,1-.638,1.031,4.293,4.293,0,0,1-1.327.786,7.06,7.06,0,0,1-2.21.295,6.649,6.649,0,0,1-2.21-.295,2.878,2.878,0,0,1-1.326-.786,1.925,1.925,0,0,1-.639-1.031,4.027,4.027,0,0,1-.147-1.032v-7.662a3.427,3.427,0,0,1,.245-1.228,2.492,2.492,0,0,1,.786-.982,4.51,4.51,0,0,1,1.375-.688,7.682,7.682,0,0,1,1.965-.245,5.123,5.123,0,0,1,3.34.884,2.791,2.791,0,0,1,1.032,2.21v.638Z"/><path class="a" d="M561.406,249.383v.393a7.34,7.34,0,0,1-.1.835,2.107,2.107,0,0,1-.541,1.032,3.475,3.475,0,0,1-1.326.884,7.564,7.564,0,0,1-4.813,0,3.488,3.488,0,0,1-1.327-.884,2.113,2.113,0,0,1-.54-1.032,7.337,7.337,0,0,1-.1-.835v-7.662c0-.2.049-.442.1-.835a2.113,2.113,0,0,1,.54-1.032,3.488,3.488,0,0,1,1.327-.884,7.564,7.564,0,0,1,4.813,0,3.475,3.475,0,0,1,1.326.884,2.107,2.107,0,0,1,.541,1.032,7.34,7.34,0,0,1,.1.835Zm-2.161-.245v-6.582a1.715,1.715,0,0,0-.1-.491.827.827,0,0,0-.343-.491,1.8,1.8,0,0,0-.688-.393,3.81,3.81,0,0,0-1.179-.148,3.686,3.686,0,0,0-1.13.148,1.571,1.571,0,0,0-.638.393,1.168,1.168,0,0,0-.3.54,1.845,1.845,0,0,0-.049.491v6.778a1.841,1.841,0,0,0,.049.491,1.482,1.482,0,0,0,.3.541,2.038,2.038,0,0,0,.638.393,3.507,3.507,0,0,0,1.13.147,3.845,3.845,0,0,0,1.179-.147,1.83,1.83,0,0,0,.688-.393,1.506,1.506,0,0,0,.343-.491,2.125,2.125,0,0,0,.1-.492Z"/><path class="a" d="M578.7,252.723h-2.21V242.556a1.673,1.673,0,0,0-.049-.491,1.481,1.481,0,0,0-.295-.541,1.593,1.593,0,0,0-.638-.393,3.72,3.72,0,0,0-1.13-.147,3.846,3.846,0,0,0-1.179.147,1.831,1.831,0,0,0-.688.393,1.5,1.5,0,0,0-.343.492,2.105,2.105,0,0,0-.1.491v10.216h-2.21V242.556a1.673,1.673,0,0,0-.049-.491,1.468,1.468,0,0,0-.295-.541,1.593,1.593,0,0,0-.638-.393,3.72,3.72,0,0,0-1.13-.147,3.845,3.845,0,0,0-1.179.147,1.818,1.818,0,0,0-.687.393,1.489,1.489,0,0,0-.344.492,2.16,2.16,0,0,0-.1.491v10.216h-2.161V242.212a7.186,7.186,0,0,1,.1-.835,2.1,2.1,0,0,1,.54-1.031,3.468,3.468,0,0,1,1.326-.884,6.277,6.277,0,0,1,2.407-.393,7.256,7.256,0,0,1,2.014.245,1.677,1.677,0,0,0,2.554,0,7.515,7.515,0,0,1,2.014-.245,6.275,6.275,0,0,1,2.406.393,3.453,3.453,0,0,1,1.326.884,2.1,2.1,0,0,1,.541,1.031,7.377,7.377,0,0,1,.1.835v10.511Z"/><path class="a" d="M521.572,239.265h2.161v13.458h-2.161Z"/><path class="a" d="M523.585,233.862v2.652h-2.21v-2.652Z"/></g></svg>