<svg xmlns="http://www.w3.org/2000/svg" xmlns:xlink="http://www.w3.org/1999/xlink" width="134.991" height="35.955" viewBox="0 0 134.991 35.955"><defs><style>.a{fill:#fff;}.b{clip-path:url(#a);}.c{fill:#383838;}.d{fill:#393939;}</style><clipPath id="a"><circle class="a" cx="12.668" cy="12.668" r="12.668"/></clipPath></defs><g transform="translate(-17.26 -3.562)"><g transform="translate(17.26 10.786)"><path class="a" d="M45.991,53.682A14.365,14.365,0,1,1,31.625,39.317,14.37,14.37,0,0,1,45.991,53.682Z" transform="translate(-17.26 -39.317)"/></g><g transform="translate(18.755 12.281)"><g transform="translate(0.202 0.202)"><circle class="a" cx="12.668" cy="12.668" r="12.668"/><g class="b"><rect class="a" width="25.357" height="25.357" transform="translate(-0.02)"/></g><circle class="a" cx="12.668" cy="12.668" r="12.668"/><g class="b"><circle class="a" cx="12.668" cy="12.668" r="12.668"/></g><circle class="a" cx="12.668" cy="12.668" r="12.668"/><g class="b"><circle class="a" cx="12.547" cy="12.547" r="12.547" transform="translate(0.04 0.061)"/></g><circle class="a" cx="12.668" cy="12.668" r="12.668"/><g class="b"><circle class="a" cx="12.446" cy="12.446" r="12.446" transform="translate(0.081 0.081)"/></g><circle class="a" cx="12.668" cy="12.668" r="12.668"/><g class="b"><circle class="a" cx="12.325" cy="12.325" r="12.325" transform="translate(0.141 0.121)"/></g><circle class="a" cx="12.668" cy="12.668" r="12.668"/><g class="b"><circle class="a" cx="12.204" cy="12.204" r="12.204" transform="translate(0.182 0.162)"/></g><circle class="a" cx="12.668" cy="12.668" r="12.668"/><g class="b"><circle class="a" cx="12.082" cy="12.082" r="12.082" transform="translate(0.242 0.222)"/></g><circle class="a" cx="12.668" cy="12.668" r="12.668"/><g class="b"><circle class="a" cx="11.961" cy="11.961" r="11.961" transform="translate(0.283 0.263)"/></g><circle class="a" cx="12.668" cy="12.668" r="12.668"/><g class="b"><circle class="a" cx="11.86" cy="11.86" r="11.86" transform="translate(0.323 0.283)"/></g><circle class="a" cx="12.668" cy="12.668" r="12.668"/><g class="b"><circle class="a" cx="11.739" cy="11.739" r="11.739" transform="translate(0.384 0.323)"/></g><circle class="a" cx="12.668" cy="12.668" r="12.668"/><g class="b"><circle class="a" cx="11.618" cy="11.618" r="11.618" transform="translate(0.424 0.384)"/></g><circle class="a" cx="12.668" cy="12.668" r="12.668"/><g class="b"><circle class="a" cx="11.496" cy="11.496" r="11.496" transform="translate(0.485 0.424)"/></g><circle class="a" cx="12.668" cy="12.668" r="12.668"/><g class="b"><circle class="a" cx="11.375" cy="11.375" r="11.375" transform="translate(0.546 0.465)"/></g><circle class="a" cx="12.668" cy="12.668" r="12.668"/><g class="b"><circle class="a" cx="11.254" cy="11.254" r="11.254" transform="translate(0.586 0.525)"/></g><circle class="a" cx="12.668" cy="12.668" r="12.668"/><g class="b"><circle class="a" cx="11.153" cy="11.153" r="11.153" transform="translate(0.626 0.546)"/></g><circle class="a" cx="12.668" cy="12.668" r="12.668"/><g class="b"><circle class="a" cx="11.032" cy="11.032" r="11.032" transform="translate(0.687 0.586)"/></g><circle class="a" cx="12.668" cy="12.668" r="12.668"/><g class="b"><circle class="a" cx="10.91" cy="10.91" r="10.91" transform="translate(0.727 0.626)"/></g><circle class="a" cx="12.668" cy="12.668" r="12.668"/><g class="b"><circle class="a" cx="10.789" cy="10.789" r="10.789" transform="translate(0.788 0.687)"/></g><circle class="a" cx="12.668" cy="12.668" r="12.668"/><g class="b"><circle class="a" cx="10.668" cy="10.668" r="10.668" transform="translate(0.849 0.727)"/></g><circle class="a" cx="12.668" cy="12.668" r="12.668"/><g class="b"><circle class="a" cx="10.567" cy="10.567" r="10.567" transform="translate(0.869 0.748)"/></g><circle class="a" cx="12.668" cy="12.668" r="12.668"/><g class="b"><circle class="a" cx="10.446" cy="10.446" r="10.446" transform="translate(0.929 0.808)"/></g><circle class="a" cx="12.668" cy="12.668" r="12.668"/><g class="b"><circle class="a" cx="10.325" cy="10.325" r="10.325" transform="translate(0.99 0.849)"/></g><circle class="a" cx="12.668" cy="12.668" r="12.668"/><g class="b"><circle class="a" cx="10.203" cy="10.203" r="10.203" transform="translate(1.03 0.889)"/></g><circle class="a" cx="12.668" cy="12.668" r="12.668"/><g class="b"><circle class="a" cx="10.082" cy="10.082" r="10.082" transform="translate(1.091 0.929)"/></g><circle class="a" cx="12.668" cy="12.668" r="12.668"/><g class="b"><circle class="a" cx="9.961" cy="9.961" r="9.961" transform="translate(1.131 0.99)"/></g><circle class="a" cx="12.668" cy="12.668" r="12.668"/><g class="b"><circle class="a" cx="9.86" cy="9.86" r="9.86" transform="translate(1.172 1.01)"/></g><circle class="a" cx="12.668" cy="12.668" r="12.668"/><g class="b"><circle class="a" cx="9.739" cy="9.739" r="9.739" transform="translate(1.232 1.051)"/></g><circle class="a" cx="12.668" cy="12.668" r="12.668"/><g class="b"><circle class="a" cx="9.617" cy="9.617" r="9.617" transform="translate(1.273 1.091)"/></g><circle class="a" cx="12.668" cy="12.668" r="12.668"/><g class="b"><circle class="a" cx="9.496" cy="9.496" r="9.496" transform="translate(1.333 1.152)"/></g><circle class="a" cx="12.668" cy="12.668" r="12.668"/><g class="b"><circle class="a" cx="9.375" cy="9.375" r="9.375" transform="translate(1.394 1.192)"/></g><circle class="a" cx="12.668" cy="12.668" r="12.668"/><g class="b"><circle class="a" cx="9.254" cy="9.254" r="9.254" transform="translate(1.435 1.232)"/></g><circle class="a" cx="12.668" cy="12.668" r="12.668"/><g class="b"><circle class="a" cx="9.153" cy="9.153" r="9.153" transform="translate(1.475 1.273)"/></g><circle class="a" cx="12.668" cy="12.668" r="12.668"/><g class="b"><circle class="a" cx="9.031" cy="9.031" r="9.031" transform="translate(1.536 1.313)"/></g><circle class="a" cx="12.668" cy="12.668" r="12.668"/><g class="b"><circle class="a" cx="8.91" cy="8.91" r="8.91" transform="matrix(0.082, -0.997, 0.997, 0.082, 0.871, 18.409)"/></g><circle class="a" cx="12.668" cy="12.668" r="12.668"/><g class="b"><circle class="a" cx="8.789" cy="8.789" r="8.789" transform="translate(1.637 1.394)"/></g><circle class="a" cx="12.668" cy="12.668" r="12.668"/><g class="b"><circle class="a" cx="8.668" cy="8.668" r="8.668" transform="translate(1.697 1.455)"/></g><circle class="a" cx="12.668" cy="12.668" r="12.668"/><g class="b"><circle class="a" cx="8.567" cy="8.567" r="8.567" transform="translate(1.04 17.873) rotate(-85.269)"/></g><circle class="a" cx="12.668" cy="12.668" r="12.668"/><g class="b"><circle class="a" cx="8.445" cy="8.445" r="8.445" transform="translate(1.778 1.515)"/></g><circle class="a" cx="12.668" cy="12.668" r="12.668"/><g class="b"><circle class="a" cx="8.324" cy="8.324" r="8.324" transform="translate(1.818 1.556)"/></g><circle class="a" cx="12.668" cy="12.668" r="12.668"/><g class="b"><circle class="a" cx="8.203" cy="8.203" r="8.203" transform="translate(1.879 1.616)"/></g><circle class="a" cx="12.668" cy="12.668" r="12.668"/><g class="b"><circle class="a" cx="8.082" cy="8.082" r="8.082" transform="translate(1.94 1.657)"/></g><circle class="a" cx="12.668" cy="12.668" r="12.668"/><g class="b"><circle class="a" cx="7.961" cy="7.961" r="7.961" transform="translate(1.98 1.697)"/></g><circle class="a" cx="12.668" cy="12.668" r="12.668"/><g class="b"><circle class="a" cx="7.86" cy="7.86" r="7.86" transform="translate(2.02 1.738)"/></g><circle class="a" cx="12.668" cy="12.668" r="12.668"/><g class="b"><circle class="a" cx="7.738" cy="7.738" r="7.738" transform="translate(2.081 1.778)"/></g><circle class="a" cx="12.668" cy="12.668" r="12.668"/><g class="b"><circle class="a" cx="7.617" cy="7.617" r="7.617" transform="translate(2.121 1.818)"/></g><circle class="a" cx="12.668" cy="12.668" r="12.668"/><g class="b"><circle class="a" cx="7.496" cy="7.496" r="7.496" transform="matrix(0.082, -0.997, 0.997, 0.082, 1.589, 16.207)"/></g><circle class="a" cx="12.668" cy="12.668" r="12.668"/><g class="b"><circle class="a" cx="7.375" cy="7.375" r="7.375" transform="translate(2.243 1.919)"/></g><circle class="a" cx="12.668" cy="12.668" r="12.668"/><g class="b"><circle class="a" cx="7.253" cy="7.253" r="7.253" transform="matrix(0.082, -0.997, 0.997, 0.082, 1.71, 15.844)"/></g><circle class="a" cx="12.668" cy="12.668" r="12.668"/><g class="b"><circle class="a" cx="7.152" cy="7.152" r="7.152" transform="translate(2.324 1.98)"/></g><circle class="a" cx="12.668" cy="12.668" r="12.668"/><g class="b"><circle class="a" cx="7.031" cy="7.031" r="7.031" transform="translate(2.384 2.041)"/></g><circle class="a" cx="12.668" cy="12.668" r="12.668"/><g class="b"><circle class="a" cx="6.91" cy="6.91" r="6.91" transform="translate(2.425 2.081)"/></g><circle class="a" cx="12.668" cy="12.668" r="12.668"/><g class="b"><circle class="a" cx="6.789" cy="6.789" r="6.789" transform="translate(2.009 15.197) rotate(-85.269)"/></g><circle class="a" cx="12.668" cy="12.668" r="12.668"/><g class="b"><circle class="a" cx="6.526" cy="6.526" r="6.526" transform="translate(2.647 2.283)"/></g><circle class="a" cx="12.668" cy="12.668" r="12.668"/><g class="b"><circle class="a" cx="6.243" cy="6.243" r="6.243" transform="translate(2.768 2.384)"/></g><circle class="a" cx="12.668" cy="12.668" r="12.668"/><g class="b"><circle class="a" cx="5.981" cy="5.981" r="5.981" transform="translate(2.869 2.465)"/></g><circle class="a" cx="12.668" cy="12.668" r="12.668"/><g class="b"><circle class="a" cx="5.698" cy="5.698" r="5.698" transform="translate(3.01 2.586)"/></g><circle class="a" cx="12.668" cy="12.668" r="12.668"/><g class="b"><circle class="a" cx="5.435" cy="5.435" r="5.435" transform="translate(3.111 2.667)"/></g><circle class="a" cx="12.668" cy="12.668" r="12.668"/><g class="b"><circle class="a" cx="5.152" cy="5.152" r="5.152" transform="translate(3.233 2.768)"/></g><circle class="a" cx="12.668" cy="12.668" r="12.668"/><g class="b"><circle class="a" cx="4.889" cy="4.889" r="4.889" transform="translate(3.334 2.849)"/></g><circle class="a" cx="12.668" cy="12.668" r="12.668"/><g class="b"><circle class="a" cx="4.627" cy="4.627" r="4.627" transform="translate(3.435 2.95)"/></g><circle class="a" cx="12.668" cy="12.668" r="12.668"/><g class="b"><circle class="a" cx="4.344" cy="4.344" r="4.344" transform="translate(3.556 3.051)"/></g><circle class="a" cx="12.668" cy="12.668" r="12.668"/><g class="b"><circle class="a" cx="4.081" cy="4.081" r="4.081" transform="translate(3.657 3.132)"/></g><circle class="a" cx="12.668" cy="12.668" r="12.668"/><g class="b"><circle class="a" cx="3.798" cy="3.798" r="3.798" transform="translate(3.778 3.233)"/></g><circle class="a" cx="12.668" cy="12.668" r="12.668"/><g class="b"><circle class="a" cx="3.536" cy="3.536" r="3.536" transform="translate(3.879 3.314)"/></g><circle class="a" cx="12.668" cy="12.668" r="12.668"/><g class="b"><circle class="a" cx="3.253" cy="3.253" r="3.253" transform="translate(4 3.435)"/></g><circle class="a" cx="12.668" cy="12.668" r="12.668"/><g class="b"><circle class="a" cx="2.99" cy="2.99" r="2.99" transform="translate(4.102 3.516)"/></g><circle class="a" cx="12.668" cy="12.668" r="12.668"/><g class="b"><circle class="a" cx="2.707" cy="2.707" r="2.707" transform="translate(4.243 3.617)"/></g><circle class="a" cx="12.668" cy="12.668" r="12.668"/><g class="b"><circle class="a" cx="2.445" cy="2.445" r="2.445" transform="translate(4.344 3.697)"/></g><circle class="a" cx="12.668" cy="12.668" r="12.668"/><g class="b"><circle class="a" cx="2.182" cy="2.182" r="2.182" transform="translate(4.445 3.798)"/></g><circle class="a" cx="12.668" cy="12.668" r="12.668"/><g class="b"><circle class="a" cx="1.899" cy="1.899" r="1.899" transform="translate(4.566 3.899)"/></g><circle class="a" cx="12.668" cy="12.668" r="12.668"/><g class="b"><circle class="a" cx="1.637" cy="1.637" r="1.637" transform="translate(4.667 3.98)"/></g><circle class="a" cx="12.668" cy="12.668" r="12.668"/><g class="b"><circle class="a" cx="1.354" cy="1.354" r="1.354" transform="translate(4.788 4.081)"/></g><circle class="a" cx="12.668" cy="12.668" r="12.668"/><g class="b"><circle class="a" cx="1.091" cy="1.091" r="1.091" transform="translate(4.889 4.162)"/></g><circle class="a" cx="12.668" cy="12.668" r="12.668"/><g class="b"><circle class="a" cx="0.808" cy="0.808" r="0.808" transform="translate(5.011 4.283)"/></g><circle class="a" cx="12.668" cy="12.668" r="12.668"/><g class="b"><circle class="a" cx="0.546" cy="0.546" r="0.546" transform="translate(5.112 4.364)"/></g><circle class="a" cx="12.668" cy="12.668" r="12.668"/><g class="b"><circle class="a" cx="0.263" cy="0.263" r="0.263" transform="translate(5.233 4.465)"/></g></g><path class="c" d="M37.53,72.458A12.87,12.87,0,1,1,50.4,59.587,12.891,12.891,0,0,1,37.53,72.458Zm0-25.357A12.486,12.486,0,1,0,50.017,59.587,12.494,12.494,0,0,0,37.53,47.1Z" transform="translate(-24.66 -46.717)"/></g><g transform="translate(26.773 3.562)"><path class="a" d="M75.8,5.715a2.64,2.64,0,0,1-.3-.242,1.38,1.38,0,0,1-.364-.465c-.04-.121-.1-.323-.1-.323l-.283-.263a1.232,1.232,0,0,0,.283-.626c-.02-.081-.081.02-.081.02a1.22,1.22,0,0,1-.364.444h-.02L74.508,4.2v-.02a1.175,1.175,0,0,0,.263-.586c-.02-.081-.081.02-.081.02a1.332,1.332,0,0,1-.343.424.353.353,0,0,0-.222-.02A1.265,1.265,0,0,0,73.8,4.1a.164.164,0,0,0-.162.02.347.347,0,0,0-.081.121l.04.081a3.007,3.007,0,0,1-.566.364c-.242.081-.768.222-.909.283a1.631,1.631,0,0,1-.263.121s-1.879.1-2.505.1c-.647,0-1.293-.061-1.475-.081a7.248,7.248,0,0,0-1.172-.141h0s-1.637-.283-1.6,1.051a4,4,0,0,0,.04.606,3.738,3.738,0,0,1-.04,1.131s-.2.4-.343.465a.86.86,0,0,0-.364,1.051,1.1,1.1,0,0,0,.768-1.152,3.309,3.309,0,0,1,.343-.788,1.46,1.46,0,0,0,.141.546h0A.275.275,0,0,0,65.719,8s.2.242.121.444a.763.763,0,0,1-.141.384,1.2,1.2,0,0,0-.1.465,1.726,1.726,0,0,1,.02.505,2.2,2.2,0,0,1-.121.586c-.061.182-.081.263,0,.343.061.061.141.061.162.141s0,.162.061.222a.51.51,0,0,0,.364.141c.182-.02.364.04.323-.061-.061-.081-.182-.162-.222-.242a.465.465,0,0,0-.141-.162.728.728,0,0,1-.141-.485,1.932,1.932,0,0,1,.1-.707c.1-.162.141-.323.222-.465.061-.162.061,0,.1.1.04.121.2.364.263.546a6.1,6.1,0,0,1,.182.707c0,.141-.061.242.04.182.081-.04.162-.1.2-.02.061.061.081.182.2.242a1.087,1.087,0,0,0,.445.081c.141,0,.162.02.1-.061-.061-.1-.2-.182-.263-.263a2.05,2.05,0,0,0-.283-.242,1.731,1.731,0,0,1-.242-.687,3.73,3.73,0,0,1-.081-.465V8.968l.323-.121.02.061s-.02-.04,0,.04c.04.061.061.1.061.061a.824.824,0,0,0,.04-.141,1.86,1.86,0,0,0,.061.182c.02.061.061.061.061.061a.311.311,0,0,0,.04-.162c.02-.121,0-.162.061-.162a1.158,1.158,0,0,0,.263-.141,1.237,1.237,0,0,0,.121-.1,1.907,1.907,0,0,1,.364.04c.162.061.323.2.485.182.162,0,.566-.081.748-.081s.525-.2.707-.2c.182-.02.485-.061.485-.061a4.807,4.807,0,0,0-.02.647,4.29,4.29,0,0,1,.061.869c-.04.182-.1.525-.121.626s0,.121,0,.121h.061l.04-.061a.292.292,0,0,1,.141.222c.02.162-.02.242.1.242.1,0,.445-.02.445-.02s.04.121.242.141c.162.04.444.061.465,0,0-.061-.081-.162-.2-.263-.1-.1-.263-.121-.3-.364-.02-.263-.04-.424-.04-.586a2.352,2.352,0,0,0,.02-.263,1.13,1.13,0,0,0,.121-.364c.02-.182-.02-.323.061-.4a2.162,2.162,0,0,0,.424-.424l.02-.02c.121-.161.364-.424.465-.586a1.392,1.392,0,0,0,.061-.162,7.654,7.654,0,0,0,.384-.808c.1-.141.222-.3.3-.444a1.121,1.121,0,0,1,.121-.162c.182-.222.4-.444.546-.424a1.239,1.239,0,0,0,.3.04,4.229,4.229,0,0,1,.485-.02c.162.02.242.061.364.081.141.02.343.04.384-.04C75.761,6.018,75.821,5.775,75.8,5.715Zm-4.546,5.051a.511.511,0,0,0-.081-.182c-.081-.162-.061-.182,0-.586s.081-.566.081-.566l.081.525A3.4,3.4,0,0,1,71.255,10.766ZM74.549,4.28l.02.02h0Z" transform="translate(-64.342 -3.562)"/></g><g transform="translate(49.858 17.982)"><g transform="translate(0 0.235)"><path class="a" d="M183.993,82.624a1.5,1.5,0,0,1,.938.508,2.146,2.146,0,0,1,.274.352,1.172,1.172,0,0,1,.156.391,2.07,2.07,0,0,1,.039.508v4.183a4.5,4.5,0,0,1-.078.626,1.427,1.427,0,0,1-.43.782,2.919,2.919,0,0,1-1.016.7,5.007,5.007,0,0,1-1.877.274,4.875,4.875,0,0,1-1.877-.274,2.59,2.59,0,0,1-1.016-.7,2.086,2.086,0,0,1-.43-.821,5.384,5.384,0,0,1-.078-.626V78.519a5.384,5.384,0,0,1,.078-.626,1.679,1.679,0,0,1,.43-.821,2.923,2.923,0,0,1,1.016-.7A5.011,5.011,0,0,1,182,76.1a4.88,4.88,0,0,1,1.877.274,2.6,2.6,0,0,1,1.016.7,2.086,2.086,0,0,1,.43.821,5.33,5.33,0,0,1,.078.626v.508h-1.72v-.235a1.714,1.714,0,0,0-.078-.391.809.809,0,0,0-.235-.391,1.439,1.439,0,0,0-.547-.313,3.051,3.051,0,0,0-.938-.117,2.528,2.528,0,0,0-.86.117,1.256,1.256,0,0,0-.508.313.929.929,0,0,0-.235.43,1.463,1.463,0,0,0-.039.391v9.383a1.463,1.463,0,0,0,.039.391.81.81,0,0,0,.235.391,1.258,1.258,0,0,0,.508.313,2.687,2.687,0,0,0,.86.117,3.051,3.051,0,0,0,.938-.117,1.831,1.831,0,0,0,.547-.313.81.81,0,0,0,.235-.391,1.975,1.975,0,0,0,.078-.352v-3.01a2.083,2.083,0,0,0-.039-.547c-.039-.156-.078-.235-.2-.274a1.808,1.808,0,0,0-.547-.078,3.168,3.168,0,0,0-.938.117V82.624s.313-.039.508-.039C182.469,82.624,183.094,82.546,183.993,82.624Z" transform="translate(-178.598 -76.095)"/></g><g transform="translate(8.21 4.105)"><path class="a" d="M222.6,95.252a4.156,4.156,0,0,1,2.659.7,2.26,2.26,0,0,1,.86,1.759v6.06a3.448,3.448,0,0,1-.117.821,2.049,2.049,0,0,1-.508.821,3.431,3.431,0,0,1-1.056.626,5.635,5.635,0,0,1-1.759.235,5.307,5.307,0,0,1-1.759-.235,2.3,2.3,0,0,1-1.055-.626,1.536,1.536,0,0,1-.508-.821,3.2,3.2,0,0,1-.117-.821V102.8a2.552,2.552,0,0,1,.391-1.408,2.141,2.141,0,0,1,1.134-.9,7.583,7.583,0,0,1,.86-.274c.313-.117.626-.235.9-.313.313-.117.547-.2.782-.274a3.909,3.909,0,0,0,.43-.156.639.639,0,0,1,.235-.117,1.244,1.244,0,0,0,.274-.235,2.163,2.163,0,0,0,.235-.313.773.773,0,0,0,.078-.43v-.391a1.667,1.667,0,0,0-.078-.43.894.894,0,0,0-.274-.391,1.831,1.831,0,0,0-.547-.313,2.686,2.686,0,0,0-.86-.117,1.725,1.725,0,0,0-1.368.43,1.531,1.531,0,0,0-.352,1.016h-1.759v-.508a2.725,2.725,0,0,1,.2-.977,1.988,1.988,0,0,1,.626-.782,3.584,3.584,0,0,1,1.095-.547A8.336,8.336,0,0,1,222.6,95.252Zm1.759,5.473a.44.44,0,0,1-.2.313,1.176,1.176,0,0,1-.313.156c-.2.078-.43.156-.665.235s-.469.156-.665.235l-.7.235a2.909,2.909,0,0,0-.469.274,2.073,2.073,0,0,0-.352.43,1.119,1.119,0,0,0-.156.665,1.751,1.751,0,0,0,.352,1.173,1.966,1.966,0,0,0,1.368.391,1.9,1.9,0,0,0,1.407-.391,1.711,1.711,0,0,0,.352-1.134v-2.58Z" transform="translate(-219.234 -95.252)"/></g><g transform="translate(16.538 4.144)"><path class="a" d="M267.487,106.314h-1.759V98.221a1.333,1.333,0,0,0-.039-.391,1.177,1.177,0,0,0-.235-.43,1.61,1.61,0,0,0-.508-.313,2.782,2.782,0,0,0-.9-.117,3.051,3.051,0,0,0-.938.117,1.442,1.442,0,0,0-.547.313,1.194,1.194,0,0,0-.274.391,1.727,1.727,0,0,0-.078.391v8.132H260.45V97.947a5.813,5.813,0,0,1,.078-.665,1.677,1.677,0,0,1,.43-.821,2.767,2.767,0,0,1,1.056-.7,6.023,6.023,0,0,1,3.831,0,2.765,2.765,0,0,1,1.055.7,1.679,1.679,0,0,1,.43.821,5.855,5.855,0,0,1,.078.665v8.367Z" transform="translate(-260.45 -95.445)"/></g><g transform="translate(25.178 4.105)"><path class="a" d="M306.576,95.252a4.156,4.156,0,0,1,2.659.7,2.26,2.26,0,0,1,.86,1.759v6.06a3.448,3.448,0,0,1-.117.821,2.049,2.049,0,0,1-.508.821,3.431,3.431,0,0,1-1.056.626,5.635,5.635,0,0,1-1.759.235,5.307,5.307,0,0,1-1.759-.235,2.3,2.3,0,0,1-1.055-.626,1.536,1.536,0,0,1-.508-.821,3.2,3.2,0,0,1-.117-.821V102.8a2.552,2.552,0,0,1,.391-1.408,2.141,2.141,0,0,1,1.134-.9,7.585,7.585,0,0,1,.86-.274c.313-.117.626-.235.9-.313.313-.117.547-.2.782-.274a3.908,3.908,0,0,0,.43-.156.639.639,0,0,1,.235-.117,1.244,1.244,0,0,0,.274-.235,2.161,2.161,0,0,0,.235-.313.773.773,0,0,0,.078-.43v-.391a1.667,1.667,0,0,0-.078-.43.9.9,0,0,0-.274-.391,1.831,1.831,0,0,0-.547-.313,2.687,2.687,0,0,0-.86-.117,1.726,1.726,0,0,0-1.368.43,1.532,1.532,0,0,0-.352,1.016h-1.759v-.508a2.724,2.724,0,0,1,.2-.977,1.987,1.987,0,0,1,.626-.782,3.584,3.584,0,0,1,1.095-.547A8.814,8.814,0,0,1,306.576,95.252Zm1.8,5.473a.44.44,0,0,1-.2.313,1.17,1.17,0,0,1-.313.156c-.2.078-.43.156-.665.235s-.469.156-.665.235l-.7.235a2.909,2.909,0,0,0-.469.274,2.073,2.073,0,0,0-.352.43,1.118,1.118,0,0,0-.156.665,1.751,1.751,0,0,0,.352,1.173,1.967,1.967,0,0,0,1.368.391,1.9,1.9,0,0,0,1.407-.391,1.711,1.711,0,0,0,.352-1.134v-2.58Z" transform="translate(-303.214 -95.252)"/></g><g transform="translate(33.545 0.078)"><path class="a" d="M351.621,87.949a2.261,2.261,0,0,1-.86,1.759,4.034,4.034,0,0,1-2.62.7,6.413,6.413,0,0,1-1.6-.2,2.878,2.878,0,0,1-1.095-.547,2.3,2.3,0,0,1-.626-.782,2.72,2.72,0,0,1-.2-.977V87.4h.039V83.218h-.039v-.469a2.554,2.554,0,0,1,.391-1.407,2.091,2.091,0,0,1,1.173-.9,7.578,7.578,0,0,1,.86-.274c.313-.117.626-.235.9-.313.274-.117.547-.2.743-.274a3.92,3.92,0,0,0,.43-.156.635.635,0,0,1,.235-.117,1.239,1.239,0,0,0,.274-.235,2.163,2.163,0,0,0,.235-.313.773.773,0,0,0,.078-.43v-3.01H351.7V87.949Zm-3.519.938a2.687,2.687,0,0,0,.86-.117,1.26,1.26,0,0,0,.547-.313,1.013,1.013,0,0,0,.274-.43,2.01,2.01,0,0,0,.078-.43v-7c-.039.156-.078.274-.2.313a1.177,1.177,0,0,1-.313.156c-.2.078-.43.156-.665.235s-.469.156-.665.235l-.7.235a1.636,1.636,0,0,0-.469.313,2.072,2.072,0,0,0-.352.43,1.119,1.119,0,0,0-.156.665v4.379a1.082,1.082,0,0,0,.117.508,1.614,1.614,0,0,0,.274.43,1.441,1.441,0,0,0,.547.313A4.871,4.871,0,0,0,348.1,88.887Z" transform="translate(-344.623 -75.321)"/></g><g transform="translate(42.068 4.105)"><path class="a" d="M390.286,95.252a5,5,0,0,1,1.916.313,2.761,2.761,0,0,1,1.055.7,1.678,1.678,0,0,1,.43.821,5.821,5.821,0,0,1,.078.665v1.016a2.921,2.921,0,0,1-.117.782,2.777,2.777,0,0,1-.626.938,1.488,1.488,0,0,1-.508.352,4.416,4.416,0,0,1-.508.2,2.645,2.645,0,0,1-.547.078H389.9a1.271,1.271,0,0,0-.938.391,1.333,1.333,0,0,0-.43.978v.938a1.541,1.541,0,0,0,.2.782.576.576,0,0,0,.2.235,1.083,1.083,0,0,0,.313.2,2.56,2.56,0,0,0,.43.156,2.8,2.8,0,0,0,.665.078,2.687,2.687,0,0,0,.86-.117c.2-.078.352-.156.43-.2a.869.869,0,0,0,.352-.508,1.621,1.621,0,0,0,.117-.626h1.759v.508a2.281,2.281,0,0,1-.235,1.016,2.1,2.1,0,0,1-.743.821,3.3,3.3,0,0,1-.977.43,5.867,5.867,0,0,1-1.564.2,5.538,5.538,0,0,1-1.212-.117,4.9,4.9,0,0,1-.9-.274,2.443,2.443,0,0,1-.626-.391,4.706,4.706,0,0,1-.43-.469,2.233,2.233,0,0,1-.352-1.251v-6.1a5.813,5.813,0,0,1,.078-.665,1.677,1.677,0,0,1,.43-.821,2.767,2.767,0,0,1,1.056-.7A4.3,4.3,0,0,1,390.286,95.252Zm1.759,3.01v-.2a1.326,1.326,0,0,0-.039-.391,1.172,1.172,0,0,0-.235-.43,1.609,1.609,0,0,0-.508-.313,2.783,2.783,0,0,0-.9-.117,3.051,3.051,0,0,0-.938.117,1.444,1.444,0,0,0-.547.313,1.193,1.193,0,0,0-.274.391,1.717,1.717,0,0,0-.078.391v2.15a.537.537,0,0,1,.2-.313.785.785,0,0,1,.313-.156,1.139,1.139,0,0,1,.352-.078,2.2,2.2,0,0,0,.274-.039h1.173a1.2,1.2,0,0,0,1.173-1.173v-.156Z" transform="translate(-386.807 -95.252)"/></g><g transform="translate(50.2 4.144)"><path class="a" d="M430.535,95.445h.626a2.762,2.762,0,0,1,.547.039l-.391,1.486H430.5a2.058,2.058,0,0,0-.9.156.993.993,0,0,0-.508.352.934.934,0,0,0-.235.43,1.47,1.47,0,0,0-.039.391v8.054h-1.759V97.986c0-.156.039-.352.078-.665a1.678,1.678,0,0,1,.43-.821,2.761,2.761,0,0,1,1.055-.7A4.182,4.182,0,0,1,430.535,95.445Z" transform="translate(-427.055 -95.445)"/></g><g transform="translate(61.577 4.105)"><path class="a" d="M486.726,95.252a4.156,4.156,0,0,1,2.659.7,2.26,2.26,0,0,1,.86,1.759v6.06a3.448,3.448,0,0,1-.117.821,2.049,2.049,0,0,1-.508.821,3.431,3.431,0,0,1-1.056.626,5.636,5.636,0,0,1-1.759.235,5.306,5.306,0,0,1-1.759-.235,2.3,2.3,0,0,1-1.056-.626,1.536,1.536,0,0,1-.508-.821,3.2,3.2,0,0,1-.117-.821V102.8a2.554,2.554,0,0,1,.391-1.408,2.142,2.142,0,0,1,1.134-.9,7.573,7.573,0,0,1,.86-.274c.313-.117.626-.235.9-.313.313-.117.547-.2.782-.274a3.912,3.912,0,0,0,.43-.156.635.635,0,0,1,.235-.117,1.244,1.244,0,0,0,.274-.235,2.163,2.163,0,0,0,.235-.313.772.772,0,0,0,.078-.43v-.391a1.668,1.668,0,0,0-.078-.43.9.9,0,0,0-.274-.391,1.831,1.831,0,0,0-.547-.313,2.688,2.688,0,0,0-.86-.117,1.726,1.726,0,0,0-1.368.43,1.531,1.531,0,0,0-.352,1.016h-1.759v-.508a2.721,2.721,0,0,1,.2-.977,1.984,1.984,0,0,1,.626-.782,3.58,3.58,0,0,1,1.095-.547A7.887,7.887,0,0,1,486.726,95.252Zm1.759,5.473a.44.44,0,0,1-.2.313,1.174,1.174,0,0,1-.313.156c-.2.078-.43.156-.665.235s-.469.156-.665.235l-.7.235a2.912,2.912,0,0,0-.469.274,2.073,2.073,0,0,0-.352.43,1.118,1.118,0,0,0-.156.665,1.752,1.752,0,0,0,.352,1.173,1.967,1.967,0,0,0,1.368.391,1.9,1.9,0,0,0,1.407-.391,1.711,1.711,0,0,0,.352-1.134v-2.58Z" transform="translate(-483.364 -95.252)"/></g><g transform="translate(69.904 13.215)"><path class="a" d="M524.58,140.338h1.759v1.8H524.58Z" transform="translate(-524.58 -140.338)"/></g><g transform="translate(73.266 4.144)"><path class="a" d="M546.382,98.416v-.2a1.665,1.665,0,0,0-.078-.43.894.894,0,0,0-.274-.391,1.831,1.831,0,0,0-.547-.313,2.687,2.687,0,0,0-.86-.117,1.726,1.726,0,0,0-1.368.43,1.532,1.532,0,0,0-.352,1.016v5a1.752,1.752,0,0,0,.352,1.173,1.967,1.967,0,0,0,1.368.391,1.9,1.9,0,0,0,1.407-.391,1.711,1.711,0,0,0,.352-1.134h1.72v.587a3.443,3.443,0,0,1-.117.821,2.049,2.049,0,0,1-.508.821,3.431,3.431,0,0,1-1.056.626,5.635,5.635,0,0,1-1.759.235,5.307,5.307,0,0,1-1.759-.235,2.3,2.3,0,0,1-1.056-.626,1.537,1.537,0,0,1-.508-.821,3.2,3.2,0,0,1-.117-.821v-6.1a2.72,2.72,0,0,1,.2-.977,1.984,1.984,0,0,1,.626-.782,3.581,3.581,0,0,1,1.095-.547,6.092,6.092,0,0,1,1.564-.2,4.082,4.082,0,0,1,2.659.7,2.223,2.223,0,0,1,.821,1.759v.508Z" transform="translate(-541.221 -95.445)"/></g><g transform="translate(81.672 4.066)"><path class="a" d="M589.783,103.346v.313a5.857,5.857,0,0,1-.078.665,1.679,1.679,0,0,1-.43.821,2.766,2.766,0,0,1-1.055.7,6.023,6.023,0,0,1-3.831,0,2.767,2.767,0,0,1-1.056-.7,1.679,1.679,0,0,1-.43-.821,5.855,5.855,0,0,1-.078-.665v-6.1c0-.156.039-.352.078-.665a1.679,1.679,0,0,1,.43-.821,2.767,2.767,0,0,1,1.056-.7,6.023,6.023,0,0,1,3.831,0,2.766,2.766,0,0,1,1.055.7,1.679,1.679,0,0,1,.43.821,5.858,5.858,0,0,1,.078.665Zm-1.72-.2V97.912a1.391,1.391,0,0,0-.078-.391.661.661,0,0,0-.274-.391,1.439,1.439,0,0,0-.547-.313,3.051,3.051,0,0,0-.938-.117,2.951,2.951,0,0,0-.9.117,1.258,1.258,0,0,0-.508.313.933.933,0,0,0-.235.43,1.47,1.47,0,0,0-.039.391v5.4a1.47,1.47,0,0,0,.039.391,1.177,1.177,0,0,0,.235.43,1.6,1.6,0,0,0,.508.313,2.781,2.781,0,0,0,.9.117,3.05,3.05,0,0,0,.938-.117,1.439,1.439,0,0,0,.547-.313,1.19,1.19,0,0,0,.274-.391,1.725,1.725,0,0,0,.078-.391Z" transform="translate(-582.824 -95.058)"/></g><g transform="translate(90.117 4.144)"><path class="a" d="M636.9,106.314h-1.759V98.221a1.332,1.332,0,0,0-.039-.391,1.175,1.175,0,0,0-.235-.43,1.257,1.257,0,0,0-.508-.313,2.952,2.952,0,0,0-.9-.117,3.051,3.051,0,0,0-.938.117,1.443,1.443,0,0,0-.547.313,1.193,1.193,0,0,0-.274.391,1.713,1.713,0,0,0-.078.391v8.132H629.86V98.221a1.332,1.332,0,0,0-.039-.391,1.178,1.178,0,0,0-.235-.43,1.261,1.261,0,0,0-.508-.313,2.952,2.952,0,0,0-.9-.117,3.051,3.051,0,0,0-.938.117,1.442,1.442,0,0,0-.547.313,1.194,1.194,0,0,0-.274.391,1.727,1.727,0,0,0-.078.391v8.132h-1.72V97.947a5.855,5.855,0,0,1,.078-.665,1.677,1.677,0,0,1,.43-.821,2.765,2.765,0,0,1,1.055-.7,5.006,5.006,0,0,1,1.916-.313,5.752,5.752,0,0,1,1.6.2,1.336,1.336,0,0,0,2.033,0,5.964,5.964,0,0,1,1.6-.2,5.006,5.006,0,0,1,1.916.313,2.766,2.766,0,0,1,1.056.7,1.679,1.679,0,0,1,.43.821,5.855,5.855,0,0,1,.078.665v8.367Z" transform="translate(-624.621 -95.445)"/></g><g transform="translate(56.768)"><g transform="translate(0.156 4.301)"><path class="a" d="M460.337,96.219h1.72v10.712h-1.72Z" transform="translate(-460.337 -96.219)"/></g><path class="a" d="M461.322,74.934v2.111h-1.759V74.934Z" transform="translate(-459.563 -74.934)"/></g><g transform="translate(0 0.235)"><path class="a" d="M183.993,82.624a1.5,1.5,0,0,1,.938.508,2.146,2.146,0,0,1,.274.352,1.172,1.172,0,0,1,.156.391,2.07,2.07,0,0,1,.039.508v4.183a4.5,4.5,0,0,1-.078.626,1.427,1.427,0,0,1-.43.782,2.919,2.919,0,0,1-1.016.7,5.007,5.007,0,0,1-1.877.274,4.875,4.875,0,0,1-1.877-.274,2.59,2.59,0,0,1-1.016-.7,2.086,2.086,0,0,1-.43-.821,5.384,5.384,0,0,1-.078-.626V78.519a5.384,5.384,0,0,1,.078-.626,1.679,1.679,0,0,1,.43-.821,2.923,2.923,0,0,1,1.016-.7A5.011,5.011,0,0,1,182,76.1a4.88,4.88,0,0,1,1.877.274,2.6,2.6,0,0,1,1.016.7,2.086,2.086,0,0,1,.43.821,5.33,5.33,0,0,1,.078.626v.508h-1.72v-.235a1.714,1.714,0,0,0-.078-.391.809.809,0,0,0-.235-.391,1.439,1.439,0,0,0-.547-.313,3.051,3.051,0,0,0-.938-.117,2.528,2.528,0,0,0-.86.117,1.256,1.256,0,0,0-.508.313.929.929,0,0,0-.235.43,1.463,1.463,0,0,0-.039.391v9.383a1.463,1.463,0,0,0,.039.391.81.81,0,0,0,.235.391,1.258,1.258,0,0,0,.508.313,2.687,2.687,0,0,0,.86.117,3.051,3.051,0,0,0,.938-.117,1.831,1.831,0,0,0,.547-.313.81.81,0,0,0,.235-.391,1.975,1.975,0,0,0,.078-.352v-3.01a2.083,2.083,0,0,0-.039-.547c-.039-.156-.078-.235-.2-.274a1.808,1.808,0,0,0-.547-.078,3.168,3.168,0,0,0-.938.117V82.624s.313-.039.508-.039C182.469,82.624,183.094,82.546,183.993,82.624Z" transform="translate(-178.598 -76.095)"/></g><g transform="translate(8.21 4.105)"><path class="a" d="M222.6,95.252a4.156,4.156,0,0,1,2.659.7,2.26,2.26,0,0,1,.86,1.759v6.06a3.448,3.448,0,0,1-.117.821,2.049,2.049,0,0,1-.508.821,3.431,3.431,0,0,1-1.056.626,5.635,5.635,0,0,1-1.759.235,5.307,5.307,0,0,1-1.759-.235,2.3,2.3,0,0,1-1.055-.626,1.536,1.536,0,0,1-.508-.821,3.2,3.2,0,0,1-.117-.821V102.8a2.552,2.552,0,0,1,.391-1.408,2.141,2.141,0,0,1,1.134-.9,7.583,7.583,0,0,1,.86-.274c.313-.117.626-.235.9-.313.313-.117.547-.2.782-.274a3.909,3.909,0,0,0,.43-.156.639.639,0,0,1,.235-.117,1.244,1.244,0,0,0,.274-.235,2.163,2.163,0,0,0,.235-.313.773.773,0,0,0,.078-.43v-.391a1.667,1.667,0,0,0-.078-.43.894.894,0,0,0-.274-.391,1.831,1.831,0,0,0-.547-.313,2.686,2.686,0,0,0-.86-.117,1.725,1.725,0,0,0-1.368.43,1.531,1.531,0,0,0-.352,1.016h-1.759v-.508a2.725,2.725,0,0,1,.2-.977,1.988,1.988,0,0,1,.626-.782,3.584,3.584,0,0,1,1.095-.547A8.336,8.336,0,0,1,222.6,95.252Zm1.759,5.473a.44.44,0,0,1-.2.313,1.176,1.176,0,0,1-.313.156c-.2.078-.43.156-.665.235s-.469.156-.665.235l-.7.235a2.909,2.909,0,0,0-.469.274,2.073,2.073,0,0,0-.352.43,1.119,1.119,0,0,0-.156.665,1.751,1.751,0,0,0,.352,1.173,1.966,1.966,0,0,0,1.368.391,1.9,1.9,0,0,0,1.407-.391,1.711,1.711,0,0,0,.352-1.134v-2.58Z" transform="translate(-219.234 -95.252)"/></g><g transform="translate(16.538 4.144)"><path class="a" d="M267.487,106.314h-1.759V98.221a1.333,1.333,0,0,0-.039-.391,1.177,1.177,0,0,0-.235-.43,1.61,1.61,0,0,0-.508-.313,2.782,2.782,0,0,0-.9-.117,3.051,3.051,0,0,0-.938.117,1.442,1.442,0,0,0-.547.313,1.194,1.194,0,0,0-.274.391,1.727,1.727,0,0,0-.078.391v8.132H260.45V97.947a5.813,5.813,0,0,1,.078-.665,1.677,1.677,0,0,1,.43-.821,2.767,2.767,0,0,1,1.056-.7,6.023,6.023,0,0,1,3.831,0,2.765,2.765,0,0,1,1.055.7,1.679,1.679,0,0,1,.43.821,5.855,5.855,0,0,1,.078.665v8.367Z" transform="translate(-260.45 -95.445)"/></g><g transform="translate(25.178 4.105)"><path class="a" d="M306.576,95.252a4.156,4.156,0,0,1,2.659.7,2.26,2.26,0,0,1,.86,1.759v6.06a3.448,3.448,0,0,1-.117.821,2.049,2.049,0,0,1-.508.821,3.431,3.431,0,0,1-1.056.626,5.635,5.635,0,0,1-1.759.235,5.307,5.307,0,0,1-1.759-.235,2.3,2.3,0,0,1-1.055-.626,1.536,1.536,0,0,1-.508-.821,3.2,3.2,0,0,1-.117-.821V102.8a2.552,2.552,0,0,1,.391-1.408,2.141,2.141,0,0,1,1.134-.9,7.585,7.585,0,0,1,.86-.274c.313-.117.626-.235.9-.313.313-.117.547-.2.782-.274a3.908,3.908,0,0,0,.43-.156.639.639,0,0,1,.235-.117,1.244,1.244,0,0,0,.274-.235,2.161,2.161,0,0,0,.235-.313.773.773,0,0,0,.078-.43v-.391a1.667,1.667,0,0,0-.078-.43.9.9,0,0,0-.274-.391,1.831,1.831,0,0,0-.547-.313,2.687,2.687,0,0,0-.86-.117,1.726,1.726,0,0,0-1.368.43,1.532,1.532,0,0,0-.352,1.016h-1.759v-.508a2.724,2.724,0,0,1,.2-.977,1.987,1.987,0,0,1,.626-.782,3.584,3.584,0,0,1,1.095-.547A8.814,8.814,0,0,1,306.576,95.252Zm1.8,5.473a.44.44,0,0,1-.2.313,1.17,1.17,0,0,1-.313.156c-.2.078-.43.156-.665.235s-.469.156-.665.235l-.7.235a2.909,2.909,0,0,0-.469.274,2.073,2.073,0,0,0-.352.43,1.118,1.118,0,0,0-.156.665,1.751,1.751,0,0,0,.352,1.173,1.967,1.967,0,0,0,1.368.391,1.9,1.9,0,0,0,1.407-.391,1.711,1.711,0,0,0,.352-1.134v-2.58Z" transform="translate(-303.214 -95.252)"/></g><g transform="translate(33.545 0.078)"><path class="a" d="M351.621,87.949a2.261,2.261,0,0,1-.86,1.759,4.034,4.034,0,0,1-2.62.7,6.413,6.413,0,0,1-1.6-.2,2.878,2.878,0,0,1-1.095-.547,2.3,2.3,0,0,1-.626-.782,2.72,2.72,0,0,1-.2-.977V87.4h.039V83.218h-.039v-.469a2.554,2.554,0,0,1,.391-1.407,2.091,2.091,0,0,1,1.173-.9,7.578,7.578,0,0,1,.86-.274c.313-.117.626-.235.9-.313.274-.117.547-.2.743-.274a3.92,3.92,0,0,0,.43-.156.635.635,0,0,1,.235-.117,1.239,1.239,0,0,0,.274-.235,2.163,2.163,0,0,0,.235-.313.773.773,0,0,0,.078-.43v-3.01H351.7V87.949Zm-3.519.938a2.687,2.687,0,0,0,.86-.117,1.26,1.26,0,0,0,.547-.313,1.013,1.013,0,0,0,.274-.43,2.01,2.01,0,0,0,.078-.43v-7c-.039.156-.078.274-.2.313a1.177,1.177,0,0,1-.313.156c-.2.078-.43.156-.665.235s-.469.156-.665.235l-.7.235a1.636,1.636,0,0,0-.469.313,2.072,2.072,0,0,0-.352.43,1.119,1.119,0,0,0-.156.665v4.379a1.082,1.082,0,0,0,.117.508,1.614,1.614,0,0,0,.274.43,1.441,1.441,0,0,0,.547.313A4.871,4.871,0,0,0,348.1,88.887Z" transform="translate(-344.623 -75.321)"/></g><g transform="translate(42.068 4.105)"><path class="a" d="M390.286,95.252a5,5,0,0,1,1.916.313,2.761,2.761,0,0,1,1.055.7,1.678,1.678,0,0,1,.43.821,5.821,5.821,0,0,1,.078.665v1.016a2.921,2.921,0,0,1-.117.782,2.777,2.777,0,0,1-.626.938,1.488,1.488,0,0,1-.508.352,4.416,4.416,0,0,1-.508.2,2.645,2.645,0,0,1-.547.078H389.9a1.271,1.271,0,0,0-.938.391,1.333,1.333,0,0,0-.43.978v.938a1.541,1.541,0,0,0,.2.782.576.576,0,0,0,.2.235,1.083,1.083,0,0,0,.313.2,2.56,2.56,0,0,0,.43.156,2.8,2.8,0,0,0,.665.078,2.687,2.687,0,0,0,.86-.117c.2-.078.352-.156.43-.2a.869.869,0,0,0,.352-.508,1.621,1.621,0,0,0,.117-.626h1.759v.508a2.281,2.281,0,0,1-.235,1.016,2.1,2.1,0,0,1-.743.821,3.3,3.3,0,0,1-.977.43,5.867,5.867,0,0,1-1.564.2,5.538,5.538,0,0,1-1.212-.117,4.9,4.9,0,0,1-.9-.274,2.443,2.443,0,0,1-.626-.391,4.706,4.706,0,0,1-.43-.469,2.233,2.233,0,0,1-.352-1.251v-6.1a5.813,5.813,0,0,1,.078-.665,1.677,1.677,0,0,1,.43-.821,2.767,2.767,0,0,1,1.056-.7A4.3,4.3,0,0,1,390.286,95.252Zm1.759,3.01v-.2a1.326,1.326,0,0,0-.039-.391,1.172,1.172,0,0,0-.235-.43,1.609,1.609,0,0,0-.508-.313,2.783,2.783,0,0,0-.9-.117,3.051,3.051,0,0,0-.938.117,1.444,1.444,0,0,0-.547.313,1.193,1.193,0,0,0-.274.391,1.717,1.717,0,0,0-.078.391v2.15a.537.537,0,0,1,.2-.313.785.785,0,0,1,.313-.156,1.139,1.139,0,0,1,.352-.078,2.2,2.2,0,0,0,.274-.039h1.173a1.2,1.2,0,0,0,1.173-1.173v-.156Z" transform="translate(-386.807 -95.252)"/></g><g transform="translate(50.2 4.144)"><path class="a" d="M430.535,95.445h.626a2.762,2.762,0,0,1,.547.039l-.391,1.486H430.5a2.058,2.058,0,0,0-.9.156.993.993,0,0,0-.508.352.934.934,0,0,0-.235.43,1.47,1.47,0,0,0-.039.391v8.054h-1.759V97.986c0-.156.039-.352.078-.665a1.678,1.678,0,0,1,.43-.821,2.761,2.761,0,0,1,1.055-.7A4.182,4.182,0,0,1,430.535,95.445Z" transform="translate(-427.055 -95.445)"/></g><g transform="translate(61.577 4.105)"><path class="a" d="M486.726,95.252a4.156,4.156,0,0,1,2.659.7,2.26,2.26,0,0,1,.86,1.759v6.06a3.448,3.448,0,0,1-.117.821,2.049,2.049,0,0,1-.508.821,3.431,3.431,0,0,1-1.056.626,5.636,5.636,0,0,1-1.759.235,5.306,5.306,0,0,1-1.759-.235,2.3,2.3,0,0,1-1.056-.626,1.536,1.536,0,0,1-.508-.821,3.2,3.2,0,0,1-.117-.821V102.8a2.554,2.554,0,0,1,.391-1.408,2.142,2.142,0,0,1,1.134-.9,7.573,7.573,0,0,1,.86-.274c.313-.117.626-.235.9-.313.313-.117.547-.2.782-.274a3.912,3.912,0,0,0,.43-.156.635.635,0,0,1,.235-.117,1.244,1.244,0,0,0,.274-.235,2.163,2.163,0,0,0,.235-.313.772.772,0,0,0,.078-.43v-.391a1.668,1.668,0,0,0-.078-.43.9.9,0,0,0-.274-.391,1.831,1.831,0,0,0-.547-.313,2.688,2.688,0,0,0-.86-.117,1.726,1.726,0,0,0-1.368.43,1.531,1.531,0,0,0-.352,1.016h-1.759v-.508a2.721,2.721,0,0,1,.2-.977,1.984,1.984,0,0,1,.626-.782,3.58,3.58,0,0,1,1.095-.547A7.887,7.887,0,0,1,486.726,95.252Zm1.759,5.473a.44.44,0,0,1-.2.313,1.174,1.174,0,0,1-.313.156c-.2.078-.43.156-.665.235s-.469.156-.665.235l-.7.235a2.912,2.912,0,0,0-.469.274,2.073,2.073,0,0,0-.352.43,1.118,1.118,0,0,0-.156.665,1.752,1.752,0,0,0,.352,1.173,1.967,1.967,0,0,0,1.368.391,1.9,1.9,0,0,0,1.407-.391,1.711,1.711,0,0,0,.352-1.134v-2.58Z" transform="translate(-483.364 -95.252)"/></g><g transform="translate(69.904 13.215)"><path class="a" d="M524.58,140.338h1.759v1.8H524.58Z" transform="translate(-524.58 -140.338)"/></g><g transform="translate(73.266 4.144)"><path class="a" d="M546.382,98.416v-.2a1.665,1.665,0,0,0-.078-.43.894.894,0,0,0-.274-.391,1.831,1.831,0,0,0-.547-.313,2.687,2.687,0,0,0-.86-.117,1.726,1.726,0,0,0-1.368.43,1.532,1.532,0,0,0-.352,1.016v5a1.752,1.752,0,0,0,.352,1.173,1.967,1.967,0,0,0,1.368.391,1.9,1.9,0,0,0,1.407-.391,1.711,1.711,0,0,0,.352-1.134h1.72v.587a3.443,3.443,0,0,1-.117.821,2.049,2.049,0,0,1-.508.821,3.431,3.431,0,0,1-1.056.626,5.635,5.635,0,0,1-1.759.235,5.307,5.307,0,0,1-1.759-.235,2.3,2.3,0,0,1-1.056-.626,1.537,1.537,0,0,1-.508-.821,3.2,3.2,0,0,1-.117-.821v-6.1a2.72,2.72,0,0,1,.2-.977,1.984,1.984,0,0,1,.626-.782,3.581,3.581,0,0,1,1.095-.547,6.092,6.092,0,0,1,1.564-.2,4.082,4.082,0,0,1,2.659.7,2.223,2.223,0,0,1,.821,1.759v.508Z" transform="translate(-541.221 -95.445)"/></g><g transform="translate(81.672 4.066)"><path class="a" d="M589.783,103.346v.313a5.857,5.857,0,0,1-.078.665,1.679,1.679,0,0,1-.43.821,2.766,2.766,0,0,1-1.055.7,6.023,6.023,0,0,1-3.831,0,2.767,2.767,0,0,1-1.056-.7,1.679,1.679,0,0,1-.43-.821,5.855,5.855,0,0,1-.078-.665v-6.1c0-.156.039-.352.078-.665a1.679,1.679,0,0,1,.43-.821,2.767,2.767,0,0,1,1.056-.7,6.023,6.023,0,0,1,3.831,0,2.766,2.766,0,0,1,1.055.7,1.679,1.679,0,0,1,.43.821,5.858,5.858,0,0,1,.078.665Zm-1.72-.2V97.912a1.391,1.391,0,0,0-.078-.391.661.661,0,0,0-.274-.391,1.439,1.439,0,0,0-.547-.313,3.051,3.051,0,0,0-.938-.117,2.951,2.951,0,0,0-.9.117,1.258,1.258,0,0,0-.508.313.933.933,0,0,0-.235.43,1.47,1.47,0,0,0-.039.391v5.4a1.47,1.47,0,0,0,.039.391,1.177,1.177,0,0,0,.235.43,1.6,1.6,0,0,0,.508.313,2.781,2.781,0,0,0,.9.117,3.05,3.05,0,0,0,.938-.117,1.439,1.439,0,0,0,.547-.313,1.19,1.19,0,0,0,.274-.391,1.725,1.725,0,0,0,.078-.391Z" transform="translate(-582.824 -95.058)"/></g><g transform="translate(90.117 4.144)"><path class="a" d="M636.9,106.314h-1.759V98.221a1.332,1.332,0,0,0-.039-.391,1.175,1.175,0,0,0-.235-.43,1.257,1.257,0,0,0-.508-.313,2.952,2.952,0,0,0-.9-.117,3.051,3.051,0,0,0-.938.117,1.443,1.443,0,0,0-.547.313,1.193,1.193,0,0,0-.274.391,1.713,1.713,0,0,0-.078.391v8.132H629.86V98.221a1.332,1.332,0,0,0-.039-.391,1.178,1.178,0,0,0-.235-.43,1.261,1.261,0,0,0-.508-.313,2.952,2.952,0,0,0-.9-.117,3.051,3.051,0,0,0-.938.117,1.442,1.442,0,0,0-.547.313,1.194,1.194,0,0,0-.274.391,1.727,1.727,0,0,0-.078.391v8.132h-1.72V97.947a5.855,5.855,0,0,1,.078-.665,1.677,1.677,0,0,1,.43-.821,2.765,2.765,0,0,1,1.055-.7,5.006,5.006,0,0,1,1.916-.313,5.752,5.752,0,0,1,1.6.2,1.336,1.336,0,0,0,2.033,0,5.964,5.964,0,0,1,1.6-.2,5.006,5.006,0,0,1,1.916.313,2.766,2.766,0,0,1,1.056.7,1.679,1.679,0,0,1,.43.821,5.855,5.855,0,0,1,.078.665v8.367Z" transform="translate(-624.621 -95.445)"/></g><g transform="translate(56.768)"><g transform="translate(0.156 4.301)"><path class="a" d="M460.337,96.219h1.72v10.712h-1.72Z" transform="translate(-460.337 -96.219)"/></g><path class="a" d="M461.322,74.934v2.111h-1.759V74.934Z" transform="translate(-459.563 -74.934)"/></g></g><g transform="translate(27.022 15.391)"><path class="d" d="M72.612,70.622a1.952,1.952,0,0,1,1.223.663,2.794,2.794,0,0,1,.357.459,1.529,1.529,0,0,1,.2.51,2.7,2.7,0,0,1,.051.663V78.37a5.869,5.869,0,0,1-.1.816,1.862,1.862,0,0,1-.561,1.02,3.807,3.807,0,0,1-1.325.917,6.528,6.528,0,0,1-2.447.357,6.358,6.358,0,0,1-2.447-.357,3.379,3.379,0,0,1-1.325-.917,2.721,2.721,0,0,1-.561-1.07,6.99,6.99,0,0,1-.1-.816V65.269a6.99,6.99,0,0,1,.1-.816,2.188,2.188,0,0,1,.561-1.07,3.806,3.806,0,0,1,1.325-.917,6.529,6.529,0,0,1,2.447-.357,6.357,6.357,0,0,1,2.447.357,3.379,3.379,0,0,1,1.325.917,2.717,2.717,0,0,1,.561,1.07,6.955,6.955,0,0,1,.1.816v.663H72.2v-.306a2.236,2.236,0,0,0-.1-.51,1.057,1.057,0,0,0-.306-.51,1.879,1.879,0,0,0-.714-.408,3.977,3.977,0,0,0-1.224-.153,3.292,3.292,0,0,0-1.121.153,1.639,1.639,0,0,0-.663.408,1.216,1.216,0,0,0-.306.561,1.914,1.914,0,0,0-.051.51V77.911a1.915,1.915,0,0,0,.051.51,1.059,1.059,0,0,0,.306.51,1.644,1.644,0,0,0,.663.408,3.5,3.5,0,0,0,1.121.153,3.983,3.983,0,0,0,1.224-.153,2.394,2.394,0,0,0,.714-.408,1.057,1.057,0,0,0,.306-.51,2.578,2.578,0,0,0,.1-.459V74.037a2.712,2.712,0,0,0-.051-.714c-.051-.2-.1-.306-.255-.357a2.365,2.365,0,0,0-.714-.1,4.125,4.125,0,0,0-1.223.153v-2.4s.408-.051.663-.051C70.624,70.622,71.44,70.52,72.612,70.622Z" transform="translate(-65.578 -62.109)"/></g></g></svg>