<svg xmlns="http://www.w3.org/2000/svg" xmlns:xlink="http://www.w3.org/1999/xlink" width="168.773" height="40.214" viewBox="0 0 168.773 40.214"><defs><style>.a{fill:#33461f;}.b{fill:url(#a);}.c{fill:#fff;}</style><radialGradient id="a" cx="0.5" cy="0.5" fx="0.2176831215620041" fy="0.18665118515491486" r="0.5" gradientTransform="matrix(1, 0, 0, -1, 0, 1)" gradientUnits="objectBoundingBox"><stop offset="0" stop-color="#95a439"/><stop offset="0.37" stop-color="#869836"/><stop offset="0.536" stop-color="#7e9134"/><stop offset="1" stop-color="#4f622b"/></radialGradient></defs><circle class="a" cx="16.087" cy="16.087" r="16.087" transform="translate(0 8.04)"/><g transform="translate(1.716 9.756)"><circle class="b" cx="14.157" cy="14.157" r="14.157" transform="translate(0.214 0.214)"/><path class="c" d="M58.606,913.189a14.371,14.371,0,1,1,14.371-14.371A14.372,14.372,0,0,1,58.606,913.189Zm0-28.314a13.942,13.942,0,1,0,13.942,13.942A13.96,13.96,0,0,0,58.606,884.876Z" transform="translate(-44.235 -884.447)"/></g><path class="a" d="M75.71,866.54c-.072-.072-.286-.143-.358-.286a3.129,3.129,0,0,1-.429-.5,3.452,3.452,0,0,1-.143-.358l-.286-.286a1.117,1.117,0,0,0,.286-.715c0-.071-.072,0-.072,0a1.031,1.031,0,0,1-.429.5h0l-.072-.072h0a.992.992,0,0,0,.286-.644c0-.072-.072,0-.072,0-.143.214-.286.358-.358.5,0,0-.071-.071-.214,0a.867.867,0,0,0-.358.072s-.143-.072-.214,0v.286a4.581,4.581,0,0,1-.644.429,9.148,9.148,0,0,0-1,.286l-.286.143s-2.073.143-2.788.143-1.43-.072-1.645-.072-.715-.143-1.287-.143h0s-1.859-.286-1.787,1.144a3.3,3.3,0,0,0,.071.715,4.385,4.385,0,0,1-.071,1.287s-.215.429-.358.5a1.024,1.024,0,0,0-.429,1.216,1.194,1.194,0,0,0,.858-1.287,3.041,3.041,0,0,1,.358-.858,1.651,1.651,0,0,0,.143.643h0a.25.25,0,0,0,.071.143s.215.286.143.5a3,3,0,0,1-.143.429,1.331,1.331,0,0,0-.143.5,1.418,1.418,0,0,1,0,.572,2.943,2.943,0,0,1-.143.643c-.071.214-.071.286,0,.358s.143.072.215.143c0,.072,0,.215.071.215a.607.607,0,0,0,.429.143c.214,0,.429.072.358-.072-.072-.071-.214-.214-.214-.286l-.143-.143a.923.923,0,0,1-.143-.572c0-.215,0-.644.143-.787a2.545,2.545,0,0,0,.214-.5c.072-.143.072,0,.143.143l.286.572a4.372,4.372,0,0,1,.214.786c0,.143-.072.286.072.214.072-.072.143-.143.214,0,.072.072.072.215.214.286a1.218,1.218,0,0,0,.5.072c.143,0,.143,0,.143-.072-.071-.143-.214-.214-.286-.286s-.214-.143-.286-.286a2.568,2.568,0,0,1-.286-.786,1.214,1.214,0,0,1-.072-.5v-.286l.358-.143v.143c.072.072.072.143.072.072a.248.248,0,0,1,.072-.143.72.72,0,0,1,.071.214.07.07,0,0,0,.072.072.25.25,0,0,0,.072-.143c0-.143,0-.143.072-.214a.543.543,0,0,0,.286-.143l.143-.143a1.53,1.53,0,0,1,.429.072c.214.071.358.214.572.214s.644-.072.858-.072.572-.214.786-.214a3.844,3.844,0,0,0,.572-.072,2.275,2.275,0,0,0,0,.715,4.068,4.068,0,0,1,.071.93,3.164,3.164,0,0,0-.143.715v.143h.072l.071-.072a.265.265,0,0,1,.143.214c0,.143,0,.286.143.286h.5a.309.309,0,0,0,.286.143c.214.072.5.072.5,0s-.072-.143-.214-.286c-.5-.214-.644-.214-.715-.5,0-.286-.072-.5-.072-.643v-.286a.908.908,0,0,0,.143-.429c0-.214,0-.358.072-.429a2.545,2.545,0,0,0,.5-.5h0c.143-.214.429-.5.5-.644,0-.071.072-.143.072-.214.143-.286.286-.572.429-.93.143-.143.214-.358.357-.5.072,0,.143-.072.215-.143.214-.286.429-.5.572-.5a.865.865,0,0,0,.358.072h.572c.143,0,.286.071.429.071s.358.072.429-.071C75.71,866.9,75.781,866.612,75.71,866.54Zm-5,5.648a.552.552,0,0,0-.072-.214c-.072-.143-.072-.214,0-.643a4.4,4.4,0,0,0,.072-.644,2.718,2.718,0,0,1,.071.572C70.776,871.545,70.7,872.188,70.7,872.188Zm3.646-7.221Z" transform="translate(-52.258 -864.149)"/><g transform="translate(11.654 14.26)"><path class="c" d="M71.919,902.327a2.507,2.507,0,0,1,1.216.643,1.284,1.284,0,0,1,.358.5c.071.143.143.358.214.5a1.978,1.978,0,0,1,.072.644v5.506a4.1,4.1,0,0,1-.072.858,2.626,2.626,0,0,1-.572,1.072,3.465,3.465,0,0,1-1.359.93,5.813,5.813,0,0,1-2.431.357,6.967,6.967,0,0,1-2.431-.357,4.1,4.1,0,0,1-1.359-.93,2.626,2.626,0,0,1-.572-1.072,4.1,4.1,0,0,1-.072-.858V897.036a4.094,4.094,0,0,1,.072-.858,2.631,2.631,0,0,1,.572-1.073,3.464,3.464,0,0,1,1.359-.93,5.813,5.813,0,0,1,2.431-.358,6.977,6.977,0,0,1,2.431.358,5.029,5.029,0,0,1,1.359.93,2.631,2.631,0,0,1,.572,1.073,4.093,4.093,0,0,1,.072.858v.715H71.562v-.286a1.214,1.214,0,0,0-.072-.5.825.825,0,0,0-.357-.5,3.133,3.133,0,0,0-.715-.429,2.974,2.974,0,0,0-1.216-.143,4.478,4.478,0,0,0-1.144.143,2.492,2.492,0,0,0-.644.429.9.9,0,0,0-.286.5,1.393,1.393,0,0,0-.072.5v12.155a1.217,1.217,0,0,0,.072.5,1.15,1.15,0,0,0,.286.5,2.493,2.493,0,0,0,.644.429,2.625,2.625,0,0,0,1.144.143,5.155,5.155,0,0,0,1.216-.143,2.393,2.393,0,0,0,.715-.429,2.166,2.166,0,0,0,.357-.5,1.4,1.4,0,0,0,.072-.5v-3.932a2.2,2.2,0,0,0-.072-.715c0-.214-.143-.286-.286-.358a1.787,1.787,0,0,0-.715-.072,3.963,3.963,0,0,0-1.216.143v-2.359a5.52,5.52,0,0,1,.644-.072C69.917,902.4,70.7,902.255,71.919,902.327Z" transform="translate(-64.912 -893.818)"/></g><path class="a" d="M75.71,866.54c-.072-.072-.286-.143-.358-.286a3.129,3.129,0,0,1-.429-.5,3.452,3.452,0,0,1-.143-.358l-.286-.286a1.117,1.117,0,0,0,.286-.715c0-.071-.072,0-.072,0a1.031,1.031,0,0,1-.429.5h0l-.072-.072h0a.992.992,0,0,0,.286-.644c0-.072-.072,0-.072,0-.143.214-.286.358-.358.5,0,0-.071-.071-.214,0a.867.867,0,0,0-.358.072s-.143-.072-.214,0v.286a4.581,4.581,0,0,1-.644.429,9.148,9.148,0,0,0-1,.286l-.286.143s-2.073.143-2.788.143-1.43-.072-1.645-.072-.715-.143-1.287-.143h0s-1.859-.286-1.787,1.144a3.3,3.3,0,0,0,.071.715,4.385,4.385,0,0,1-.071,1.287s-.215.429-.358.5a1.024,1.024,0,0,0-.429,1.216,1.194,1.194,0,0,0,.858-1.287,3.041,3.041,0,0,1,.358-.858,1.651,1.651,0,0,0,.143.643h0a.25.25,0,0,0,.071.143s.215.286.143.5a3,3,0,0,1-.143.429,1.331,1.331,0,0,0-.143.5,1.418,1.418,0,0,1,0,.572,2.943,2.943,0,0,1-.143.643c-.071.214-.071.286,0,.358s.143.072.215.143c0,.072,0,.215.071.215a.607.607,0,0,0,.429.143c.214,0,.429.072.358-.072-.072-.071-.214-.214-.214-.286l-.143-.143a.923.923,0,0,1-.143-.572c0-.215,0-.644.143-.787a2.545,2.545,0,0,0,.214-.5c.072-.143.072,0,.143.143l.286.572a4.372,4.372,0,0,1,.214.786c0,.143-.072.286.072.214.072-.072.143-.143.214,0,.072.072.072.215.214.286a1.218,1.218,0,0,0,.5.072c.143,0,.143,0,.143-.072-.071-.143-.214-.214-.286-.286s-.214-.143-.286-.286a2.568,2.568,0,0,1-.286-.786,1.214,1.214,0,0,1-.072-.5v-.286l.358-.143v.143c.072.072.072.143.072.072a.248.248,0,0,1,.072-.143.72.72,0,0,1,.071.214.07.07,0,0,0,.072.072.25.25,0,0,0,.072-.143c0-.143,0-.143.072-.214a.543.543,0,0,0,.286-.143l.143-.143a1.53,1.53,0,0,1,.429.072c.214.071.358.214.572.214s.644-.072.858-.072.572-.214.786-.214a3.844,3.844,0,0,0,.572-.072,2.275,2.275,0,0,0,0,.715,4.068,4.068,0,0,1,.071.93,3.164,3.164,0,0,0-.143.715v.143h.072l.071-.072a.265.265,0,0,1,.143.214c0,.143,0,.286.143.286h.5a.309.309,0,0,0,.286.143c.214.072.5.072.5,0s-.072-.143-.214-.286c-.5-.214-.644-.214-.715-.5,0-.286-.072-.5-.072-.643v-.286a.908.908,0,0,0,.143-.429c0-.214,0-.358.072-.429a2.545,2.545,0,0,0,.5-.5h0c.143-.214.429-.5.5-.644,0-.071.072-.143.072-.214.143-.286.286-.572.429-.93.143-.143.214-.358.357-.5.072,0,.143-.072.215-.143.214-.286.429-.5.572-.5a.865.865,0,0,0,.358.072h.572c.143,0,.286.071.429.071s.358.072.429-.071C75.71,866.9,75.781,866.612,75.71,866.54Zm-5,5.648a.552.552,0,0,0-.072-.214c-.072-.143-.072-.214,0-.643a4.4,4.4,0,0,0,.072-.644,2.718,2.718,0,0,1,.071.572C70.776,871.545,70.7,872.188,70.7,872.188Zm3.646-7.221Z" transform="translate(-52.258 -864.149)"/><g transform="translate(11.654 14.26)"><path class="c" d="M71.919,902.327a2.507,2.507,0,0,1,1.216.643,1.284,1.284,0,0,1,.358.5c.071.143.143.358.214.5a1.978,1.978,0,0,1,.072.644v5.506a4.1,4.1,0,0,1-.072.858,2.626,2.626,0,0,1-.572,1.072,3.465,3.465,0,0,1-1.359.93,5.813,5.813,0,0,1-2.431.357,6.967,6.967,0,0,1-2.431-.357,4.1,4.1,0,0,1-1.359-.93,2.626,2.626,0,0,1-.572-1.072,4.1,4.1,0,0,1-.072-.858V897.036a4.094,4.094,0,0,1,.072-.858,2.631,2.631,0,0,1,.572-1.073,3.464,3.464,0,0,1,1.359-.93,5.813,5.813,0,0,1,2.431-.358,6.977,6.977,0,0,1,2.431.358,5.029,5.029,0,0,1,1.359.93,2.631,2.631,0,0,1,.572,1.073,4.093,4.093,0,0,1,.072.858v.715H71.562v-.286a1.214,1.214,0,0,0-.072-.5.825.825,0,0,0-.357-.5,3.133,3.133,0,0,0-.715-.429,2.974,2.974,0,0,0-1.216-.143,4.478,4.478,0,0,0-1.144.143,2.492,2.492,0,0,0-.644.429.9.9,0,0,0-.286.5,1.393,1.393,0,0,0-.072.5v12.155a1.217,1.217,0,0,0,.072.5,1.15,1.15,0,0,0,.286.5,2.493,2.493,0,0,0,.644.429,2.625,2.625,0,0,0,1.144.143,5.155,5.155,0,0,0,1.216-.143,2.393,2.393,0,0,0,.715-.429,2.166,2.166,0,0,0,.357-.5,1.4,1.4,0,0,0,.072-.5v-3.932a2.2,2.2,0,0,0-.072-.715c0-.214-.143-.286-.286-.358a1.787,1.787,0,0,0-.715-.072,3.963,3.963,0,0,0-1.216.143v-2.359a5.52,5.52,0,0,1,.644-.072C69.917,902.4,70.7,902.255,71.919,902.327Z" transform="translate(-64.912 -893.818)"/></g><g transform="translate(39.877 14.381)"><g transform="translate(0)"><path class="c" d="M130.425,902.288a1.882,1.882,0,0,1,1.181.64,2.688,2.688,0,0,1,.345.443,1.476,1.476,0,0,1,.2.492,2.608,2.608,0,0,1,.049.64v5.266a5.648,5.648,0,0,1-.1.787,1.8,1.8,0,0,1-.541.984,3.674,3.674,0,0,1-1.279.886,6.3,6.3,0,0,1-2.362.345,6.139,6.139,0,0,1-2.362-.345,3.265,3.265,0,0,1-1.28-.886,2.631,2.631,0,0,1-.541-1.034,6.665,6.665,0,0,1-.1-.787v-12.6a6.69,6.69,0,0,1,.1-.787,2.109,2.109,0,0,1,.541-1.033,3.678,3.678,0,0,1,1.28-.886,6.3,6.3,0,0,1,2.362-.344,6.142,6.142,0,0,1,2.362.344,3.264,3.264,0,0,1,1.279.886,2.619,2.619,0,0,1,.541,1.033,6.687,6.687,0,0,1,.1.787v.64h-2.165v-.3a2.181,2.181,0,0,0-.1-.492,1.023,1.023,0,0,0-.3-.492,1.817,1.817,0,0,0-.689-.394,3.839,3.839,0,0,0-1.181-.148,3.178,3.178,0,0,0-1.082.148,1.589,1.589,0,0,0-.64.394,1.172,1.172,0,0,0-.3.542,1.851,1.851,0,0,0-.049.492v11.812a1.854,1.854,0,0,0,.049.492,1.021,1.021,0,0,0,.3.492,1.588,1.588,0,0,0,.64.394,3.38,3.38,0,0,0,1.082.147,3.841,3.841,0,0,0,1.181-.147,2.3,2.3,0,0,0,.689-.394,1.022,1.022,0,0,0,.3-.492,2.519,2.519,0,0,0,.1-.443v-3.789a2.6,2.6,0,0,0-.05-.689c-.049-.2-.1-.3-.246-.345a2.286,2.286,0,0,0-.689-.1,3.988,3.988,0,0,0-1.181.148v-2.313s.394-.049.64-.049C128.505,902.288,129.293,902.189,130.425,902.288Z" transform="translate(-123.633 -894.069)"/></g></g><g transform="translate(50.212 19.253)"><path class="c" d="M149.369,904.206a5.231,5.231,0,0,1,3.347.886,2.847,2.847,0,0,1,1.082,2.215v7.629a4.332,4.332,0,0,1-.148,1.033,2.582,2.582,0,0,1-.64,1.033,4.314,4.314,0,0,1-1.329.788,7.1,7.1,0,0,1-2.215.3,6.684,6.684,0,0,1-2.214-.3,2.9,2.9,0,0,1-1.329-.788,1.93,1.93,0,0,1-.64-1.033,4.022,4.022,0,0,1-.148-1.033V913.7a3.219,3.219,0,0,1,.492-1.772,2.7,2.7,0,0,1,1.427-1.132,9.511,9.511,0,0,1,1.083-.344c.394-.148.787-.3,1.132-.394.394-.148.689-.246.984-.344a4.983,4.983,0,0,0,.541-.2.8.8,0,0,1,.3-.148,1.579,1.579,0,0,0,.344-.3,2.714,2.714,0,0,0,.3-.394.973.973,0,0,0,.1-.541v-.492a2.1,2.1,0,0,0-.1-.542,1.129,1.129,0,0,0-.345-.492,2.3,2.3,0,0,0-.689-.394,3.392,3.392,0,0,0-1.082-.147,2.171,2.171,0,0,0-1.723.542,1.925,1.925,0,0,0-.443,1.279h-2.215v-.64a3.429,3.429,0,0,1,.246-1.23,2.5,2.5,0,0,1,.788-.984,4.494,4.494,0,0,1,1.378-.689A10.484,10.484,0,0,1,149.369,904.206Zm2.215,6.89a.556.556,0,0,1-.246.394,1.464,1.464,0,0,1-.394.2c-.246.1-.541.2-.836.3s-.591.2-.837.3l-.886.3a3.644,3.644,0,0,0-.591.344,2.639,2.639,0,0,0-.443.542,1.409,1.409,0,0,0-.2.837,2.2,2.2,0,0,0,.443,1.476,2.475,2.475,0,0,0,1.723.492,2.387,2.387,0,0,0,1.772-.492,2.152,2.152,0,0,0,.443-1.427V911.1Z" transform="translate(-145.136 -904.206)"/></g><g transform="translate(60.695 19.302)"><path class="c" d="M175.806,917.99h-2.215V907.8a1.663,1.663,0,0,0-.049-.492,1.479,1.479,0,0,0-.3-.542,2.027,2.027,0,0,0-.64-.394,3.5,3.5,0,0,0-1.132-.148,3.839,3.839,0,0,0-1.181.148,1.818,1.818,0,0,0-.689.394,1.5,1.5,0,0,0-.345.492,2.155,2.155,0,0,0-.1.492V917.99h-2.215V907.458a7.4,7.4,0,0,1,.1-.837,2.111,2.111,0,0,1,.541-1.033,3.48,3.48,0,0,1,1.329-.886,7.575,7.575,0,0,1,4.823,0,3.48,3.48,0,0,1,1.329.886,2.111,2.111,0,0,1,.541,1.033,7.4,7.4,0,0,1,.1.837V917.99Z" transform="translate(-166.947 -904.308)"/></g><g transform="translate(71.572 19.253)"><path class="c" d="M193.809,904.206a5.231,5.231,0,0,1,3.347.886,2.846,2.846,0,0,1,1.083,2.215v7.629a4.333,4.333,0,0,1-.148,1.033,2.581,2.581,0,0,1-.64,1.033,4.32,4.32,0,0,1-1.329.788,7.1,7.1,0,0,1-2.215.3,6.686,6.686,0,0,1-2.215-.3,2.9,2.9,0,0,1-1.329-.788,1.936,1.936,0,0,1-.64-1.033,4.022,4.022,0,0,1-.148-1.033V913.7a3.215,3.215,0,0,1,.492-1.772A2.7,2.7,0,0,1,191.5,910.8a9.573,9.573,0,0,1,1.083-.344c.394-.148.788-.3,1.132-.394.394-.148.689-.246.984-.344a4.964,4.964,0,0,0,.542-.2.8.8,0,0,1,.3-.148,1.569,1.569,0,0,0,.345-.3,2.713,2.713,0,0,0,.3-.394.972.972,0,0,0,.1-.541v-.492a2.083,2.083,0,0,0-.1-.542,1.121,1.121,0,0,0-.345-.492,2.3,2.3,0,0,0-.689-.394,3.4,3.4,0,0,0-1.083-.147,2.173,2.173,0,0,0-1.723.542,1.927,1.927,0,0,0-.443,1.279h-2.215v-.64a3.428,3.428,0,0,1,.246-1.23,2.5,2.5,0,0,1,.787-.984,4.506,4.506,0,0,1,1.378-.689A11.1,11.1,0,0,1,193.809,904.206Zm2.264,6.89a.553.553,0,0,1-.246.394,1.462,1.462,0,0,1-.394.2c-.246.1-.541.2-.836.3s-.591.2-.837.3l-.886.3a3.623,3.623,0,0,0-.591.344,2.623,2.623,0,0,0-.443.542,1.409,1.409,0,0,0-.2.837,2.2,2.2,0,0,0,.443,1.476,2.475,2.475,0,0,0,1.723.492,2.385,2.385,0,0,0,1.772-.492,2.15,2.15,0,0,0,.443-1.427V911.1Z" transform="translate(-189.577 -904.206)"/></g><g transform="translate(82.104 14.184)"><path class="c" d="M220.3,909.555a2.844,2.844,0,0,1-1.083,2.215,5.075,5.075,0,0,1-3.3.886,8.082,8.082,0,0,1-2.018-.246,3.636,3.636,0,0,1-1.378-.689,2.9,2.9,0,0,1-.787-.984,3.428,3.428,0,0,1-.246-1.23v-.64h.049V903.6h-.049v-.59a3.213,3.213,0,0,1,.492-1.772,2.634,2.634,0,0,1,1.476-1.132,9.528,9.528,0,0,1,1.083-.345c.394-.148.787-.3,1.132-.394.345-.148.689-.246.935-.345a4.9,4.9,0,0,0,.542-.2.791.791,0,0,1,.3-.148,1.581,1.581,0,0,0,.345-.3,2.7,2.7,0,0,0,.3-.394.972.972,0,0,0,.1-.541v-3.79H220.4v15.9Zm-4.43,1.181a3.378,3.378,0,0,0,1.083-.148,1.589,1.589,0,0,0,.689-.394,1.271,1.271,0,0,0,.344-.542,2.519,2.519,0,0,0,.1-.541V900.3c-.049.2-.1.345-.246.394a1.476,1.476,0,0,1-.394.2c-.246.1-.541.2-.837.3s-.59.2-.836.3l-.886.3a2.054,2.054,0,0,0-.59.394,2.593,2.593,0,0,0-.443.541,1.409,1.409,0,0,0-.2.837v5.512a1.362,1.362,0,0,0,.148.64,2.04,2.04,0,0,0,.344.541,1.822,1.822,0,0,0,.689.394A6.1,6.1,0,0,0,215.87,910.737Z" transform="translate(-211.49 -893.659)"/></g><g transform="translate(92.833 19.253)"><path class="c" d="M238.193,904.206a6.3,6.3,0,0,1,2.412.394,3.483,3.483,0,0,1,1.328.886,2.113,2.113,0,0,1,.542,1.034,7.385,7.385,0,0,1,.1.836v1.28a3.673,3.673,0,0,1-.148.984,3.49,3.49,0,0,1-.787,1.181,1.873,1.873,0,0,1-.64.443,5.565,5.565,0,0,1-.64.246,3.335,3.335,0,0,1-.689.1H237.7a1.6,1.6,0,0,0-1.181.492,1.677,1.677,0,0,0-.542,1.23v1.181a1.94,1.94,0,0,0,.246.984.723.723,0,0,0,.246.3,1.358,1.358,0,0,0,.394.246,3.225,3.225,0,0,0,.542.2,3.541,3.541,0,0,0,.836.1,3.393,3.393,0,0,0,1.083-.148c.246-.1.443-.2.542-.246a1.093,1.093,0,0,0,.443-.64,2.039,2.039,0,0,0,.148-.788h2.215v.64a2.877,2.877,0,0,1-.3,1.28,2.645,2.645,0,0,1-.935,1.033,4.137,4.137,0,0,1-1.23.541,7.374,7.374,0,0,1-1.969.246,6.968,6.968,0,0,1-1.526-.147,6.146,6.146,0,0,1-1.132-.345,3.061,3.061,0,0,1-.787-.492,5.866,5.866,0,0,1-.542-.59,2.812,2.812,0,0,1-.443-1.575v-7.678a7.378,7.378,0,0,1,.1-.837,2.112,2.112,0,0,1,.542-1.033,3.476,3.476,0,0,1,1.329-.886A5.4,5.4,0,0,1,238.193,904.206Zm2.215,3.79v-.246a1.679,1.679,0,0,0-.049-.492,1.488,1.488,0,0,0-.3-.542,2.027,2.027,0,0,0-.64-.394,3.5,3.5,0,0,0-1.132-.148,3.839,3.839,0,0,0-1.181.148,1.818,1.818,0,0,0-.689.394,1.5,1.5,0,0,0-.345.492,2.181,2.181,0,0,0-.1.492v2.707a.679.679,0,0,1,.246-.394.991.991,0,0,1,.394-.2,1.443,1.443,0,0,1,.443-.1,2.774,2.774,0,0,0,.345-.049h1.477a1.514,1.514,0,0,0,1.477-1.477V908Z" transform="translate(-233.813 -904.206)"/></g><g transform="translate(103.07 19.302)"><path class="c" d="M259.491,904.308h.787a3.468,3.468,0,0,1,.689.049l-.492,1.87h-1.034a2.588,2.588,0,0,0-1.132.2,1.249,1.249,0,0,0-.64.443,1.172,1.172,0,0,0-.3.541,1.836,1.836,0,0,0-.05.492v10.138h-2.215V907.507c0-.2.05-.443.1-.836a2.116,2.116,0,0,1,.541-1.034,3.481,3.481,0,0,1,1.329-.886A5.268,5.268,0,0,1,259.491,904.308Z" transform="translate(-255.111 -904.308)"/></g><g transform="translate(117.392 19.253)"><path class="c" d="M289.141,904.206a5.231,5.231,0,0,1,3.347.886,2.846,2.846,0,0,1,1.083,2.215v7.629a4.332,4.332,0,0,1-.148,1.033,2.581,2.581,0,0,1-.64,1.033,4.32,4.32,0,0,1-1.329.788,7.1,7.1,0,0,1-2.215.3,6.685,6.685,0,0,1-2.215-.3A2.9,2.9,0,0,1,285.7,917a1.936,1.936,0,0,1-.64-1.033,4.022,4.022,0,0,1-.148-1.033V913.7a3.214,3.214,0,0,1,.492-1.772,2.7,2.7,0,0,1,1.427-1.132,9.533,9.533,0,0,1,1.082-.344c.394-.148.788-.3,1.132-.394.394-.148.689-.246.984-.344a4.969,4.969,0,0,0,.542-.2.8.8,0,0,1,.3-.148,1.568,1.568,0,0,0,.345-.3,2.71,2.71,0,0,0,.3-.394.973.973,0,0,0,.1-.541v-.492a2.083,2.083,0,0,0-.1-.542,1.121,1.121,0,0,0-.345-.492,2.3,2.3,0,0,0-.689-.394,3.393,3.393,0,0,0-1.083-.147,2.173,2.173,0,0,0-1.723.542,1.927,1.927,0,0,0-.443,1.279h-2.215v-.64a3.428,3.428,0,0,1,.246-1.23,2.5,2.5,0,0,1,.787-.984,4.5,4.5,0,0,1,1.378-.689A9.931,9.931,0,0,1,289.141,904.206Zm2.215,6.89a.554.554,0,0,1-.246.394,1.462,1.462,0,0,1-.394.2c-.246.1-.541.2-.837.3s-.591.2-.837.3l-.886.3a3.665,3.665,0,0,0-.591.344,2.623,2.623,0,0,0-.443.542,1.409,1.409,0,0,0-.2.837,2.2,2.2,0,0,0,.443,1.476,2.474,2.474,0,0,0,1.723.492,2.386,2.386,0,0,0,1.772-.492,2.15,2.15,0,0,0,.443-1.427V911.1Z" transform="translate(-284.909 -904.206)"/></g><g transform="translate(127.875 30.72)"><path class="c" d="M306.72,928.065h2.215v2.264H306.72Z" transform="translate(-306.72 -928.065)"/></g><g transform="translate(132.107 19.302)"><path class="c" d="M322.022,908.049V907.8a2.1,2.1,0,0,0-.1-.542,1.133,1.133,0,0,0-.345-.492,2.309,2.309,0,0,0-.689-.394,3.378,3.378,0,0,0-1.083-.148,2.172,2.172,0,0,0-1.722.541,1.927,1.927,0,0,0-.443,1.28v6.3a2.2,2.2,0,0,0,.443,1.476,2.473,2.473,0,0,0,1.722.492,2.386,2.386,0,0,0,1.772-.492,2.153,2.153,0,0,0,.443-1.427h2.166v.738a4.357,4.357,0,0,1-.148,1.033,2.582,2.582,0,0,1-.64,1.034,4.324,4.324,0,0,1-1.328.787,7.093,7.093,0,0,1-2.215.295,6.677,6.677,0,0,1-2.215-.295,2.9,2.9,0,0,1-1.329-.787,1.936,1.936,0,0,1-.64-1.034,4.016,4.016,0,0,1-.148-1.033v-7.678a3.429,3.429,0,0,1,.246-1.23,2.5,2.5,0,0,1,.787-.984,4.518,4.518,0,0,1,1.378-.689,7.681,7.681,0,0,1,1.969-.246,5.137,5.137,0,0,1,3.347.886,2.8,2.8,0,0,1,1.034,2.214v.64Z" transform="translate(-315.526 -904.308)"/></g><g transform="translate(142.688 19.204)"><path class="c" d="M346.3,914.538v.394a7.283,7.283,0,0,1-.1.837,2.111,2.111,0,0,1-.541,1.033,3.476,3.476,0,0,1-1.329.886,7.575,7.575,0,0,1-4.823,0,3.474,3.474,0,0,1-1.328-.886,2.112,2.112,0,0,1-.542-1.033,7.393,7.393,0,0,1-.1-.837v-7.678c0-.2.049-.443.1-.837a2.114,2.114,0,0,1,.542-1.033,3.475,3.475,0,0,1,1.328-.886,7.585,7.585,0,0,1,4.823,0,3.477,3.477,0,0,1,1.329.886,2.113,2.113,0,0,1,.541,1.033,7.283,7.283,0,0,1,.1.837Zm-2.165-.246V907.7a1.752,1.752,0,0,0-.1-.492.832.832,0,0,0-.345-.492,1.807,1.807,0,0,0-.689-.394,3.834,3.834,0,0,0-1.181-.148,3.71,3.71,0,0,0-1.132.148,1.577,1.577,0,0,0-.64.394,1.171,1.171,0,0,0-.3.541,1.854,1.854,0,0,0-.049.492v6.792a1.853,1.853,0,0,0,.049.492,1.477,1.477,0,0,0,.3.541,2.015,2.015,0,0,0,.64.394,3.5,3.5,0,0,0,1.132.148,3.834,3.834,0,0,0,1.181-.148,1.808,1.808,0,0,0,.689-.394,1.5,1.5,0,0,0,.345-.492,2.171,2.171,0,0,0,.1-.492Z" transform="translate(-337.541 -904.104)"/></g><g transform="translate(153.319 19.302)"><path class="c" d="M375.113,917.99H372.9V907.8a1.679,1.679,0,0,0-.049-.492,1.481,1.481,0,0,0-.3-.542,1.588,1.588,0,0,0-.64-.394,3.709,3.709,0,0,0-1.132-.148,3.84,3.84,0,0,0-1.181.148,1.819,1.819,0,0,0-.689.394,1.512,1.512,0,0,0-.345.492,2.18,2.18,0,0,0-.1.492V917.99h-2.215V907.8a1.679,1.679,0,0,0-.049-.492,1.479,1.479,0,0,0-.3-.542,1.59,1.59,0,0,0-.64-.394,3.709,3.709,0,0,0-1.132-.148,3.834,3.834,0,0,0-1.181.148,1.817,1.817,0,0,0-.689.394,1.512,1.512,0,0,0-.345.492,2.177,2.177,0,0,0-.1.492V917.99h-2.166V907.458a7.393,7.393,0,0,1,.1-.837,2.111,2.111,0,0,1,.541-1.033,3.48,3.48,0,0,1,1.329-.886,6.3,6.3,0,0,1,2.412-.394,7.254,7.254,0,0,1,2.018.246,3.874,3.874,0,0,1,1.279.591,3.873,3.873,0,0,1,1.28-.591,7.514,7.514,0,0,1,2.018-.246,6.3,6.3,0,0,1,2.411.394,3.476,3.476,0,0,1,1.329.886,2.111,2.111,0,0,1,.541,1.033,7.292,7.292,0,0,1,.1.837V917.99Z" transform="translate(-359.659 -904.308)"/></g><g transform="translate(111.338 14.085)"><g transform="translate(0.197 5.414)"><path class="c" d="M272.724,904.718h2.165V918.2h-2.165Z" transform="translate(-272.724 -904.718)"/></g><g transform="translate(0)"><path class="c" d="M274.529,893.454v2.658h-2.215v-2.658Z" transform="translate(-272.314 -893.454)"/></g></g><g transform="translate(39.877 14.381)"><g transform="translate(0)"><path class="c" d="M130.425,902.288a1.882,1.882,0,0,1,1.181.64,2.688,2.688,0,0,1,.345.443,1.476,1.476,0,0,1,.2.492,2.608,2.608,0,0,1,.049.64v5.266a5.648,5.648,0,0,1-.1.787,1.8,1.8,0,0,1-.541.984,3.674,3.674,0,0,1-1.279.886,6.3,6.3,0,0,1-2.362.345,6.139,6.139,0,0,1-2.362-.345,3.265,3.265,0,0,1-1.28-.886,2.631,2.631,0,0,1-.541-1.034,6.665,6.665,0,0,1-.1-.787v-12.6a6.69,6.69,0,0,1,.1-.787,2.109,2.109,0,0,1,.541-1.033,3.678,3.678,0,0,1,1.28-.886,6.3,6.3,0,0,1,2.362-.344,6.142,6.142,0,0,1,2.362.344,3.264,3.264,0,0,1,1.279.886,2.619,2.619,0,0,1,.541,1.033,6.687,6.687,0,0,1,.1.787v.64h-2.165v-.3a2.181,2.181,0,0,0-.1-.492,1.023,1.023,0,0,0-.3-.492,1.817,1.817,0,0,0-.689-.394,3.839,3.839,0,0,0-1.181-.148,3.178,3.178,0,0,0-1.082.148,1.589,1.589,0,0,0-.64.394,1.172,1.172,0,0,0-.3.542,1.851,1.851,0,0,0-.049.492v11.812a1.854,1.854,0,0,0,.049.492,1.021,1.021,0,0,0,.3.492,1.588,1.588,0,0,0,.64.394,3.38,3.38,0,0,0,1.082.147,3.841,3.841,0,0,0,1.181-.147,2.3,2.3,0,0,0,.689-.394,1.022,1.022,0,0,0,.3-.492,2.519,2.519,0,0,0,.1-.443v-3.789a2.6,2.6,0,0,0-.05-.689c-.049-.2-.1-.3-.246-.345a2.286,2.286,0,0,0-.689-.1,3.988,3.988,0,0,0-1.181.148v-2.313s.394-.049.64-.049C128.505,902.288,129.293,902.189,130.425,902.288Z" transform="translate(-123.633 -894.069)"/></g></g><g transform="translate(50.212 19.253)"><path class="c" d="M149.369,904.206a5.231,5.231,0,0,1,3.347.886,2.847,2.847,0,0,1,1.082,2.215v7.629a4.332,4.332,0,0,1-.148,1.033,2.582,2.582,0,0,1-.64,1.033,4.314,4.314,0,0,1-1.329.788,7.1,7.1,0,0,1-2.215.3,6.684,6.684,0,0,1-2.214-.3,2.9,2.9,0,0,1-1.329-.788,1.93,1.93,0,0,1-.64-1.033,4.022,4.022,0,0,1-.148-1.033V913.7a3.219,3.219,0,0,1,.492-1.772,2.7,2.7,0,0,1,1.427-1.132,9.511,9.511,0,0,1,1.083-.344c.394-.148.787-.3,1.132-.394.394-.148.689-.246.984-.344a4.983,4.983,0,0,0,.541-.2.8.8,0,0,1,.3-.148,1.579,1.579,0,0,0,.344-.3,2.714,2.714,0,0,0,.3-.394.973.973,0,0,0,.1-.541v-.492a2.1,2.1,0,0,0-.1-.542,1.129,1.129,0,0,0-.345-.492,2.3,2.3,0,0,0-.689-.394,3.392,3.392,0,0,0-1.082-.147,2.171,2.171,0,0,0-1.723.542,1.925,1.925,0,0,0-.443,1.279h-2.215v-.64a3.429,3.429,0,0,1,.246-1.23,2.5,2.5,0,0,1,.788-.984,4.494,4.494,0,0,1,1.378-.689A10.484,10.484,0,0,1,149.369,904.206Zm2.215,6.89a.556.556,0,0,1-.246.394,1.464,1.464,0,0,1-.394.2c-.246.1-.541.2-.836.3s-.591.2-.837.3l-.886.3a3.644,3.644,0,0,0-.591.344,2.639,2.639,0,0,0-.443.542,1.409,1.409,0,0,0-.2.837,2.2,2.2,0,0,0,.443,1.476,2.475,2.475,0,0,0,1.723.492,2.387,2.387,0,0,0,1.772-.492,2.152,2.152,0,0,0,.443-1.427V911.1Z" transform="translate(-145.136 -904.206)"/></g><g transform="translate(60.695 19.302)"><path class="c" d="M175.806,917.99h-2.215V907.8a1.663,1.663,0,0,0-.049-.492,1.479,1.479,0,0,0-.3-.542,2.027,2.027,0,0,0-.64-.394,3.5,3.5,0,0,0-1.132-.148,3.839,3.839,0,0,0-1.181.148,1.818,1.818,0,0,0-.689.394,1.5,1.5,0,0,0-.345.492,2.155,2.155,0,0,0-.1.492V917.99h-2.215V907.458a7.4,7.4,0,0,1,.1-.837,2.111,2.111,0,0,1,.541-1.033,3.48,3.48,0,0,1,1.329-.886,7.575,7.575,0,0,1,4.823,0,3.48,3.48,0,0,1,1.329.886,2.111,2.111,0,0,1,.541,1.033,7.4,7.4,0,0,1,.1.837V917.99Z" transform="translate(-166.947 -904.308)"/></g><g transform="translate(71.572 19.253)"><path class="c" d="M193.809,904.206a5.231,5.231,0,0,1,3.347.886,2.846,2.846,0,0,1,1.083,2.215v7.629a4.333,4.333,0,0,1-.148,1.033,2.581,2.581,0,0,1-.64,1.033,4.32,4.32,0,0,1-1.329.788,7.1,7.1,0,0,1-2.215.3,6.686,6.686,0,0,1-2.215-.3,2.9,2.9,0,0,1-1.329-.788,1.936,1.936,0,0,1-.64-1.033,4.022,4.022,0,0,1-.148-1.033V913.7a3.215,3.215,0,0,1,.492-1.772A2.7,2.7,0,0,1,191.5,910.8a9.573,9.573,0,0,1,1.083-.344c.394-.148.788-.3,1.132-.394.394-.148.689-.246.984-.344a4.964,4.964,0,0,0,.542-.2.8.8,0,0,1,.3-.148,1.569,1.569,0,0,0,.345-.3,2.713,2.713,0,0,0,.3-.394.972.972,0,0,0,.1-.541v-.492a2.083,2.083,0,0,0-.1-.542,1.121,1.121,0,0,0-.345-.492,2.3,2.3,0,0,0-.689-.394,3.4,3.4,0,0,0-1.083-.147,2.173,2.173,0,0,0-1.723.542,1.927,1.927,0,0,0-.443,1.279h-2.215v-.64a3.428,3.428,0,0,1,.246-1.23,2.5,2.5,0,0,1,.787-.984,4.506,4.506,0,0,1,1.378-.689A11.1,11.1,0,0,1,193.809,904.206Zm2.264,6.89a.553.553,0,0,1-.246.394,1.462,1.462,0,0,1-.394.2c-.246.1-.541.2-.836.3s-.591.2-.837.3l-.886.3a3.623,3.623,0,0,0-.591.344,2.623,2.623,0,0,0-.443.542,1.409,1.409,0,0,0-.2.837,2.2,2.2,0,0,0,.443,1.476,2.475,2.475,0,0,0,1.723.492,2.385,2.385,0,0,0,1.772-.492,2.15,2.15,0,0,0,.443-1.427V911.1Z" transform="translate(-189.577 -904.206)"/></g><g transform="translate(82.104 14.184)"><path class="c" d="M220.3,909.555a2.844,2.844,0,0,1-1.083,2.215,5.075,5.075,0,0,1-3.3.886,8.082,8.082,0,0,1-2.018-.246,3.636,3.636,0,0,1-1.378-.689,2.9,2.9,0,0,1-.787-.984,3.428,3.428,0,0,1-.246-1.23v-.64h.049V903.6h-.049v-.59a3.213,3.213,0,0,1,.492-1.772,2.634,2.634,0,0,1,1.476-1.132,9.528,9.528,0,0,1,1.083-.345c.394-.148.787-.3,1.132-.394.345-.148.689-.246.935-.345a4.9,4.9,0,0,0,.542-.2.791.791,0,0,1,.3-.148,1.581,1.581,0,0,0,.345-.3,2.7,2.7,0,0,0,.3-.394.972.972,0,0,0,.1-.541v-3.79H220.4v15.9Zm-4.43,1.181a3.378,3.378,0,0,0,1.083-.148,1.589,1.589,0,0,0,.689-.394,1.271,1.271,0,0,0,.344-.542,2.519,2.519,0,0,0,.1-.541V900.3c-.049.2-.1.345-.246.394a1.476,1.476,0,0,1-.394.2c-.246.1-.541.2-.837.3s-.59.2-.836.3l-.886.3a2.054,2.054,0,0,0-.59.394,2.593,2.593,0,0,0-.443.541,1.409,1.409,0,0,0-.2.837v5.512a1.362,1.362,0,0,0,.148.64,2.04,2.04,0,0,0,.344.541,1.822,1.822,0,0,0,.689.394A6.1,6.1,0,0,0,215.87,910.737Z" transform="translate(-211.49 -893.659)"/></g><g transform="translate(92.833 19.253)"><path class="c" d="M238.193,904.206a6.3,6.3,0,0,1,2.412.394,3.483,3.483,0,0,1,1.328.886,2.113,2.113,0,0,1,.542,1.034,7.385,7.385,0,0,1,.1.836v1.28a3.673,3.673,0,0,1-.148.984,3.49,3.49,0,0,1-.787,1.181,1.873,1.873,0,0,1-.64.443,5.565,5.565,0,0,1-.64.246,3.335,3.335,0,0,1-.689.1H237.7a1.6,1.6,0,0,0-1.181.492,1.677,1.677,0,0,0-.542,1.23v1.181a1.94,1.94,0,0,0,.246.984.723.723,0,0,0,.246.3,1.358,1.358,0,0,0,.394.246,3.225,3.225,0,0,0,.542.2,3.541,3.541,0,0,0,.836.1,3.393,3.393,0,0,0,1.083-.148c.246-.1.443-.2.542-.246a1.093,1.093,0,0,0,.443-.64,2.039,2.039,0,0,0,.148-.788h2.215v.64a2.877,2.877,0,0,1-.3,1.28,2.645,2.645,0,0,1-.935,1.033,4.137,4.137,0,0,1-1.23.541,7.374,7.374,0,0,1-1.969.246,6.968,6.968,0,0,1-1.526-.147,6.146,6.146,0,0,1-1.132-.345,3.061,3.061,0,0,1-.787-.492,5.866,5.866,0,0,1-.542-.59,2.812,2.812,0,0,1-.443-1.575v-7.678a7.378,7.378,0,0,1,.1-.837,2.112,2.112,0,0,1,.542-1.033,3.476,3.476,0,0,1,1.329-.886A5.4,5.4,0,0,1,238.193,904.206Zm2.215,3.79v-.246a1.679,1.679,0,0,0-.049-.492,1.488,1.488,0,0,0-.3-.542,2.027,2.027,0,0,0-.64-.394,3.5,3.5,0,0,0-1.132-.148,3.839,3.839,0,0,0-1.181.148,1.818,1.818,0,0,0-.689.394,1.5,1.5,0,0,0-.345.492,2.181,2.181,0,0,0-.1.492v2.707a.679.679,0,0,1,.246-.394.991.991,0,0,1,.394-.2,1.443,1.443,0,0,1,.443-.1,2.774,2.774,0,0,0,.345-.049h1.477a1.514,1.514,0,0,0,1.477-1.477V908Z" transform="translate(-233.813 -904.206)"/></g><g transform="translate(103.07 19.302)"><path class="c" d="M259.491,904.308h.787a3.468,3.468,0,0,1,.689.049l-.492,1.87h-1.034a2.588,2.588,0,0,0-1.132.2,1.249,1.249,0,0,0-.64.443,1.172,1.172,0,0,0-.3.541,1.836,1.836,0,0,0-.05.492v10.138h-2.215V907.507c0-.2.05-.443.1-.836a2.116,2.116,0,0,1,.541-1.034,3.481,3.481,0,0,1,1.329-.886A5.268,5.268,0,0,1,259.491,904.308Z" transform="translate(-255.111 -904.308)"/></g><g transform="translate(117.392 19.253)"><path class="c" d="M289.141,904.206a5.231,5.231,0,0,1,3.347.886,2.846,2.846,0,0,1,1.083,2.215v7.629a4.332,4.332,0,0,1-.148,1.033,2.581,2.581,0,0,1-.64,1.033,4.32,4.32,0,0,1-1.329.788,7.1,7.1,0,0,1-2.215.3,6.685,6.685,0,0,1-2.215-.3A2.9,2.9,0,0,1,285.7,917a1.936,1.936,0,0,1-.64-1.033,4.022,4.022,0,0,1-.148-1.033V913.7a3.214,3.214,0,0,1,.492-1.772,2.7,2.7,0,0,1,1.427-1.132,9.533,9.533,0,0,1,1.082-.344c.394-.148.788-.3,1.132-.394.394-.148.689-.246.984-.344a4.969,4.969,0,0,0,.542-.2.8.8,0,0,1,.3-.148,1.568,1.568,0,0,0,.345-.3,2.71,2.71,0,0,0,.3-.394.973.973,0,0,0,.1-.541v-.492a2.083,2.083,0,0,0-.1-.542,1.121,1.121,0,0,0-.345-.492,2.3,2.3,0,0,0-.689-.394,3.393,3.393,0,0,0-1.083-.147,2.173,2.173,0,0,0-1.723.542,1.927,1.927,0,0,0-.443,1.279h-2.215v-.64a3.428,3.428,0,0,1,.246-1.23,2.5,2.5,0,0,1,.787-.984,4.5,4.5,0,0,1,1.378-.689A9.931,9.931,0,0,1,289.141,904.206Zm2.215,6.89a.554.554,0,0,1-.246.394,1.462,1.462,0,0,1-.394.2c-.246.1-.541.2-.837.3s-.591.2-.837.3l-.886.3a3.665,3.665,0,0,0-.591.344,2.623,2.623,0,0,0-.443.542,1.409,1.409,0,0,0-.2.837,2.2,2.2,0,0,0,.443,1.476,2.474,2.474,0,0,0,1.723.492,2.386,2.386,0,0,0,1.772-.492,2.15,2.15,0,0,0,.443-1.427V911.1Z" transform="translate(-284.909 -904.206)"/></g><g transform="translate(127.875 30.72)"><path class="c" d="M306.72,928.065h2.215v2.264H306.72Z" transform="translate(-306.72 -928.065)"/></g><g transform="translate(132.107 19.302)"><path class="c" d="M322.022,908.049V907.8a2.1,2.1,0,0,0-.1-.542,1.133,1.133,0,0,0-.345-.492,2.309,2.309,0,0,0-.689-.394,3.378,3.378,0,0,0-1.083-.148,2.172,2.172,0,0,0-1.722.541,1.927,1.927,0,0,0-.443,1.28v6.3a2.2,2.2,0,0,0,.443,1.476,2.473,2.473,0,0,0,1.722.492,2.386,2.386,0,0,0,1.772-.492,2.153,2.153,0,0,0,.443-1.427h2.166v.738a4.357,4.357,0,0,1-.148,1.033,2.582,2.582,0,0,1-.64,1.034,4.324,4.324,0,0,1-1.328.787,7.093,7.093,0,0,1-2.215.295,6.677,6.677,0,0,1-2.215-.295,2.9,2.9,0,0,1-1.329-.787,1.936,1.936,0,0,1-.64-1.034,4.016,4.016,0,0,1-.148-1.033v-7.678a3.429,3.429,0,0,1,.246-1.23,2.5,2.5,0,0,1,.787-.984,4.518,4.518,0,0,1,1.378-.689,7.681,7.681,0,0,1,1.969-.246,5.137,5.137,0,0,1,3.347.886,2.8,2.8,0,0,1,1.034,2.214v.64Z" transform="translate(-315.526 -904.308)"/></g><g transform="translate(142.688 19.204)"><path class="c" d="M346.3,914.538v.394a7.283,7.283,0,0,1-.1.837,2.111,2.111,0,0,1-.541,1.033,3.476,3.476,0,0,1-1.329.886,7.575,7.575,0,0,1-4.823,0,3.474,3.474,0,0,1-1.328-.886,2.112,2.112,0,0,1-.542-1.033,7.393,7.393,0,0,1-.1-.837v-7.678c0-.2.049-.443.1-.837a2.114,2.114,0,0,1,.542-1.033,3.475,3.475,0,0,1,1.328-.886,7.585,7.585,0,0,1,4.823,0,3.477,3.477,0,0,1,1.329.886,2.113,2.113,0,0,1,.541,1.033,7.283,7.283,0,0,1,.1.837Zm-2.165-.246V907.7a1.752,1.752,0,0,0-.1-.492.832.832,0,0,0-.345-.492,1.807,1.807,0,0,0-.689-.394,3.834,3.834,0,0,0-1.181-.148,3.71,3.71,0,0,0-1.132.148,1.577,1.577,0,0,0-.64.394,1.171,1.171,0,0,0-.3.541,1.854,1.854,0,0,0-.049.492v6.792a1.853,1.853,0,0,0,.049.492,1.477,1.477,0,0,0,.3.541,2.015,2.015,0,0,0,.64.394,3.5,3.5,0,0,0,1.132.148,3.834,3.834,0,0,0,1.181-.148,1.808,1.808,0,0,0,.689-.394,1.5,1.5,0,0,0,.345-.492,2.171,2.171,0,0,0,.1-.492Z" transform="translate(-337.541 -904.104)"/></g><g transform="translate(153.319 19.302)"><path class="c" d="M375.113,917.99H372.9V907.8a1.679,1.679,0,0,0-.049-.492,1.481,1.481,0,0,0-.3-.542,1.588,1.588,0,0,0-.64-.394,3.709,3.709,0,0,0-1.132-.148,3.84,3.84,0,0,0-1.181.148,1.819,1.819,0,0,0-.689.394,1.512,1.512,0,0,0-.345.492,2.18,2.18,0,0,0-.1.492V917.99h-2.215V907.8a1.679,1.679,0,0,0-.049-.492,1.479,1.479,0,0,0-.3-.542,1.59,1.59,0,0,0-.64-.394,3.709,3.709,0,0,0-1.132-.148,3.834,3.834,0,0,0-1.181.148,1.817,1.817,0,0,0-.689.394,1.512,1.512,0,0,0-.345.492,2.177,2.177,0,0,0-.1.492V917.99h-2.166V907.458a7.393,7.393,0,0,1,.1-.837,2.111,2.111,0,0,1,.541-1.033,3.48,3.48,0,0,1,1.329-.886,6.3,6.3,0,0,1,2.412-.394,7.254,7.254,0,0,1,2.018.246,3.874,3.874,0,0,1,1.279.591,3.873,3.873,0,0,1,1.28-.591,7.514,7.514,0,0,1,2.018-.246,6.3,6.3,0,0,1,2.411.394,3.476,3.476,0,0,1,1.329.886,2.111,2.111,0,0,1,.541,1.033,7.292,7.292,0,0,1,.1.837V917.99Z" transform="translate(-359.659 -904.308)"/></g><g transform="translate(111.338 14.085)"><g transform="translate(0.197 5.414)"><path class="c" d="M272.724,904.718h2.165V918.2h-2.165Z" transform="translate(-272.724 -904.718)"/></g><g transform="translate(0)"><path class="c" d="M274.529,893.454v2.658h-2.215v-2.658Z" transform="translate(-272.314 -893.454)"/></g></g></svg>