<svg xmlns="http://www.w3.org/2000/svg" width="189.894" height="45.219" viewBox="0 0 189.894 45.219"><defs><style>.a{fill:#fff;}</style></defs><g transform="translate(-523.5 -860.638)"><g transform="translate(523.5 860.638)"><path class="a" d="M556.424,891.676a2.479,2.479,0,0,0-.824-.482,4.118,4.118,0,0,0-1.43-.2,3.764,3.764,0,0,0-1.353.2,2.075,2.075,0,0,0-.793.513,1.461,1.461,0,0,0-.357.638,2.611,2.611,0,0,0-.078.606v7.306q.28-.093.7-.248t.886-.311q.466-.156.933-.327t.84-.3l.373-.124c.125-.041.238-.082.342-.124a1.6,1.6,0,0,0,1.026-.777,2.28,2.28,0,0,0,.218-.9v-4.26a2.206,2.206,0,0,0-.093-.606A1.347,1.347,0,0,0,556.424,891.676Z" transform="translate(-535.51 -873.616)"/><path class="a" d="M546.855,868.88a8.925,8.925,0,0,1,.217-2.545c.043-.128.153-.633.292-.728.432-.3.252-.2.884-.651.171-.121.479-.56.659-.6.26-.054.895-.058,1.166-.128.108-.007.8-.5,1.139-.585.179-.077.491-.6.724-.624.025-.251.069-.485.086-.741-.789,0-1.222.03-1.494-.483.47.044.519-.088.84-.213.106-.043.162-.039.227-.171-.031-.172-.385-.24-.542-.306a3.186,3.186,0,0,0-.452-.212,5.945,5.945,0,0,0-.734-.078c-.2-.027-.385-.13-.559-.132s-.341.08-.5.078a3.523,3.523,0,0,0-.478-.053,11.492,11.492,0,0,1-2.392.533c-.882-.1-2.047-.24-2.93-.356-1.077-.14-2.4-.207-3.8-.25-1.1.107-1.451.641-2.136,1.12a.373.373,0,0,0-.509.2.4.4,0,0,0,.117.458c-.1.452-.422.417-.394,1.27a.911.911,0,0,0-.279.8c.119.593.619.674.8.836.342.3.427.229.455.868.007.152.023.858.042,1.01a4.242,4.242,0,0,1,.177,1.732,18.772,18.772,0,1,0,9.376-.054Zm-8.13-2.545c.611-.611.564-1.07.782-1.307,1.024-.016,1.461.658,1.962.667.275.009.313-.156.427-.242.3-.049.633.01,1.063-.028a7.558,7.558,0,0,1,2.364.3,2.219,2.219,0,0,1,.5,1.119,9.47,9.47,0,0,1,.2,1.847,18.8,18.8,0,0,0-7.271-.041,3.44,3.44,0,0,1-.011-.906C538.768,867.486,538.686,866.657,538.725,866.335Zm3.548,37.548a16.8,16.8,0,1,1,16.8-16.8A16.816,16.816,0,0,1,542.273,903.883Z" transform="translate(-523.5 -860.638)"/><path class="a" d="M544.112,878.349a16.309,16.309,0,1,0,16.308,16.31A16.328,16.328,0,0,0,544.112,878.349Zm5.266,13.86a3.513,3.513,0,0,1-.73,2.114,4.632,4.632,0,0,1-2.5,1.523.478.478,0,0,0-.186.062q-.467.156-1.011.342t-1.01.342q-.56.186-1.057.373a2.417,2.417,0,0,0-.715.311,2.237,2.237,0,0,0-.513.482,1.193,1.193,0,0,0-.233.761v7.524h-2.643V887.016a5.512,5.512,0,0,1,.124-.979,2.727,2.727,0,0,1,.669-1.259,4.362,4.362,0,0,1,1.6-1.073,9.693,9.693,0,0,1,5.845,0,4.21,4.21,0,0,1,1.586,1.073,2.792,2.792,0,0,1,.653,1.259,5.569,5.569,0,0,1,.124.979Z" transform="translate(-525.339 -868.21)"/></g><g transform="translate(568.333 875.202)"><path class="a" d="M610.563,893.312v.154a2.894,2.894,0,0,1-.6,1.744,3.817,3.817,0,0,1-2.064,1.257.391.391,0,0,0-.154.052q-.385.129-.834.282t-.833.282q-.462.155-.872.308a2,2,0,0,0-.59.256,1.851,1.851,0,0,0-.424.4.986.986,0,0,0-.192.629v6.206h-2.18v-15.7a4.573,4.573,0,0,1,.1-.808,2.254,2.254,0,0,1,.552-1.039,3.6,3.6,0,0,1,1.321-.884,7.993,7.993,0,0,1,4.821,0,3.476,3.476,0,0,1,1.308.884,2.3,2.3,0,0,1,.539,1.039,4.578,4.578,0,0,1,.1.808v4.129Zm-5.988,2.128q.346-.128.731-.256t.769-.269q.385-.141.693-.244l.307-.1c.1-.034.2-.068.282-.1a1.326,1.326,0,0,0,.847-.641,1.89,1.89,0,0,0,.179-.744v-3.513a1.841,1.841,0,0,0-.077-.5,1.12,1.12,0,0,0-.321-.5,2.054,2.054,0,0,0-.68-.4,3.4,3.4,0,0,0-1.179-.167,3.111,3.111,0,0,0-1.116.167,1.714,1.714,0,0,0-.654.423,1.219,1.219,0,0,0-.295.526,2.16,2.16,0,0,0-.064.5v6.027Q604.229,895.569,604.575,895.441Z" transform="translate(-601.818 -886.08)"/><path class="a" d="M629.368,905.356v.412a4.478,4.478,0,0,1-.1.824,2.3,2.3,0,0,1-.541,1.03,3.489,3.489,0,0,1-1.314.89,8.045,8.045,0,0,1-4.844,0,3.478,3.478,0,0,1-1.314-.89,2.292,2.292,0,0,1-.541-1.043,4.528,4.528,0,0,1-.1-.812v-7.626a4.541,4.541,0,0,1,.1-.812,2.3,2.3,0,0,1,.541-1.043,3.485,3.485,0,0,1,1.314-.889,8.033,8.033,0,0,1,4.844,0,3.5,3.5,0,0,1,1.314.889,2.31,2.31,0,0,1,.541,1.03,4.482,4.482,0,0,1,.1.824Zm-2.19-.258v-6.57a1.832,1.832,0,0,0-.078-.5,1.114,1.114,0,0,0-.322-.5,2.064,2.064,0,0,0-.683-.4,3.417,3.417,0,0,0-1.185-.167,3.127,3.127,0,0,0-1.121.167,1.808,1.808,0,0,0-.657.412,1.127,1.127,0,0,0-.3.528,2.268,2.268,0,0,0-.065.489v6.8a2.259,2.259,0,0,0,.065.489,1.122,1.122,0,0,0,.3.528,1.791,1.791,0,0,0,.657.412,3.1,3.1,0,0,0,1.121.168,3.39,3.39,0,0,0,1.185-.168,2.044,2.044,0,0,0,.683-.4,1.115,1.115,0,0,0,.322-.5,1.836,1.836,0,0,0,.078-.5Z" transform="translate(-609.852 -889.904)"/><path class="a" d="M643.575,895.058q.438,0,.76-.013a3.817,3.817,0,0,1,.682.038l-.49,1.881q-.309,0-.515.013c-.137.009-.3.013-.489.013a2.912,2.912,0,0,0-1.121.18,1.933,1.933,0,0,0-.657.425,1.132,1.132,0,0,0-.3.515,2.175,2.175,0,0,0-.065.5v10.074H639.2V898.175a4.586,4.586,0,0,1,.1-.812,2.308,2.308,0,0,1,.541-1.044,3.491,3.491,0,0,1,1.314-.888A6.336,6.336,0,0,1,643.575,895.058Z" transform="translate(-617.799 -889.912)"/><path class="a" d="M657.537,898.76V898.5a1.483,1.483,0,0,0-.1-.528,1.31,1.31,0,0,0-.361-.5,1.916,1.916,0,0,0-.683-.374,3.443,3.443,0,0,0-1.069-.141,2.236,2.236,0,0,0-1.739.528,1.9,1.9,0,0,0-.451,1.275v6.261a2.016,2.016,0,0,0,.464,1.456,2.4,2.4,0,0,0,1.727.477,2.357,2.357,0,0,0,1.752-.5,2.032,2.032,0,0,0,.464-1.43H659.7v.747a3.538,3.538,0,0,1-.168,1.018,2.339,2.339,0,0,1-.657,1.018,3.833,3.833,0,0,1-1.34.773,8.1,8.1,0,0,1-4.431,0,3.819,3.819,0,0,1-1.34-.773,2.334,2.334,0,0,1-.657-1.018,3.536,3.536,0,0,1-.167-1.018v-7.626a3.023,3.023,0,0,1,.244-1.211,2.54,2.54,0,0,1,.786-.992,4.05,4.05,0,0,1,1.365-.67,7.034,7.034,0,0,1,1.984-.245,5.1,5.1,0,0,1,3.336.889,2.808,2.808,0,0,1,1.044,2.229v.618Z" transform="translate(-622.821 -889.904)"/><path class="a" d="M672.233,886.293v2.6h-2.164v-2.6Zm-2.164,5.2h2.164v13.449h-2.164Z" transform="translate(-630.999 -886.171)"/><path class="a" d="M683.73,898.76V898.5a1.483,1.483,0,0,0-.1-.528,1.315,1.315,0,0,0-.361-.5,1.92,1.92,0,0,0-.683-.374,3.447,3.447,0,0,0-1.069-.141,2.238,2.238,0,0,0-1.739.528,1.9,1.9,0,0,0-.451,1.275v6.261a2.016,2.016,0,0,0,.464,1.456,2.4,2.4,0,0,0,1.726.477,2.358,2.358,0,0,0,1.752-.5,2.032,2.032,0,0,0,.464-1.43h2.164v.747a3.536,3.536,0,0,1-.167,1.018,2.339,2.339,0,0,1-.657,1.018,3.823,3.823,0,0,1-1.339.773,8.1,8.1,0,0,1-4.431,0,3.827,3.827,0,0,1-1.34-.773,2.328,2.328,0,0,1-.657-1.018,3.518,3.518,0,0,1-.168-1.018v-7.626a3.013,3.013,0,0,1,.245-1.211,2.538,2.538,0,0,1,.785-.992,4.059,4.059,0,0,1,1.366-.67,7.03,7.03,0,0,1,1.984-.245,5.1,5.1,0,0,1,3.337.889,2.807,2.807,0,0,1,1.043,2.229v.618Z" transform="translate(-634.019 -889.904)"/><path class="a" d="M704.482,905.413v.464a4.49,4.49,0,0,1-.1.825,2.306,2.306,0,0,1-.541,1.03,3.49,3.49,0,0,1-1.314.89,8.046,8.046,0,0,1-4.844,0,3.481,3.481,0,0,1-1.314-.89,2.293,2.293,0,0,1-.541-1.043,4.533,4.533,0,0,1-.1-.812V895.34h2.164v9.867h.026v.258a2.251,2.251,0,0,0,.065.489,1.171,1.171,0,0,0,.283.528,1.655,1.655,0,0,0,.644.412,3.2,3.2,0,0,0,1.147.168,3.4,3.4,0,0,0,1.185-.168,1.885,1.885,0,0,0,.67-.4,1.16,1.16,0,0,0,.309-.5,1.834,1.834,0,0,0,.077-.5v-.283h.026V895.34h2.164Z" transform="translate(-641.967 -890.039)"/><path class="a" d="M715.479,886.248h2.164v18.679h-2.164Z" transform="translate(-650.414 -886.152)"/><path class="a" d="M728.6,904.188v1.933a6.315,6.315,0,0,1-2.421-.374,3.6,3.6,0,0,1-1.327-.888,2.256,2.256,0,0,1-.554-1.044,4.573,4.573,0,0,1-.1-.812v-8.708h-1.649v-1.83h1.649v-3.426h2.19v3.426H728.6v1.83h-2.215v8.27a2.173,2.173,0,0,0,.064.5,1.215,1.215,0,0,0,.3.528,1.7,1.7,0,0,0,.657.425,3.113,3.113,0,0,0,1.121.167Z" transform="translate(-653.435 -887.345)"/><path class="a" d="M743.906,905.413v.464a4.5,4.5,0,0,1-.1.825,2.313,2.313,0,0,1-.541,1.03,3.489,3.489,0,0,1-1.314.89,8.045,8.045,0,0,1-4.844,0,3.476,3.476,0,0,1-1.314-.89,2.292,2.292,0,0,1-.541-1.043,4.541,4.541,0,0,1-.1-.812V895.34h2.164v9.867h.026v.258a2.254,2.254,0,0,0,.064.489,1.175,1.175,0,0,0,.284.528,1.657,1.657,0,0,0,.644.412,3.2,3.2,0,0,0,1.146.168,3.408,3.408,0,0,0,1.186-.168,1.885,1.885,0,0,0,.67-.4,1.161,1.161,0,0,0,.309-.5,1.836,1.836,0,0,0,.077-.5v-.283h.026V895.34h2.164Z" transform="translate(-658.823 -890.039)"/><path class="a" d="M758.114,895.058q.438,0,.76-.013a3.822,3.822,0,0,1,.683.038l-.489,1.881q-.309,0-.515.013c-.138.009-.3.013-.49.013a2.911,2.911,0,0,0-1.121.18,1.933,1.933,0,0,0-.657.425,1.125,1.125,0,0,0-.3.515,2.148,2.148,0,0,0-.065.5v10.074h-2.19V898.175a4.53,4.53,0,0,1,.1-.812,2.3,2.3,0,0,1,.541-1.044,3.492,3.492,0,0,1,1.314-.888A6.336,6.336,0,0,1,758.114,895.058Z" transform="translate(-666.77 -889.912)"/><path class="a" d="M769.86,895.024a5.11,5.11,0,0,1,3.324.889,2.794,2.794,0,0,1,1.056,2.229v7.626a3.536,3.536,0,0,1-.167,1.018,2.334,2.334,0,0,1-.657,1.018,3.824,3.824,0,0,1-1.34.773,8.1,8.1,0,0,1-4.431,0,3.828,3.828,0,0,1-1.34-.773,2.328,2.328,0,0,1-.656-1.018,3.518,3.518,0,0,1-.168-1.018v-1.211a3.274,3.274,0,0,1,.5-1.778,2.738,2.738,0,0,1,1.43-1.134q.464-.155,1.056-.361l1.147-.4q.554-.194.966-.348c.274-.1.447-.163.515-.18.068-.034.159-.081.27-.142a1.141,1.141,0,0,0,.322-.271,1.957,1.957,0,0,0,.27-.412,1.192,1.192,0,0,0,.116-.541v-.49a1.482,1.482,0,0,0-.1-.528,1.316,1.316,0,0,0-.361-.5,1.921,1.921,0,0,0-.683-.374,3.448,3.448,0,0,0-1.069-.141,2.238,2.238,0,0,0-1.739.528,1.9,1.9,0,0,0-.451,1.275h-2.19v-.618a3.013,3.013,0,0,1,.245-1.211,2.534,2.534,0,0,1,.786-.992,4.051,4.051,0,0,1,1.365-.67A7.029,7.029,0,0,1,769.86,895.024Zm2.216,6.828a.563.563,0,0,1-.258.386,1.5,1.5,0,0,1-.386.18q-.386.13-.837.3t-.838.3q-.464.155-.876.31a2.365,2.365,0,0,0-.592.361,2.255,2.255,0,0,0-.425.528,1.558,1.558,0,0,0-.193.812,2.016,2.016,0,0,0,.464,1.456,2.4,2.4,0,0,0,1.726.477,2.359,2.359,0,0,0,1.752-.5,2.032,2.032,0,0,0,.464-1.43Z" transform="translate(-671.792 -889.904)"/><path class="a" d="M784.067,914.917h2.216v2.268h-2.216Z" transform="translate(-679.739 -898.409)"/><path class="a" d="M797.819,898.76V898.5a1.483,1.483,0,0,0-.1-.528,1.315,1.315,0,0,0-.361-.5,1.92,1.92,0,0,0-.683-.374,3.446,3.446,0,0,0-1.069-.141,2.238,2.238,0,0,0-1.739.528,1.9,1.9,0,0,0-.451,1.275v6.261a2.016,2.016,0,0,0,.464,1.456,2.4,2.4,0,0,0,1.726.477,2.359,2.359,0,0,0,1.752-.5,2.032,2.032,0,0,0,.464-1.43h2.164v.747a3.536,3.536,0,0,1-.167,1.018,2.339,2.339,0,0,1-.657,1.018,3.824,3.824,0,0,1-1.34.773,8.1,8.1,0,0,1-4.431,0,3.827,3.827,0,0,1-1.34-.773,2.328,2.328,0,0,1-.657-1.018,3.52,3.52,0,0,1-.168-1.018v-7.626a3.015,3.015,0,0,1,.245-1.211,2.538,2.538,0,0,1,.785-.992,4.059,4.059,0,0,1,1.366-.67,7.029,7.029,0,0,1,1.984-.245,5.1,5.1,0,0,1,3.337.889,2.807,2.807,0,0,1,1.043,2.229v.618Z" transform="translate(-682.798 -889.904)"/><path class="a" d="M818.57,905.356v.412a4.479,4.479,0,0,1-.1.824,2.31,2.31,0,0,1-.542,1.03,3.478,3.478,0,0,1-1.314.89,8.044,8.044,0,0,1-4.844,0,3.476,3.476,0,0,1-1.314-.89,2.3,2.3,0,0,1-.541-1.043,4.574,4.574,0,0,1-.1-.812v-7.626a4.587,4.587,0,0,1,.1-.812,2.308,2.308,0,0,1,.541-1.043,3.483,3.483,0,0,1,1.314-.889,8.031,8.031,0,0,1,4.844,0,3.485,3.485,0,0,1,1.314.889,2.316,2.316,0,0,1,.542,1.03,4.483,4.483,0,0,1,.1.824Zm-2.19-.258v-6.57a1.832,1.832,0,0,0-.077-.5,1.12,1.12,0,0,0-.322-.5,2.066,2.066,0,0,0-.683-.4,3.424,3.424,0,0,0-1.185-.167,3.124,3.124,0,0,0-1.12.167,1.807,1.807,0,0,0-.657.412,1.135,1.135,0,0,0-.3.528,2.259,2.259,0,0,0-.064.489v6.8a2.251,2.251,0,0,0,.064.489,1.129,1.129,0,0,0,.3.528,1.791,1.791,0,0,0,.657.412,3.1,3.1,0,0,0,1.12.168,3.4,3.4,0,0,0,1.185-.168,2.045,2.045,0,0,0,.683-.4,1.121,1.121,0,0,0,.322-.5,1.836,1.836,0,0,0,.077-.5Z" transform="translate(-690.745 -889.904)"/><path class="a" d="M843.753,908.679h-2.19V898.554a2.206,2.206,0,0,0-.064-.5,1.188,1.188,0,0,0-.284-.516,1.672,1.672,0,0,0-.644-.412,3.215,3.215,0,0,0-1.146-.167,3.436,3.436,0,0,0-1.172.167,2.032,2.032,0,0,0-.7.4,1.111,1.111,0,0,0-.322.5,1.762,1.762,0,0,0-.077.476v10.177h-2.19V898.554a2.178,2.178,0,0,0-.065-.5,1.187,1.187,0,0,0-.283-.516,1.677,1.677,0,0,0-.644-.412,3.219,3.219,0,0,0-1.147-.167,3.441,3.441,0,0,0-1.172.167,2.043,2.043,0,0,0-.7.4,1.111,1.111,0,0,0-.322.5,1.762,1.762,0,0,0-.077.476v10.177H828.4V898.142a4.392,4.392,0,0,1,.1-.824,2.3,2.3,0,0,1,.541-1.03,3.487,3.487,0,0,1,1.314-.889,6.336,6.336,0,0,1,2.422-.374,6.949,6.949,0,0,1,2.022.245,1.647,1.647,0,0,0,2.551,0,6.944,6.944,0,0,1,2.022-.245,6.333,6.333,0,0,1,2.422.374,3.493,3.493,0,0,1,1.314.889,2.32,2.32,0,0,1,.541,1.043,4.64,4.64,0,0,1,.1.812v10.538Z" transform="translate(-698.693 -889.904)"/></g></g></svg>