<?xml version="1.0" encoding="utf-8"?>
<!-- Generator: Adobe Illustrator 25.0.1, SVG Export Plug-In . SVG Version: 6.00 Build 0)  -->
<svg version="1.1" id="Layer_1" xmlns="http://www.w3.org/2000/svg" xmlns:xlink="http://www.w3.org/1999/xlink" x="0px" y="0px"
	 viewBox="0 0 220.76 56.79" style="enable-background:new 0 0 220.76 56.79;" xml:space="preserve">
<style type="text/css">
	.st0{fill:#FFFFFF;}
</style>
<g>
	<g>
		<g>
			<path class="st0" d="M64.26,27.01v0.16c0,0.71-0.22,1.36-0.65,1.95s-1.25,1.08-2.33,1.41c-0.05,0-0.11,0-0.16,0.05
				c-0.27,0.11-0.6,0.22-0.92,0.33c-0.33,0.11-0.65,0.22-0.92,0.33c-0.33,0.11-0.65,0.22-0.98,0.33c-0.22,0.05-0.43,0.16-0.65,0.27
				c-0.16,0.11-0.33,0.27-0.49,0.43c-0.16,0.16-0.22,0.43-0.22,0.71v0.05v6.94h-2.5V23.11v-0.76c0-0.22,0.05-0.49,0.11-0.92
				c0.05-0.38,0.27-0.76,0.6-1.14c0.33-0.38,0.81-0.71,1.46-0.98s1.57-0.43,2.71-0.43c1.14,0,2.06,0.16,2.71,0.43
				s1.14,0.6,1.46,0.98s0.54,0.76,0.6,1.14c0.05,0.38,0.11,0.71,0.11,0.92v0.6v4.07H64.26z M57.53,29.4
				c0.27-0.11,0.54-0.22,0.81-0.27c0.27-0.11,0.6-0.22,0.87-0.33c0.27-0.11,0.54-0.22,0.76-0.27c0.11-0.05,0.22-0.05,0.33-0.11
				c0.11-0.05,0.22-0.05,0.33-0.11c0.49-0.16,0.81-0.43,0.98-0.71c0.11-0.33,0.22-0.6,0.22-0.81v-0.33v-3.36v-0.33
				c0-0.16-0.05-0.38-0.11-0.54c-0.05-0.22-0.16-0.38-0.38-0.54c-0.16-0.16-0.43-0.33-0.76-0.43c-0.33-0.11-0.76-0.16-1.3-0.16
				s-0.92,0.05-1.25,0.16c-0.33,0.11-0.54,0.27-0.76,0.49c-0.16,0.22-0.27,0.38-0.33,0.6c-0.05,0.22-0.05,0.38-0.05,0.54v0.27v6.51
				C57.05,29.56,57.26,29.51,57.53,29.4z"/>
		</g>
		<g>
			<path class="st0" d="M76.36,36.23v0.49c0,0.22-0.05,0.54-0.11,0.92c-0.05,0.38-0.27,0.76-0.6,1.14
				c-0.33,0.38-0.81,0.71-1.46,0.98c-0.65,0.27-1.57,0.43-2.71,0.43s-2.06-0.16-2.71-0.43c-0.65-0.27-1.14-0.6-1.46-0.98
				c-0.33-0.38-0.54-0.76-0.6-1.19c-0.05-0.38-0.11-0.71-0.11-0.92v-0.33V28.1c0-0.22,0.05-0.54,0.11-0.92
				c0.05-0.38,0.27-0.76,0.6-1.19c0.33-0.38,0.81-0.71,1.46-0.98c0.65-0.27,1.57-0.43,2.71-0.43s2.06,0.16,2.71,0.43
				c0.65,0.27,1.14,0.6,1.46,0.98c0.33,0.38,0.54,0.76,0.6,1.14c0.05,0.38,0.11,0.71,0.11,0.92V36.23z M73.86,35.96v-7.05v-0.33
				c0-0.16-0.05-0.38-0.11-0.54c-0.05-0.22-0.16-0.38-0.38-0.54c-0.16-0.16-0.43-0.33-0.76-0.43c-0.33-0.11-0.76-0.16-1.36-0.16
				c-0.54,0-0.92,0.05-1.25,0.16c-0.33,0.11-0.54,0.27-0.76,0.49c-0.16,0.16-0.27,0.38-0.33,0.6c-0.05,0.22-0.05,0.38-0.05,0.54
				v0.27v7.05v0.27c0,0.16,0,0.33,0.05,0.54s0.16,0.43,0.33,0.6c0.16,0.16,0.43,0.33,0.76,0.49c0.33,0.11,0.76,0.16,1.25,0.16
				c0.54,0,0.98-0.05,1.36-0.16c0.33-0.11,0.6-0.27,0.76-0.43c0.16-0.16,0.33-0.38,0.38-0.54c0.05-0.22,0.11-0.38,0.11-0.54V35.96z"
				/>
		</g>
		<g>
			<path class="st0" d="M83.35,24.68c0.33,0,0.6,0,0.87,0c0.22,0,0.49,0,0.76,0.05l-0.54,2.12c-0.22,0-0.43,0-0.6,0s-0.33,0-0.54,0
				c-0.54,0-0.92,0.05-1.25,0.22c-0.33,0.11-0.54,0.27-0.76,0.49c-0.16,0.16-0.27,0.38-0.33,0.6c-0.05,0.22-0.05,0.38-0.05,0.54
				v0.27v11.07h-2.44V28.91v-0.65c0-0.22,0.05-0.54,0.11-0.92s0.27-0.76,0.6-1.19c0.33-0.38,0.81-0.71,1.46-0.98
				C81.29,24.79,82.21,24.68,83.35,24.68z"/>
		</g>
		<g>
			<path class="st0" d="M93.39,28.8v-0.27c0-0.22-0.05-0.38-0.11-0.6c-0.05-0.22-0.22-0.38-0.38-0.54
				c-0.22-0.16-0.43-0.33-0.76-0.43c-0.33-0.11-0.71-0.16-1.19-0.16c-0.98,0-1.63,0.22-1.95,0.6c-0.33,0.38-0.49,0.87-0.49,1.41v7
				c0,0.76,0.16,1.3,0.54,1.63c0.33,0.38,0.98,0.54,1.95,0.54c0.98,0,1.63-0.16,1.95-0.54c0.33-0.38,0.54-0.92,0.54-1.63h2.44v0.81
				c0,0.33-0.05,0.71-0.16,1.14c-0.11,0.43-0.38,0.81-0.76,1.14c-0.38,0.33-0.87,0.65-1.52,0.87c-0.65,0.22-1.46,0.33-2.5,0.33
				c-1.03,0-1.84-0.11-2.5-0.33c-0.65-0.22-1.14-0.54-1.52-0.87c-0.38-0.33-0.6-0.71-0.76-1.14c-0.11-0.43-0.16-0.81-0.16-1.14
				v-1.36v-6.51v-0.71c0-0.49,0.11-0.92,0.27-1.36c0.16-0.43,0.49-0.81,0.87-1.14c0.38-0.33,0.92-0.54,1.52-0.76
				c0.6-0.16,1.36-0.27,2.22-0.27c1.74,0,2.98,0.33,3.74,0.98s1.19,1.52,1.19,2.5v0.71h-2.5V28.8z"/>
		</g>
		<g>
			<path class="st0" d="M100.71,19.04v2.93h-2.44v-2.93H100.71z M98.27,24.84h2.44v15.08h-2.44V24.84z"/>
		</g>
		<g>
			<path class="st0" d="M110.2,28.8v-0.27c0-0.22-0.05-0.38-0.11-0.6c-0.05-0.22-0.22-0.38-0.38-0.54
				c-0.22-0.16-0.43-0.33-0.76-0.43c-0.33-0.11-0.71-0.16-1.19-0.16c-0.98,0-1.63,0.22-1.95,0.6c-0.33,0.38-0.49,0.87-0.49,1.41v7
				c0,0.76,0.16,1.3,0.54,1.63c0.33,0.38,0.98,0.54,1.95,0.54c0.98,0,1.63-0.16,1.95-0.54s0.54-0.92,0.54-1.63h2.44v0.81
				c0,0.33-0.05,0.71-0.16,1.14c-0.11,0.43-0.38,0.81-0.76,1.14c-0.38,0.33-0.87,0.65-1.52,0.87c-0.65,0.22-1.46,0.33-2.5,0.33
				c-1.03,0-1.84-0.11-2.5-0.33c-0.65-0.22-1.14-0.54-1.52-0.87c-0.38-0.33-0.6-0.71-0.76-1.14c-0.11-0.43-0.16-0.81-0.16-1.14
				v-1.36v-6.51v-0.71c0-0.49,0.11-0.92,0.27-1.36c0.16-0.43,0.49-0.81,0.87-1.14c0.38-0.33,0.92-0.54,1.52-0.76
				c0.6-0.16,1.36-0.27,2.22-0.27c1.74,0,2.98,0.33,3.74,0.98s1.19,1.52,1.19,2.5v0.71h-2.5V28.8z"/>
		</g>
		<g>
			<path class="st0" d="M124.58,36.13v0.54c0,0.22-0.05,0.54-0.11,0.92c-0.05,0.38-0.27,0.76-0.6,1.14
				c-0.33,0.38-0.81,0.71-1.46,0.98s-1.57,0.43-2.71,0.43c-1.14,0-2.06-0.16-2.71-0.43s-1.14-0.6-1.46-0.98
				c-0.33-0.38-0.54-0.76-0.6-1.19c-0.05-0.38-0.11-0.71-0.11-0.92v-0.33V24.84h2.44v11.07h0.05v0.27c0,0.16,0,0.33,0.05,0.54
				c0.05,0.22,0.16,0.43,0.33,0.6c0.16,0.16,0.38,0.33,0.71,0.49c0.33,0.11,0.76,0.16,1.3,0.16s0.98-0.05,1.36-0.16
				c0.33-0.11,0.6-0.27,0.76-0.43c0.16-0.16,0.27-0.38,0.33-0.54c0.05-0.22,0.11-0.38,0.11-0.54v-0.33h0.05V24.84h2.44v11.28H124.58
				z"/>
		</g>
		<g>
			<path class="st0" d="M127.45,18.99h2.44v20.94h-2.44V18.99z"/>
		</g>
		<g>
			<path class="st0" d="M138.74,37.81v2.17c-1.14,0-2.06-0.16-2.71-0.43s-1.14-0.6-1.46-0.98c-0.33-0.38-0.54-0.76-0.6-1.19
				c-0.05-0.38-0.11-0.71-0.11-0.92v-0.54v-9.28h-1.84v-2.06h1.84v-3.85h2.44v3.85h2.5v2.06h-2.5v9.06v0.27c0,0.16,0,0.38,0.05,0.54
				c0.05,0.22,0.16,0.38,0.33,0.6s0.43,0.33,0.76,0.49c0.33,0.11,0.76,0.16,1.25,0.16h0.05V37.81z"/>
		</g>
		<g>
			<path class="st0" d="M149.91,36.13v0.54c0,0.22-0.05,0.54-0.11,0.92c-0.05,0.38-0.27,0.76-0.6,1.14
				c-0.33,0.38-0.81,0.71-1.46,0.98s-1.57,0.43-2.71,0.43c-1.14,0-2.06-0.16-2.71-0.43s-1.14-0.6-1.46-0.98
				c-0.33-0.38-0.54-0.76-0.6-1.19c-0.05-0.38-0.11-0.71-0.11-0.92v-0.33V24.84h2.44v11.07h0.05v0.27c0,0.16,0,0.33,0.05,0.54
				s0.16,0.43,0.33,0.6c0.16,0.16,0.38,0.33,0.71,0.49c0.33,0.11,0.76,0.16,1.3,0.16s0.98-0.05,1.36-0.16
				c0.33-0.11,0.6-0.27,0.76-0.43c0.16-0.16,0.27-0.38,0.33-0.54c0.05-0.22,0.11-0.38,0.11-0.54v-0.33h0.05V24.84h2.44v11.28H149.91
				z"/>
		</g>
		<g>
			<path class="st0" d="M156.91,24.68c0.33,0,0.6,0,0.87,0c0.22,0,0.49,0,0.76,0.05l-0.54,2.12c-0.22,0-0.43,0-0.6,0s-0.33,0-0.54,0
				c-0.54,0-0.92,0.05-1.25,0.22c-0.33,0.11-0.54,0.27-0.76,0.49c-0.16,0.16-0.27,0.38-0.33,0.6c-0.05,0.22-0.05,0.38-0.05,0.54
				v0.27v11.07h-2.44V28.91v-0.65c0-0.22,0.05-0.54,0.11-0.92s0.27-0.76,0.6-1.19c0.33-0.38,0.81-0.71,1.46-0.98
				C154.85,24.79,155.77,24.68,156.91,24.68z"/>
		</g>
		<g>
			<path class="st0" d="M164.45,24.63c1.68,0,2.93,0.33,3.74,0.98c0.81,0.65,1.19,1.52,1.19,2.5v1.41v6.35v0.81
				c0,0.33-0.05,0.71-0.16,1.14c-0.11,0.43-0.38,0.81-0.76,1.14c-0.38,0.33-0.87,0.65-1.52,0.87s-1.46,0.33-2.5,0.33
				c-1.03,0-1.84-0.11-2.5-0.33c-0.65-0.22-1.14-0.54-1.52-0.87c-0.38-0.33-0.6-0.71-0.76-1.14c-0.11-0.43-0.16-0.81-0.16-1.14
				v-1.36c0-0.71,0.16-1.41,0.54-2.01c0.38-0.6,0.92-1.03,1.63-1.25c0.33-0.11,0.76-0.27,1.19-0.38c0.43-0.16,0.87-0.33,1.3-0.43
				c0.43-0.16,0.76-0.27,1.08-0.38c0.33-0.11,0.49-0.16,0.6-0.22c0.05-0.05,0.16-0.11,0.33-0.16c0.11-0.05,0.27-0.16,0.38-0.33
				c0.11-0.11,0.22-0.27,0.33-0.49c0.11-0.16,0.11-0.38,0.11-0.6v-0.54c0-0.22-0.05-0.38-0.11-0.6c-0.05-0.22-0.22-0.38-0.38-0.54
				c-0.22-0.16-0.43-0.33-0.76-0.43s-0.71-0.16-1.19-0.16c-0.98,0-1.63,0.22-1.95,0.6c-0.33,0.38-0.49,0.87-0.49,1.41h-2.44V28.1
				c0-0.49,0.11-0.92,0.27-1.36c0.16-0.43,0.49-0.81,0.87-1.14s0.92-0.54,1.52-0.76C162.82,24.74,163.58,24.63,164.45,24.63z
				 M166.94,32.27c-0.05,0.22-0.11,0.33-0.27,0.43c-0.16,0.11-0.33,0.16-0.43,0.22c-0.27,0.11-0.6,0.22-0.92,0.33
				c-0.33,0.11-0.65,0.22-0.92,0.33c-0.33,0.11-0.65,0.22-0.98,0.33c-0.22,0.11-0.43,0.22-0.65,0.38c-0.16,0.16-0.33,0.33-0.49,0.6
				c-0.16,0.22-0.22,0.54-0.22,0.92c0,0.76,0.16,1.3,0.54,1.63c0.33,0.38,0.98,0.54,1.95,0.54c0.98,0,1.63-0.16,1.95-0.54
				c0.33-0.38,0.54-0.92,0.54-1.63v-3.53H166.94z"/>
		</g>
		<g>
			<path class="st0" d="M171.5,37.43h2.5v2.55h-2.5V37.43z"/>
		</g>
		<g>
			<path class="st0" d="M183.49,28.8v-0.27c0-0.22-0.05-0.38-0.11-0.6c-0.05-0.22-0.22-0.38-0.38-0.54
				c-0.22-0.16-0.43-0.33-0.76-0.43c-0.33-0.11-0.71-0.16-1.19-0.16c-0.98,0-1.63,0.22-1.95,0.6c-0.33,0.38-0.49,0.87-0.49,1.41v7
				c0,0.76,0.16,1.3,0.54,1.63c0.33,0.38,0.98,0.54,1.95,0.54c0.98,0,1.63-0.16,1.95-0.54c0.33-0.38,0.54-0.92,0.54-1.63h2.44v0.81
				c0,0.33-0.05,0.71-0.16,1.14c-0.11,0.43-0.38,0.81-0.76,1.14c-0.38,0.33-0.87,0.65-1.52,0.87s-1.46,0.33-2.5,0.33
				s-1.84-0.11-2.5-0.33c-0.65-0.22-1.14-0.54-1.52-0.87c-0.38-0.33-0.6-0.71-0.76-1.14c-0.11-0.43-0.16-0.81-0.16-1.14v-1.36v-6.51
				v-0.71c0-0.49,0.11-0.92,0.27-1.36c0.16-0.43,0.49-0.81,0.87-1.14c0.38-0.33,0.92-0.54,1.52-0.76c0.6-0.16,1.36-0.27,2.22-0.27
				c1.74,0,2.98,0.33,3.74,0.98s1.19,1.52,1.19,2.5v0.71h-2.5V28.8z"/>
		</g>
		<g>
			<path class="st0" d="M197.86,36.23v0.49c0,0.22-0.05,0.54-0.11,0.92s-0.27,0.76-0.6,1.14c-0.33,0.38-0.81,0.71-1.46,0.98
				c-0.65,0.27-1.57,0.43-2.71,0.43s-2.06-0.16-2.71-0.43c-0.65-0.27-1.14-0.6-1.46-0.98c-0.33-0.38-0.54-0.76-0.6-1.19
				c-0.05-0.38-0.11-0.71-0.11-0.92v-0.33V28.1c0-0.22,0.05-0.54,0.11-0.92s0.27-0.76,0.6-1.19c0.33-0.38,0.81-0.71,1.46-0.98
				c0.65-0.27,1.57-0.43,2.71-0.43s2.06,0.16,2.71,0.43c0.65,0.27,1.14,0.6,1.46,0.98c0.33,0.38,0.54,0.76,0.6,1.14
				c0.05,0.38,0.11,0.71,0.11,0.92V36.23z M195.36,35.96v-7.05v-0.33c0-0.16-0.05-0.38-0.11-0.54c-0.05-0.22-0.16-0.38-0.38-0.54
				c-0.16-0.16-0.43-0.33-0.76-0.43c-0.33-0.11-0.76-0.16-1.36-0.16c-0.54,0-0.92,0.05-1.25,0.16c-0.33,0.11-0.54,0.27-0.76,0.49
				c-0.16,0.16-0.27,0.38-0.33,0.6c-0.05,0.22-0.05,0.38-0.05,0.54v0.27v7.05v0.27c0,0.16,0,0.33,0.05,0.54s0.16,0.43,0.33,0.6
				c0.16,0.16,0.43,0.33,0.76,0.49c0.33,0.11,0.76,0.16,1.25,0.16c0.54,0,0.98-0.05,1.36-0.16c0.33-0.11,0.6-0.27,0.76-0.43
				c0.16-0.16,0.33-0.38,0.38-0.54c0.05-0.22,0.11-0.38,0.11-0.54V35.96z"/>
		</g>
		<g>
			<path class="st0" d="M217.17,39.98h-2.44V28.86v-0.27c0-0.16,0-0.38-0.05-0.54c-0.05-0.22-0.16-0.38-0.33-0.6
				c-0.16-0.16-0.38-0.33-0.71-0.49c-0.33-0.11-0.76-0.16-1.3-0.16c-0.54,0-0.98,0.05-1.3,0.16c-0.33,0.11-0.6,0.27-0.76,0.43
				c-0.16,0.16-0.33,0.38-0.38,0.54c-0.05,0.22-0.11,0.38-0.11,0.54v0.33v11.12h-2.44V28.8v-0.27c0-0.16,0-0.38-0.05-0.54
				c-0.05-0.22-0.16-0.38-0.33-0.6c-0.16-0.16-0.38-0.33-0.71-0.49c-0.33-0.11-0.76-0.16-1.3-0.16c-0.54,0-0.98,0.05-1.3,0.16
				s-0.6,0.27-0.76,0.43c-0.16,0.16-0.33,0.38-0.38,0.54c-0.05,0.22-0.11,0.38-0.11,0.54v0.33v11.12h-2.44V28.64V28.1
				c0-0.22,0.05-0.54,0.11-0.92s0.27-0.76,0.6-1.14c0.33-0.38,0.81-0.71,1.46-0.98c0.65-0.27,1.57-0.43,2.71-0.43
				c0.92,0,1.68,0.11,2.28,0.27c0.6,0.16,1.08,0.43,1.41,0.71c0.38-0.27,0.87-0.49,1.41-0.71c0.6-0.16,1.36-0.27,2.28-0.27
				c1.14,0,2.06,0.16,2.71,0.43c0.65,0.27,1.14,0.6,1.46,0.98s0.54,0.76,0.6,1.19c0.05,0.38,0.11,0.71,0.11,0.92v0.27v11.55H217.17z
				"/>
		</g>
	</g>
	<g>
		<path class="st0" d="M26.2,23.44c-0.2-0.2-0.52-0.37-0.89-0.52c-0.37-0.14-0.89-0.23-1.55-0.23c-0.6,0-1.09,0.09-1.46,0.23
			c-0.37,0.14-0.66,0.34-0.86,0.54c-0.2,0.23-0.34,0.46-0.4,0.69c-0.06,0.23-0.09,0.46-0.09,0.66v0.32v7.62
			c0.23-0.09,0.49-0.17,0.8-0.29c0.32-0.11,0.63-0.23,0.95-0.34c0.34-0.11,0.66-0.23,1-0.34c0.34-0.11,0.63-0.23,0.92-0.32
			c0.14-0.06,0.26-0.09,0.4-0.14c0.14-0.06,0.26-0.09,0.37-0.14c0.57-0.2,0.95-0.49,1.12-0.83c0.14-0.37,0.23-0.69,0.23-0.97v-0.32
			v-3.93v-0.37c0-0.2-0.03-0.43-0.11-0.66C26.58,23.87,26.43,23.64,26.2,23.44z"/>
		<path class="st0" d="M23.91,14.87c-9.75,0-17.66,7.91-17.66,17.66s7.94,17.66,17.66,17.66c9.75,0,17.66-7.91,17.66-17.66
			S33.66,14.87,23.91,14.87z M29.62,24.93v4.73v0.2c0,0.8-0.26,1.58-0.8,2.29c-0.52,0.72-1.43,1.26-2.72,1.66
			c-0.06,0-0.11,0.03-0.2,0.06c-0.34,0.11-0.69,0.23-1.09,0.37c-0.4,0.14-0.75,0.26-1.09,0.37c-0.4,0.14-0.77,0.26-1.15,0.4
			c-0.26,0.06-0.52,0.17-0.77,0.34c-0.2,0.14-0.4,0.32-0.54,0.52c-0.17,0.2-0.26,0.49-0.26,0.83v0.03v8.11h-2.87V25.1v-0.89
			c0-0.26,0.06-0.6,0.14-1.06c0.09-0.46,0.34-0.92,0.72-1.38c0.4-0.46,0.97-0.83,1.75-1.18c0.77-0.32,1.81-0.49,3.15-0.49
			c1.35,0,2.41,0.17,3.15,0.49c0.77,0.32,1.35,0.72,1.72,1.18c0.37,0.46,0.63,0.92,0.72,1.38c0.09,0.46,0.14,0.8,0.14,1.06V24.93z"
			/>
		<path class="st0" d="M28.89,12.82c-0.05-0.75,0.06-2.16,0.23-2.71c0.06-0.14,0.17-0.69,0.32-0.8c0.46-0.34,0.26-0.23,0.95-0.72
			c0.2-0.14,0.52-0.63,0.72-0.66c0.29-0.06,0.97-0.06,1.26-0.14c0.11,0,0.86-0.54,1.23-0.63c0.17-0.09,0.52-0.66,0.77-0.69
			c0.03-0.29,0.06-0.52,0.09-0.8c-0.83,0-1.32,0.03-1.58-0.49c0.52,0.06,0.57-0.09,0.92-0.23c0.11-0.03,0.2-0.03,0.26-0.17
			c-0.03-0.2-0.4-0.29-0.57-0.34C33.34,4.37,33.17,4.23,33,4.2c-0.34-0.09-0.4-0.03-0.8-0.09c-0.23-0.03-0.4-0.14-0.6-0.14
			c-0.17,0-0.37,0.09-0.54,0.09c-0.14,0-0.37-0.09-0.52-0.06c-0.75,0.11-1.83,0.66-2.58,0.57c-0.97-0.09-2.24-0.26-3.18-0.37
			C23.6,4.06,22.16,4,20.64,3.94c-1.2,0.11-1.58,0.69-2.32,1.2c-0.17-0.09-0.46-0.03-0.54,0.23c-0.09,0.2,0,0.37,0.11,0.49
			c-0.11,0.49-0.46,0.46-0.43,1.38c-0.2,0.23-0.4,0.46-0.32,0.86c0.11,0.66,0.66,0.75,0.86,0.92c0.37,0.32,0.46,0.26,0.49,0.95
			c0.03,0.17,0.03,0.92,0.06,1.09c0.2,0.53,0.23,1.16,0.19,1.81C10.03,15.15,3.59,23.08,3.59,32.52c0,11.21,9.09,20.32,20.32,20.32
			c11.21,0,20.32-9.09,20.32-20.32C44.23,23.01,37.72,15.03,28.89,12.82z M20.07,10.11c0.69-0.66,0.63-1.15,0.86-1.4
			c1.12-0.03,1.58,0.72,2.12,0.72c0.29,0,0.34-0.17,0.46-0.26c0.32-0.06,0.69,0,1.15-0.03c1-0.09,2.18,0.23,2.55,0.32
			c0.09,0.03,0.34,0.43,0.54,1.2c0.1,0.49,0.24,1.16,0.24,1.96c-1.32-0.27-2.68-0.41-4.08-0.41c-1.3,0-2.57,0.13-3.81,0.36
			c-0.03-0.27-0.06-0.48,0-0.94C20.13,11.34,20.04,10.45,20.07,10.11z M23.91,50.72c-10.03,0-18.2-8.17-18.2-18.2
			s8.17-18.2,18.2-18.2s18.2,8.17,18.2,18.2S33.94,50.72,23.91,50.72z"/>
	</g>
</g>
</svg>
