<?xml version="1.0" encoding="utf-8"?>
<!-- Generator: Adobe Illustrator 25.3.1, SVG Export Plug-In . SVG Version: 6.00 Build 0)  -->
<svg version="1.1" id="Capa_1" xmlns="http://www.w3.org/2000/svg" xmlns:xlink="http://www.w3.org/1999/xlink" x="0px" y="0px"
	 viewBox="0 0 500 500" style="enable-background:new 0 0 500 500;" xml:space="preserve">
<style type="text/css">
	.st0{fill:#FFFFFF;}
	.st1{fill:url(#SVGID_1_);}
</style>
<g>
	<circle class="st0" cx="249.8" cy="247.9" r="218.3"/>
	<linearGradient id="SVGID_1_" gradientUnits="userSpaceOnUse" x1="48.6058" y1="421.4848" x2="666.9912" y2="-105.063">
		<stop  offset="1.104800e-03" style="stop-color:#FFE185"/>
		<stop  offset="0.2094" style="stop-color:#FFBB36"/>
		<stop  offset="0.3765" style="stop-color:#FF5176"/>
		<stop  offset="0.5238" style="stop-color:#F63395"/>
		<stop  offset="0.7394" style="stop-color:#A436D2"/>
		<stop  offset="1" style="stop-color:#5F4EED"/>
	</linearGradient>
	<path class="st1" d="M250,499.2C112.6,499.2,0.7,387.4,0.7,250C0.7,112.6,112.6,0.8,250,0.8S499.3,112.6,499.3,250
		C499.3,387.4,387.4,499.2,250,499.2z M334,148.9c-10.2,0-18.4,8.3-18.4,18.4s8.3,18.4,18.4,18.4s18.4-8.3,18.4-18.4
		S344.2,148.9,334,148.9z M252,172.5c-42.7,0-77.5,34.8-77.5,77.5s34.8,77.5,77.5,77.5c42.7,0,77.5-34.8,77.5-77.5
		S294.8,172.5,252,172.5z M252,299.6c-27.4,0-49.6-22.3-49.6-49.6s22.3-49.6,49.6-49.6c27.4,0,49.6,22.3,49.6,49.6
		S279.4,299.6,252,299.6z M408.4,185.6c0-52.2-42.3-94.5-94.5-94.5H189.2c-52.2,0-94.5,42.3-94.5,94.5v124.7
		c0,52.2,42.3,94.5,94.5,94.5h124.7c52.2,0,94.5-42.3,94.5-94.5V185.6z M378.8,310.3c0,35.8-29.1,64.9-64.9,64.9H189.2
		c-35.8,0-64.9-29.1-64.9-64.9V185.6c0-35.8,29.1-64.9,64.9-64.9h124.7c35.8,0,64.9,29.1,64.9,64.9V310.3z"/>
</g>
</svg>
