<?xml version="1.0" encoding="utf-8"?>
<!-- Generator: Adobe Illustrator 26.1.0, SVG Export Plug-In . SVG Version: 6.00 Build 0)  -->
<svg version="1.1" id="Capa_1" xmlns="http://www.w3.org/2000/svg" xmlns:xlink="http://www.w3.org/1999/xlink" x="0px" y="0px"
	 viewBox="0 0 187.2 79.6" style="enable-background:new 0 0 187.2 79.6;" xml:space="preserve">
<style type="text/css">
	.st0{opacity:0.88;fill:url(#SVGID_1_);}
	.st1{fill:#FFFFFF;}
	.st2{fill:url(#SVGID_00000083803489324979136160000003179622167944400779_);}
	.st3{fill:#FEFEFE;}
</style>
<g>
	<linearGradient id="SVGID_1_" gradientUnits="userSpaceOnUse" x1="17.089" y1="39.8249" x2="186.0513" y2="39.8249">
		<stop  offset="0" style="stop-color:#128C7E"/>
		<stop  offset="1" style="stop-color:#075E54"/>
	</linearGradient>
	<path class="st0" d="M151.7,74.2H51.4c-19,0-34.3-15.4-34.3-34.3v0c0-19,15.4-34.3,34.3-34.3h100.3c19,0,34.3,15.4,34.3,34.3v0
		C186.1,58.8,170.7,74.2,151.7,74.2z"/>
	<g>
		<path class="st1" d="M93.4,38.1c-1,0-1.9-0.1-2.7-0.4c-0.8-0.3-1.5-0.6-2-1.2c-0.6-0.5-1-1.2-1.3-2c-0.3-0.8-0.4-1.8-0.4-2.9v-7.9
			h4v7.8c0,1,0.2,1.8,0.7,2.2c0.5,0.5,1.1,0.7,1.9,0.7s1.4-0.2,1.9-0.7s0.7-1.2,0.7-2.2v-7.9h4v7.8c0,1.1-0.2,2.1-0.5,2.9
			s-0.8,1.5-1.3,2c-0.6,0.5-1.3,0.9-2.1,1.2C95.3,38,94.4,38.1,93.4,38.1z M94,19.3l3.5,1.1L94.6,23h-2.7L94,19.3z"/>
		<path class="st1" d="M102.6,23.9h3.6l5.8,7.4v-7.4h3.8v14h-3.4l-6-7.7v7.7h-3.8V23.9z"/>
		<path class="st1" d="M118.5,23.9h11.2v3.3h-7.4v2.1h6.7v3.1h-6.7v2.2h7.5v3.3h-11.3V23.9z"/>
		<path class="st1" d="M135.6,27.3h-4.2v-3.4h12.3v3.4h-4.2v10.6h-3.9V27.3z"/>
		<path class="st1" d="M145.6,23.9h11.2v3.3h-7.4v2.1h6.7v3.1h-6.7v2.2h7.5v3.3h-11.3V23.9z"/>
		<path class="st1" d="M97.5,45.8h3.7l6,14.1H103l-1-2.5h-5.4l-1,2.5h-4.1L97.5,45.8z M100.9,54.4l-1.6-4l-1.6,4H100.9z"/>
		<path class="st1" d="M120.1,58.9c-0.6,0.4-1.3,0.7-2,0.9c-0.7,0.2-1.5,0.3-2.3,0.3c-1.1,0-2.1-0.2-3-0.6c-0.9-0.4-1.7-0.9-2.4-1.5
			c-0.7-0.7-1.2-1.4-1.6-2.3c-0.4-0.9-0.6-1.8-0.6-2.8v0c0-1,0.2-1.9,0.6-2.8s0.9-1.7,1.6-2.3c0.7-0.7,1.5-1.2,2.4-1.6
			c0.9-0.4,1.9-0.6,3-0.6c1.1,0,2.1,0.2,3,0.6c0.9,0.4,1.7,0.9,2.4,1.5c0.7,0.7,1.2,1.4,1.6,2.3c0.4,0.9,0.6,1.8,0.6,2.8v0
			c0,0.7-0.1,1.5-0.3,2.1c-0.2,0.7-0.5,1.3-0.9,1.9l1.4,1.2l-2,2.2L120.1,58.9z M115.9,56.7c0.5,0,1-0.1,1.4-0.3l-1.9-1.7l2-2.2
			l1.9,1.7c0.1-0.4,0.2-0.9,0.2-1.4v0c0-0.5-0.1-1-0.3-1.5c-0.2-0.5-0.4-0.9-0.7-1.2c-0.3-0.4-0.7-0.6-1.1-0.8
			c-0.4-0.2-0.9-0.3-1.5-0.3s-1,0.1-1.4,0.3c-0.4,0.2-0.8,0.5-1.1,0.8c-0.3,0.3-0.6,0.7-0.7,1.2c-0.2,0.5-0.2,0.9-0.2,1.4v0
			c0,0.5,0.1,1,0.3,1.5c0.2,0.5,0.4,0.9,0.7,1.2s0.7,0.6,1.1,0.8C114.9,56.6,115.4,56.7,115.9,56.7z"/>
		<path class="st1" d="M132,60.1c-1,0-1.9-0.1-2.7-0.4c-0.8-0.3-1.5-0.6-2-1.2c-0.6-0.5-1-1.2-1.3-2c-0.3-0.8-0.4-1.8-0.4-2.9v-7.9
			h4v7.8c0,1,0.2,1.8,0.7,2.2c0.5,0.5,1.1,0.7,1.9,0.7s1.4-0.2,1.9-0.7s0.7-1.2,0.7-2.2v-7.9h4v7.8c0,1.1-0.2,2.1-0.5,2.9
			s-0.8,1.5-1.3,2c-0.6,0.5-1.3,0.9-2.1,1.2C133.9,60,133,60.1,132,60.1z"/>
		<path class="st1" d="M141.3,45.9h3.9v14h-3.9V45.9z M143.8,41.2l3.5,1.1l-2.9,2.6h-2.7L143.8,41.2z"/>
	</g>
	<g>
		<path class="st1" d="M3.9,67.2c0-0.1,1.3-4.9,2.4-9c-3.3-5.7-5-12.1-5-18.7c0-5,1-9.9,2.9-14.5c1.9-4.4,4.6-8.4,8-11.9
			s7.4-6.1,11.9-8c4.6-1.9,9.5-2.9,14.5-2.9s9.9,1,14.5,2.9c4.4,1.9,8.4,4.6,11.9,8c3.4,3.4,6.1,7.4,8,11.9
			c1.9,4.6,2.9,9.5,2.9,14.5s-1,9.9-2.9,14.5c-1.9,4.4-4.6,8.4-8,11.9c-3.4,3.4-7.4,6.1-11.9,8c-4.6,1.9-9.5,2.9-14.5,2.9
			c-6.3,0-12.5-1.6-18-4.6c-3.7,1-9.2,2.5-9.3,2.5L1.1,77.4L3.9,67.2z"/>
		
			<linearGradient id="SVGID_00000047780885004974555430000003330437777556287362_" gradientUnits="userSpaceOnUse" x1="16.2562" y1="63.396" x2="58.4133" y2="18.3774">
			<stop  offset="6.525724e-02" style="stop-color:#00B811"/>
			<stop  offset="1" style="stop-color:#00D34C"/>
		</linearGradient>
		<path style="fill:url(#SVGID_00000047780885004974555430000003330437777556287362_);" d="M69.8,39.5c0,17.2-14,31.2-31.2,31.2
			c-6.3,0-12.1-1.9-17-5.1c-2.8,0.7-11.8,3.1-11.8,3.1s2-7.4,3.2-11.6c-3.5-5-5.5-11.1-5.5-17.7c0-17.2,14-31.2,31.2-31.2
			S69.8,22.3,69.8,39.5z"/>
		<path class="st3" d="M57.1,51.6c-0.3,0.8-0.4,1.7-1,2.4c-1.7,1.9-3.7,3.1-6.3,3.4c-0.9,0.1-1.8,0.1-2.6,0
			c-0.9-0.1-1.7-0.3-2.5-0.5c-1-0.3-1.9-0.5-2.9-0.9c-0.8-0.3-1.7-0.7-2.5-1c-1.4-0.5-2.8-1.2-4-2c-0.7-0.5-1.4-1-2.2-1.5
			c-1.2-1-2.5-2-3.6-3.1c-2.3-2.2-4.2-4.7-6-7.3c-1.2-1.8-2.4-3.6-3.1-5.6c-0.4-1-0.8-2.1-0.8-3.2c-0.2-3.3,0.7-6.3,3.1-8.7
			c0.7-0.7,1.4-1.2,2.3-1.3c0.9-0.1,1.8-0.1,2.7,0.1c0.7,0.1,1.1,0.6,1.3,1.2c0.4,0.8,0.7,1.6,1.1,2.4c0.7,1.7,1.4,3.4,2.1,5.1
			c0.2,0.5,0.2,1,0,1.6c-0.6,1.2-1.5,2.2-2.4,3.2c-0.7,0.8-0.8,1.1-0.2,2c1.4,2.3,3,4.5,5.1,6.3c2,1.8,4.4,3.3,6.9,4.3
			c0.3,0.1,0.7,0.3,1,0.4c0.6,0.3,1.2,0.1,1.6-0.4c1-1.2,2.1-2.4,2.9-3.7c0.4-0.6,0.9-0.8,1.7-0.6c0.6,0.2,1.2,0.5,1.8,0.7
			c2,1,4,2,6,2.9c0.6,0.3,0.9,0.8,0.9,1.5C57.4,50.2,57.3,50.9,57.1,51.6z"/>
	</g>
</g>
</svg>
