<?xml version="1.0" encoding="utf-8"?>
<!-- Generator: Adobe Illustrator 26.0.2, SVG Export Plug-In . SVG Version: 6.00 Build 0)  -->
<svg version="1.1" id="Capa_1" xmlns="http://www.w3.org/2000/svg" xmlns:xlink="http://www.w3.org/1999/xlink" x="0px" y="0px"
	 viewBox="0 0 28.1 28.1" style="enable-background:new 0 0 28.1 28.1;" xml:space="preserve">
<style type="text/css">
	
		.st0{clip-path:url(#SVGID_00000147900303612159110140000008350389858135871157_);fill:url(#SVGID_00000127735970937716333070000000018725030449197988_);}
	.st1{fill:#FFFFFF;}
</style>
<g>
	<defs>
		<rect id="SVGID_1_" x="0" y="0" width="28.1" height="28.1"/>
	</defs>
	<clipPath id="SVGID_00000111885956793835524810000000717776537930846637_">
		<use xlink:href="#SVGID_1_"  style="overflow:visible;"/>
	</clipPath>
	
		<linearGradient id="SVGID_00000098221822824250624300000008704441790954626727_" gradientUnits="userSpaceOnUse" x1="-3.4227" y1="31.5768" x2="40.9275" y2="-12.7734">
		<stop  offset="1.104800e-03" style="stop-color:#FFE286"/>
		<stop  offset="0.2094" style="stop-color:#FFBC36"/>
		<stop  offset="0.3765" style="stop-color:#FF5176"/>
		<stop  offset="0.5238" style="stop-color:#F73396"/>
		<stop  offset="0.7394" style="stop-color:#A536D3"/>
		<stop  offset="1" style="stop-color:#5F4EEE"/>
	</linearGradient>
	
		<path style="clip-path:url(#SVGID_00000111885956793835524810000000717776537930846637_);fill:url(#SVGID_00000098221822824250624300000008704441790954626727_);" d="
		M28.6,14.1c0,4.8,0,14.6,0,14.6s-11.4,0-14.6,0c-4,0-14.5,0-14.5,0s0-10.5,0-14.5c0-3.6,0-14.5,0-14.5s10.1,0,14.5,0
		c4.5,0,14.5,0,14.5,0S28.6,10.5,28.6,14.1z"/>
</g>
<g>
	<circle class="st1" cx="19" cy="9.2" r="1.1"/>
	<path class="st1" d="M14.1,9.5c-2.5,0-4.6,2.1-4.6,4.6s2.1,4.6,4.6,4.6s4.6-2.1,4.6-4.6S16.7,9.5,14.1,9.5z M14.1,17
		c-1.6,0-2.9-1.3-2.9-2.9c0-1.6,1.3-2.9,2.9-2.9c1.6,0,2.9,1.3,2.9,2.9C17.1,15.7,15.8,17,14.1,17z"/>
	<path class="st1" d="M17.8,23.4h-7.4c-3.1,0-5.6-2.5-5.6-5.6v-7.4c0-3.1,2.5-5.6,5.6-5.6h7.4c3.1,0,5.6,2.5,5.6,5.6v7.4
		C23.4,20.9,20.9,23.4,17.8,23.4z M10.3,6.5c-2.1,0-3.8,1.7-3.8,3.8v7.4c0,2.1,1.7,3.8,3.8,3.8h7.4c2.1,0,3.8-1.7,3.8-3.8v-7.4
		c0-2.1-1.7-3.8-3.8-3.8H10.3z"/>
</g>
</svg>
